<?xml version="1.0" encoding="utf-8"?>
<!-- Generator: Adobe Illustrator 21.0.2, SVG Export Plug-In . SVG Version: 6.00 Build 0)  -->
<svg version="1.1" id="Digitalfire" xmlns="http://www.w3.org/2000/svg" xmlns:xlink="http://www.w3.org/1999/xlink" x="0px"
	 y="0px" viewBox="0 0 282.8 56.8" style="enable-background:new 0 0 282.8 56.8;" xml:space="preserve">
<style type="text/css">
	.st0{fill:#020202;}
	.st1{fill:url(#SVGID_1_);stroke:#E7E63A;stroke-width:0.3;stroke-linejoin:round;stroke-miterlimit:10;}
</style>
<g>
	<path d="M11.3,45.7v3.8c0,0.7,0.2,1.3,0.4,1.6s0.9,0.4,1.6,0.4h0.2v1.3H4.7v-1.3h0.2c0.9,0,1.3-0.2,1.6-0.4
		c0.2-0.2,0.4-0.9,0.4-1.6V40c0-0.7-0.2-1.3-0.4-1.6C6.2,38.2,5.5,38,4.9,38H4.7v-1.3h6.7h1.6c1.6,0,2.4,0,3.1,0.2
		c0.7,0,1.3,0.2,2,0.7c0.7,0.4,1.1,0.9,1.6,1.6s0.7,1.3,0.7,2c0,2-1.1,3.1-3.3,4c0.7,0.4,1.6,1.6,2.7,3.3c0.9,1.6,1.8,2.4,2,2.7
		c0.4,0.2,0.9,0.4,1.3,0.4v1.3H18c-0.4-0.4-1.3-2-2.7-4.2c-0.7-1.1-1.1-1.8-1.3-2.2c-0.2-0.2-0.4-0.4-0.9-0.7
		C12.9,45.7,12.2,45.7,11.3,45.7z M11.3,44.4c1.3,0,2.2,0,2.7-0.2c0.4-0.2,0.9-0.4,1.1-0.9c0.2-0.4,0.4-1.1,0.4-1.8
		c0-1.1-0.2-2-0.9-2.4c-0.4-0.4-1.6-0.7-2.9-0.7c-0.2,0-0.4,0-0.7,0v6H11.3z"/>
	<path d="M30.2,45.3v4c0,0.7,0,1.3,0.2,1.6c0,0.2,0.2,0.4,0.7,0.7c0.4,0.2,0.9,0.2,1.8,0.2c1.1,0,1.8-0.2,2.4-0.4
		c0.4-0.2,0.9-0.7,1.3-1.3c0.4-0.7,0.7-1.3,0.9-2h1.3v5.3H23.7v-1.3H24c0.9,0,1.3-0.2,1.6-0.4s0.4-0.9,0.4-1.6v-9.5
		c0-0.7-0.2-1.3-0.4-1.6c-0.2-0.2-0.9-0.4-1.6-0.4h-0.2v-1.3h14l0.2,4.2h-1.3c-0.2-0.7-0.4-1.3-0.9-1.8c-0.2-0.4-0.7-0.7-0.9-0.9
		s-0.9-0.2-1.6-0.2h-3.1V44h1.6c0.7,0,1.1-0.2,1.6-0.4c0.4-0.2,0.4-0.9,0.4-1.6H35v5.3h-1.3v-0.2c0-0.4,0-0.9-0.2-1.3
		c-0.2-0.4-0.7-0.4-1.6-0.4C31.9,45.3,30.2,45.3,30.2,45.3z"/>
	<path d="M46.6,45.3v4.4c0,0.7,0.2,1.3,0.4,1.6c0.2,0.2,0.9,0.4,1.6,0.4H49v1.3h-8.9v-1.3h0.2c0.9,0,1.3-0.2,1.6-0.4
		c0.2-0.2,0.4-0.9,0.4-1.6v-9.5c0-0.7-0.2-1.3-0.4-1.6c-0.2-0.2-0.9-0.4-1.6-0.4h-0.2v-1.3h13.8v4.2h-1.3c-0.2-0.7-0.4-1.3-0.9-1.8
		c-0.2-0.4-0.7-0.7-0.9-0.9c-0.4-0.2-0.9-0.2-1.6-0.2h-2.7v5.5h1.3c0.7,0,1.1-0.2,1.3-0.4c0.2-0.2,0.4-0.9,0.4-1.6H51v5.5h-1.3
		c0-0.9-0.2-1.3-0.4-1.8c-0.2-0.2-0.7-0.4-1.3-0.4h-1.3V45.3z"/>
	<path d="M61.2,45.3v4c0,0.7,0,1.3,0.2,1.6c0,0.2,0.2,0.4,0.7,0.7c0.4,0.2,0.9,0.2,1.8,0.2c1.1,0,1.8-0.2,2.4-0.4
		c0.4-0.2,0.9-0.7,1.3-1.3s0.7-1.3,0.9-2h1.3v5.3H54.8v-1.3H55c0.9,0,1.3-0.2,1.6-0.4s0.4-0.9,0.4-1.6v-9.5c0-0.7-0.2-1.3-0.4-1.6
		s-0.9-0.4-1.6-0.4h-0.2v-1.3h14l0.2,4.2h-1.3c-0.2-0.7-0.4-1.3-0.9-1.8c-0.2-0.4-0.7-0.7-0.9-0.9s-0.9-0.2-1.6-0.2h-3.1V44h1.6
		c0.7,0,1.1-0.2,1.6-0.4c0.2-0.2,0.4-0.9,0.4-1.6h1.3v5.3h-1.3v-0.2c0-0.4,0-0.9-0.2-1.3c-0.2-0.4-0.7-0.4-1.6-0.4
		C63,45.3,61.2,45.3,61.2,45.3z"/>
	<path d="M77.6,45.7v3.8c0,0.7,0.2,1.3,0.4,1.6c0.2,0.2,0.9,0.4,1.6,0.4h0.2v1.3H71v-1.3h0.2c0.9,0,1.3-0.2,1.6-0.4
		c0.2-0.2,0.4-0.9,0.4-1.6V40c0-0.7-0.2-1.3-0.4-1.6c-0.2-0.2-0.9-0.4-1.6-0.4H71v-1.3h6.7h1.6c1.6,0,2.4,0,3.1,0.2
		c0.7,0,1.3,0.2,2,0.7c0.7,0.4,1.1,0.9,1.6,1.6s0.7,1.3,0.7,2c0,2-1.1,3.1-3.3,4c0.7,0.4,1.6,1.6,2.7,3.3c0.9,1.6,1.8,2.4,2,2.7
		c0.4,0.2,0.9,0.4,1.3,0.4v1.3h-5.1c-0.4-0.4-1.3-2-2.7-4.2c-0.7-1.1-1.1-1.8-1.3-2.2c-0.2-0.2-0.4-0.4-0.9-0.7
		C79.2,45.7,78.5,45.7,77.6,45.7z M77.6,44.4c1.3,0,2.2,0,2.7-0.2c0.4-0.2,0.9-0.4,1.1-0.9c0.2-0.4,0.4-1.1,0.4-1.8
		c0-1.1-0.2-2-0.9-2.4c-0.4-0.4-1.6-0.7-2.9-0.7c-0.2,0-0.4,0-0.7,0v6H77.6z"/>
	<path d="M96.5,45.3v4c0,0.7,0,1.3,0.2,1.6c0,0.2,0.2,0.4,0.7,0.7c0.4,0.2,0.9,0.2,1.8,0.2c1.1,0,1.8-0.2,2.4-0.4
		c0.4-0.2,0.9-0.7,1.3-1.3c0.4-0.7,0.7-1.3,0.9-2h1.3v5.3H90.1v-1.3h0.2c0.9,0,1.3-0.2,1.6-0.4c0.2-0.2,0.4-0.9,0.4-1.6v-9.5
		c0-0.7-0.2-1.3-0.4-1.6s-0.9-0.4-1.6-0.4h-0.2v-1.3h13.8l0.2,4.2h-1.3c-0.2-0.7-0.4-1.3-0.9-1.8c-0.2-0.4-0.7-0.7-0.9-0.9
		s-0.9-0.2-1.6-0.2h-3.1V44h1.6c0.7,0,1.1-0.2,1.6-0.4c0.2-0.2,0.4-0.9,0.4-1.6h1.3v5.3h-1.3v-0.2c0-0.4,0-0.9-0.2-1.3
		c-0.2-0.4-0.7-0.4-1.6-0.4C98,45.3,96.5,45.3,96.5,45.3z"/>
	<path d="M110.2,41.3v7.3c0,1.1,0.2,2,0.7,2.2c0.4,0.4,1.1,0.4,1.8,0.4v1.3h-6.2v-1.3c0.4,0,0.9-0.2,1.3-0.4
		c0.4-0.2,0.7-0.4,0.7-0.9c0-0.2,0.2-0.9,0.2-1.6v-8.2c0-1.6-0.9-2.4-2.4-2.4v-1.3h5.5l9.1,9.8v-5.8c0-1.8-0.7-2.7-2.2-2.7v-1.3h6
		v1.3c-0.4,0-0.9,0-1.1,0.2c-0.4,0.2-0.7,0.4-0.7,0.9c-0.2,0.4-0.2,0.9-0.2,1.6v12.2h-1.6L110.2,41.3z"/>
	<path d="M142.2,46.4v6h-1.3c-0.2-0.7-0.4-1.1-0.7-1.6c-1.3,1.3-3.1,2-5.3,2c-2.7,0-4.7-0.9-6.2-2.4c-1.6-1.6-2.2-3.5-2.2-5.8
		s0.7-4.2,2.2-5.8c1.6-1.8,3.5-2.7,6.2-2.7c2,0,3.8,0.7,5.1,2c0.2-0.4,0.4-0.9,0.4-1.3h1.3l0.2,6h-1.3c-0.4-1.6-1.1-2.9-2-3.5
		c-0.9-0.7-2-1.3-3.1-1.3c-1.3,0-2.4,0.4-3.3,1.6c-0.7,1.1-1.1,2.9-1.1,5.1c0,1.6,0.2,2.9,0.4,3.8c0.2,0.9,0.7,1.8,1.6,2.2
		c0.9,0.4,1.6,0.7,2.4,0.7c1.1,0,2.2-0.4,3.1-1.1c0.9-0.9,1.6-2,2-3.8C140.6,46.4,142.2,46.4,142.2,46.4z"/>
	<path d="M150.6,45.3v4c0,0.7,0,1.3,0.2,1.6c0,0.2,0.2,0.4,0.7,0.7c0.4,0.2,0.9,0.2,1.8,0.2c1.1,0,1.8-0.2,2.4-0.4
		c0.4-0.2,0.9-0.7,1.3-1.3c0.4-0.7,0.7-1.3,0.9-2h1.3v5.3h-15.1v-1.3h0.2c0.9,0,1.3-0.2,1.6-0.4s0.4-0.9,0.4-1.6v-9.5
		c0-0.7-0.2-1.3-0.4-1.6s-0.9-0.4-1.6-0.4h-0.2v-1.3h14l0.2,4.2h-1.3c-0.2-0.7-0.4-1.3-0.9-1.8c-0.2-0.4-0.7-0.7-0.9-0.9
		s-0.9-0.2-1.6-0.2h-3.1V44h1.6c0.7,0,1.1-0.2,1.6-0.4c0.4-0.2,0.4-0.9,0.4-1.6h1.3v5.3h-1.3v-0.2c0-0.4,0-0.9-0.2-1.3
		c-0.2-0.4-0.7-0.4-1.6-0.4C152.4,45.3,150.6,45.3,150.6,45.3z"/>
	<path d="M181.9,47.5v5.3h-15.1v-1.3h0.2c0.9,0,1.3-0.2,1.6-0.4c0.2-0.2,0.4-0.9,0.4-1.6V40c0-0.7-0.2-1.3-0.4-1.6
		c-0.2-0.2-0.9-0.4-1.6-0.4h-0.2v-1.3h8.9V38h-0.2c-0.9,0-1.3,0.2-1.6,0.4c-0.2,0.2-0.4,0.9-0.4,1.6v9.1c0,0.7,0,1.1,0.2,1.3
		c0,0.2,0.2,0.4,0.7,0.7c0.4,0.2,0.9,0.2,1.8,0.2c1.3,0,2.4-0.4,3.3-1.1c0.7-0.7,1.1-1.6,1.6-2.9h0.9V47.5z"/>
	<path d="M182.8,38.2v-1.3h8.7v1.3h-0.2c-0.9,0-1.3,0.2-1.6,0.4c-0.2,0.2-0.4,0.9-0.4,1.6v9.5c0,0.7,0.2,1.3,0.4,1.6
		c0.2,0.2,0.9,0.4,1.6,0.4h0.2v1.3h-8.7v-1.3c0.9,0,1.6-0.2,1.8-0.4c0.2-0.2,0.4-0.9,0.4-1.6v-9.5c0-0.7-0.2-1.3-0.4-1.6
		C184.3,38.2,183.7,38.2,182.8,38.2z"/>
	<path d="M203.4,44.4c1.6,0.2,2.9,0.9,3.5,1.6c0.9,0.7,1.1,1.6,1.1,2.9c0,1.3-0.4,2.2-1.6,3.1c-1.1,0.7-2.7,1.1-5.1,1.1h-8.7v-1.3
		c0.9,0,1.3-0.2,1.8-0.4c0.2-0.2,0.4-0.9,0.4-1.6v-9.3c0-0.7-0.2-1.3-0.4-1.6c-0.2-0.2-0.9-0.4-1.8-0.4v-1.3l6.4-0.4h0.9
		c2.9,0,4.9,0.4,5.8,1.1s1.6,1.6,1.6,2.9c0,0.9-0.4,1.6-1.1,2.2C205.9,43.5,204.7,44,203.4,44.4z M199.4,43.7h0.9
		c0.9,0,1.6-0.2,2-0.7c0.4-0.4,0.7-1.1,0.7-2.2c0-0.7-0.2-1.3-0.4-1.8c-0.2-0.4-0.7-0.7-1.1-0.9c-0.4-0.2-1.1-0.2-2-0.2
		C199.4,38,199.4,43.7,199.4,43.7z M199.4,45.1v4.4c0,0.4,0,0.7,0.2,1.1c0.2,0.4,0.2,0.4,0.4,0.7c0.2,0.2,0.7,0.2,1.1,0.2
		c0.7,0,1.3-0.2,1.8-0.9c0.4-0.4,0.7-1.3,0.7-2.4c0-0.9-0.2-1.6-0.4-2c-0.2-0.4-0.7-0.9-1.1-0.9c-0.4-0.2-1.1-0.2-2-0.2H199.4z"/>
	<path d="M216.5,45.7v3.8c0,0.7,0.2,1.3,0.4,1.6c0.2,0.2,0.9,0.4,1.6,0.4h0.2v1.3h-8.9v-1.3h0.4c0.9,0,1.3-0.2,1.6-0.4
		c0.2-0.2,0.4-0.9,0.4-1.6V40c0-0.7-0.2-1.3-0.4-1.6c-0.2-0.2-0.9-0.4-1.6-0.4h-0.2v-1.3h6.7h1.6c1.6,0,2.4,0,3.1,0.2
		c0.7,0,1.3,0.2,2,0.7s1.1,0.9,1.6,1.6c0.4,0.7,0.7,1.3,0.7,2c0,2-1.1,3.1-3.3,4c0.7,0.4,1.6,1.6,2.7,3.3c0.9,1.6,1.8,2.4,2,2.7
		c0.4,0.2,0.9,0.4,1.3,0.4v1.3h-5.1c-0.4-0.4-1.3-2-2.7-4.2c-0.7-1.1-1.1-1.8-1.3-2.2c-0.2-0.2-0.4-0.4-0.9-0.7
		C218.1,45.7,217.4,45.7,216.5,45.7z M216.5,44.4c1.3,0,2.2,0,2.7-0.2c0.4-0.2,0.9-0.4,1.1-0.9c0.2-0.4,0.4-1.1,0.4-1.8
		c0-1.1-0.2-2-0.9-2.4c-0.4-0.4-1.6-0.7-2.9-0.7c-0.2,0-0.4,0-0.7,0v6H216.5z"/>
	<path d="M231.8,48.6l-0.2,0.9c-0.2,0.7-0.4,0.9-0.4,1.1c0,0.4,0.2,0.7,0.4,0.9c0.2,0.2,0.7,0.2,1.3,0.2v1.3h-5.5v-1.3
		c1.1,0,2-0.9,2.7-2.7l5.1-12.4h1.3l5.1,12.4c0.4,1.3,0.9,2,1.3,2.2c0.4,0.2,0.9,0.4,1.1,0.4v1.3h-8.2v-1.3c0.7,0,1.1,0,1.3-0.2
		c0.2-0.2,0.2-0.2,0.2-0.4c0-0.2,0-0.4-0.2-0.7l-0.2-0.4l-0.4-1.1h-4.7V48.6z M232.5,47.1h4l-2-4.9L232.5,47.1z"/>
	<path d="M250.9,45.7v3.8c0,0.7,0.2,1.3,0.4,1.6s0.9,0.4,1.6,0.4h0.2v1.3h-8.9v-1.3h0.2c0.9,0,1.3-0.2,1.6-0.4
		c0.2-0.2,0.4-0.9,0.4-1.6V40c0-0.7-0.2-1.3-0.4-1.6c-0.2-0.2-0.9-0.4-1.6-0.4h-0.2v-1.3h6.7h1.6c1.6,0,2.4,0,3.1,0.2
		c0.7,0,1.3,0.2,2,0.7c0.7,0.4,1.1,0.9,1.6,1.6s0.7,1.3,0.7,2c0,2-1.1,3.1-3.3,4c0.7,0.4,1.6,1.6,2.7,3.3c0.9,1.6,1.8,2.4,2,2.7
		c0.4,0.2,0.9,0.4,1.3,0.4v1.3h-5.1c-0.4-0.4-1.3-2-2.7-4.2c-0.7-1.1-1.1-1.8-1.3-2.2c-0.2-0.2-0.4-0.4-0.9-0.7
		C252.4,45.7,251.8,45.7,250.9,45.7z M250.9,44.4c1.3,0,2.2,0,2.7-0.2c0.4-0.2,0.9-0.4,1.1-0.9c0.2-0.4,0.4-1.1,0.4-1.8
		c0-1.1-0.2-2-0.9-2.4c-0.4-0.4-1.6-0.7-2.9-0.7c-0.2,0-0.4,0-0.7,0v6H250.9z"/>
	<path d="M267.3,46.2l-3.8-6c-0.7-0.9-1.1-1.6-1.3-1.8s-0.7-0.4-1.3-0.4v-1.3h8.2V38c-0.9,0-1.3,0.2-1.3,0.7c0,0.2,0.2,0.7,0.4,1.1
		l2.7,4.4l2.4-4c0.2-0.4,0.4-0.9,0.4-1.1c0-0.7-0.4-1.1-1.6-1.1v-1.3h5.5V38c-0.4,0-0.9,0.2-1.3,0.7c-0.4,0.4-1.1,1.1-1.8,2.4
		l-3.1,4.9v3.5c0,0.7,0.2,1.3,0.4,1.6c0.2,0.2,0.9,0.4,1.6,0.4h0.2v1.3h-8.9v-1.3h0.2c0.9,0,1.3-0.2,1.6-0.4
		c0.2-0.2,0.4-0.9,0.4-1.6v-3.3H267.3z"/>
</g>
<g>
	<path class="st0" d="M278.6,6.2c0.2-0.2,0.4-0.2,0.9-0.4V5.4h-10.6V6c0.7,0,0.9,0.4,0.9,0.9c0,0.2-0.2,0.7-0.4,1.3
		c-0.2,0.7-0.4,1.6-0.9,2.7c-0.4,1.1-0.9,2.2-1.3,3.5s-0.9,2.7-1.3,4c0-0.2-0.2-0.7-0.4-1.3c-0.2-0.7-0.4-1.3-0.7-2.2
		c-0.2-0.9-0.7-1.8-0.9-2.7c-0.2-0.9-0.7-1.8-0.9-2.7c-0.2-0.9-0.4-1.6-0.7-2C262,7.1,262,6.7,262,6.7c0-0.7,0.2-0.9,0.9-0.9V5.4
		h-10.2V6c0.4,0,0.9,0.2,0.9,0.4c0.2,0.2,0.2,0.4,0.2,0.7v10.2c-0.2-1.3-0.4-2.7-0.9-4c-0.7-1.8-1.6-3.3-2.7-4.7
		c-1.1-1.3-2.4-2.2-4-2.9c-1.6-0.7-3.1-0.9-4.7-0.9c-1.8,0-3.3,0.2-4.7,0.9c-1.6,0.7-2.9,1.6-4,2.9c-1.1,1.3-2,2.7-2.7,4.7
		c-0.7,1.8-0.9,4-0.9,6.2s0.2,4,0.9,5.5l-1.6-3.1l-0.7,0.4c0,0.2,0,0.2,0.2,0.4c0,0,0,0.2,0,0.4c0,0.4-0.2,0.9-0.9,1.1
		c-4.2,2.7-4.9,2.4-6.9,2.4c-0.9,0-1.6-0.2-2.4-0.4c-0.9-0.2-1.6-0.7-2.4-1.3c-0.7-0.7-1.3-1.3-1.8-2.2c-0.4-0.9-0.7-2.2-0.7-3.5
		c0-1.3,0.2-2.4,0.7-3.5c0.4-0.9,1.1-1.8,1.8-2.2c0.7-0.7,1.6-0.9,2.4-1.3c0.9-0.2,1.8-0.4,2.4-0.4c0.9,0,1.6,0,2.4,0.2
		c0.7,0.2,1.3,0.4,2,0.7c0.7,0.2,1.1,0.4,1.3,0.9c0.4,0.2,0.4,0.7,0.4,0.9c0,0.2,0,0.4,0,0.4c0,0.2,0,0.2,0,0.4l0.4,0.4l3.5-8.9
		l-0.4-0.2c-0.2,0.2-0.4,0.4-0.7,0.4c-0.2,0-0.4,0-0.9-0.2s-1.1-0.4-1.8-0.7C226,6,225.2,5.8,224,5.4c-1.1-0.2-2.4-0.4-4-0.4
		s-3.1,0.2-4.7,0.9c-1.6,0.7-2.9,1.6-4.2,2.7s-2.2,2.7-2.9,4.7c-0.7,1.8-1.1,4-1.1,6.4s0.4,4.4,1.1,6.4c0.2,0.2,0.2,0.4,0.4,0.9
		c-0.7-0.9-1.6-1.3-2.7-1.3c-1.1,0-2,0.4-2.7,1.3c-0.4,0.7-0.9,1.3-1.1,2v-3.3h-0.4c0,0.7-0.2,1.1-0.2,1.3c0,0.2-0.2,0.2-0.4,0.2
		h-12.6V22h7.3c0.4,0,0.7,0.2,0.9,0.4c0.2,0.2,0.2,0.4,0.4,0.9h0.4v-8.4h-0.4c0,0.4-0.2,0.7-0.4,0.9c-0.2,0.2-0.4,0.4-0.9,0.4h-7.3
		v-4.4h12.6c0.2,0,0.4,0,0.4,0.2s0.2,0.7,0.2,1.1h0.4v-8c0,0-0.9,0-1.1,0h-19.7v0.7c0.4,0,0.9,0.2,0.9,0.4c0.2,0.2,0.2,0.4,0.2,0.7
		v4.9c-0.2-1.8-0.9-3.3-1.8-4.2c-1.3-1.6-3.3-2.2-6.4-2.2h-43.5V6c0.4,0,0.9,0.2,0.9,0.4c0.2,0.2,0.2,0.4,0.2,0.7v18.4h-0.2
		c0,0.7-0.2,1.1-0.2,1.1c0,0.2-0.2,0.2-0.4,0.2h-11.8v-20c0-0.2,0-0.4,0.2-0.7c0.2-0.2,0.4-0.2,0.9-0.4V5.4h-8.2V6
		c0.4,0,0.9,0.2,0.9,0.4c0.2,0.2,0.2,0.4,0.2,0.7v25.1c0,0.2,0,0.4-0.2,0.7c-0.2,0.2-0.4,0.2-0.9,0.4c-0.4,0-0.7-0.2-0.9-0.2
		c-0.2-0.2-0.2-0.7-0.4-1.3c-0.4-1.3-0.9-2.9-1.3-4.7c-0.4-1.8-1.1-3.5-1.6-5.3c-0.4-1.8-1.1-3.5-1.6-5.3c-0.4-1.8-0.9-3.3-1.3-4.7
		c-0.7-1.8-1.1-2.9-1.3-3.8c-0.2-0.9-0.4-1.3-0.4-1.3c0-0.2,0-0.4,0.2-0.4c0.2,0,0.2-0.2,0.4-0.2V5.4H93.8V6c0.2,0,0.4,0,0.4,0.2
		c0.2,0,0.2,0.2,0.2,0.4c0,0,0,0.4-0.2,1.1c-0.2,0.7-0.4,1.6-0.7,2.9c-0.2,1.1-0.7,2.4-1.1,4c-0.4,1.6-0.9,2.9-1.3,4.4
		c-0.4,1.6-0.9,3.1-1.3,4.4c-0.4,1.6-0.9,2.9-1.1,4c-0.4,1.1-0.7,2.2-0.9,3.1c-0.2,0.9-0.4,1.3-0.4,1.6c-0.2,0.4-0.2,0.7-0.4,0.9
		c-0.2,0.2-1.6,0.2-2,0.4c-0.4,0-1.3-0.2-1.6-0.4c-0.2-0.2-0.2-0.4-0.2-0.7V11.8h6.9c0.2,0,0.4,0,0.4,0.2s0.2,0.7,0.2,1.1h0.4v-8
		H62.3v0.7c0.4,0,0.9,0.2,0.9,0.4c0.7,0.2,0.7,0.4,0.7,0.7V18H53.2c-0.4,0-0.4-0.2-0.7-0.9h-0.4v7.5h0.4c0-0.2,0-0.7,0.2-0.9
		c0-0.2,0.2-0.2,0.4-0.2h5.1v3.5c-0.9,0.2-1.6,0.7-2.4,0.7C55,28,54.1,28,53,28c-0.9,0-1.8-0.2-2.7-0.4c-0.9-0.2-1.8-0.9-2.4-1.6
		c-0.7-0.7-1.3-1.6-1.8-2.7c-0.4-1.1-0.7-2.2-0.7-3.8s0.2-2.7,0.7-3.8s0.9-2,1.6-2.7c0.7-0.7,1.3-1.3,2.2-1.6
		c0.9-0.4,1.8-0.4,2.7-0.4c0.9,0,1.6,0,2.4,0.2s1.6,0.4,2.2,0.7c0.7,0.2,1.3,0.4,1.8,0.9c0.2,0.2,0.4,0.4,0.4,0.7s0,0.4,0,0.7
		l0.4,0.2l2.7-7.1l-0.4-0.2c-0.2,0.2-0.4,0.4-0.4,0.4c-0.2,0-0.4-0.2-1.1-0.4c-0.4-0.4-1.1-0.7-1.8-0.9c-0.9-0.2-1.6-0.4-2-0.7
		c-0.4-0.2-0.9-0.2-1.6-0.4c-0.4,0-0.9-0.2-1.6-0.2c-0.4,0-1.1,0-1.8,0c-1.6,0-3.3,0.2-4.9,0.9c-1.6,0.7-2.9,1.6-4,2.7
		s-2.2,2.7-2.9,4.7c-0.2,1.3-0.7,3.1-0.7,4.9V6.9c0-0.2,0-0.4,0.2-0.7C39.9,6,40.2,6,40.6,5.8V5.4h-8.2V6c0.4,0,0.9,0.2,0.9,0.4
		c0.2,0.2,0.2,0.4,0.2,0.7v10.2c0-1.1-0.2-2.2-0.4-3.1c-0.4-1.8-1.1-3.3-2-4.4c-0.9-1.3-2-2.2-3.3-3.1c-1.3-0.7-2.9-1.1-4.7-1.1H6.4
		v0.7c0.4,0,0.9,0.2,0.9,0.4c0.2,0.2,0.2,0.4,0.2,0.7v24.8c0,0.2,0,0.4-0.2,0.7c-0.2,0.2-0.4,0.2-0.9,0.4V34h16.2
		c1.8,0,3.5-0.4,4.9-1.1c1.3-0.9,2.4-1.8,3.5-3.1c0.9-1.3,1.6-2.9,2-4.7c0.2-1.1,0.4-2,0.4-3.1v10.2c0,0.2,0,0.4-0.2,0.7
		c-0.2,0.2-0.4,0.2-0.9,0.4V34h8.2v-0.7c-0.4,0-0.9-0.2-0.9-0.4c-0.2-0.2-0.2-0.4-0.2-0.7V21.1c0.2,1.8,0.4,3.3,1.1,4.9
		c0.7,1.8,1.8,3.3,2.9,4.4s2.4,2,4,2.7c1.6,0.7,3.1,0.9,4.9,0.9c4.4,0,8.4-1.1,11.8-3.3v1.6c0,0.2,0,0.4-0.2,0.7
		c-0.2,0.2-0.4,0.2-0.9,0.4V34h8.2v-0.7c-0.4,0-0.9-0.2-0.9-0.4c-0.2-0.2-0.2-0.4-0.2-0.7V13.6h0.4c0-0.7,0.2-1.1,0.2-1.1
		c0-0.2,0.2-0.2,0.4-0.2h6.9v20c0,0.2,0,0.4-0.2,0.7s-1.1,0.2-1.6,0.4V34h9.3l0,0h8.4v-0.7c-0.2,0-0.7,0-0.7-0.2
		c0,0-0.2-0.2-0.2-0.4c0,0,0-0.2,0-0.4c0-0.2,0-0.4,0.2-0.9c0-0.4,0.2-0.9,0.4-1.6c0.2-0.7,0.4-1.3,0.7-2.4h9.3
		c0,0.2,0.2,0.4,0.2,1.1c0.2,0.4,0.2,1.1,0.4,1.6c0.2,0.4,0.2,1.1,0.4,1.6c0.2,0.4,0.2,0.7,0.2,0.7c0,0.4-0.4,0.7-0.9,0.7v0.7h8.2
		h0.2h26.8v-0.7c-0.4,0-0.9-0.2-0.9-0.4c-0.2-0.2-0.2-0.4-0.2-0.7v-9.1h8.7c0.2,0,0.4,0,0.4,0.2c0,0.2,0.2,0.7,0.2,1.1h0.4v-8.7
		h-0.4c0,0.4-0.2,0.9-0.2,1.1c-0.4,0.2-0.7,0.2-0.9,0.2H138v-4.9h13.1c0.2,0,0.4,0,0.4,0.2s0.2,0.4,0.2,1.1h0.4V32
		c0,0.2,0,0.4-0.2,0.7c-0.2,0.2-0.4,0.2-0.9,0.4v0.7h8.4h0.2h8.4v-0.7c-0.4,0-0.9-0.2-0.9-0.4c-0.2-0.2-0.2-0.4-0.2-0.7v-9.1h3.8
		c0,0.2,0.2,0.4,0.4,1.1c0.2,0.4,0.7,1.1,0.9,1.8c0.4,0.7,0.7,1.3,1.1,2c0.4,0.7,0.7,1.3,1.1,2c0.2,0.7,0.7,1.1,0.9,1.6
		c0.2,0.4,0.2,0.7,0.2,0.7c0,0.7-0.2,0.9-0.9,0.9v0.7h6.7h1.6H201c0.2,0,1.1,0,1.1,0v-2.9c0.2,0.7,0.4,1.3,1.1,2
		c0.7,0.9,1.6,1.1,2.7,1.1c1.1,0,2-0.4,2.7-1.1c0.7-0.9,1.1-1.8,1.1-2.9c0-0.4,0-0.9-0.2-1.1c0.4,0.7,0.9,1.3,1.6,1.8
		c1.3,1.1,2.7,2,4.2,2.7c1.6,0.7,3.1,0.9,4.7,0.9s2.9-0.2,4-0.4c1.1-0.2,2.2-0.7,3.1-0.9c0.9-0.4,2.7-1.3,3.3-1.6
		c0.4-0.2,0.9-0.4,1.1-0.4s0.2,0,0.4,0c0,0,0.2,0.2,0.2,0.4l0.7-0.4l-0.9-1.8c0.4,0.4,0.7,1.1,1.1,1.6c1.1,1.3,2.4,2.2,4,2.7
		c1.6,0.7,3.1,0.9,4.7,0.9c1.8,0,3.3-0.2,4.7-0.9c1.6-0.7,2.9-1.6,4-2.7c1.1-1.3,2-2.7,2.7-4.7c0.4-1.1,0.7-2.4,0.9-4v10.4
		c0,0.2,0,0.4-0.2,0.7c-0.2,0.2-0.4,0.2-0.9,0.4V34h6.9v-0.7c-0.4,0-0.9-0.2-0.9-0.4c-0.2-0.2-0.2-0.4-0.2-0.7V11.8l0,0l6.9,21.3
		l7.1-21.1l0,0v20c0,0.2,0,0.4-0.2,0.7c-0.2,0.2-0.4,0.2-0.9,0.4v0.7h7.8v-0.7c-0.4,0-0.9-0.2-0.9-0.4c-0.2-0.2-0.2-0.4-0.2-0.7V6.9
		C278.4,6.7,278.4,6.5,278.6,6.2z M26.4,25.1c-0.9,1.6-2.4,2.2-4.4,2.2h-8.4V11.6h8.7c2,0,3.5,0.7,4.4,2.2s1.3,3.3,1.3,5.8
		C27.7,21.8,27.3,23.8,26.4,25.1z M95.2,23.3l3.5-12.9l3.8,12.9H95.2z M161.3,32.2c0,0.2,0,0.4-0.2,0.7c-0.2,0.2-0.4,0.2-1.3,0.4
		c-1.1,0-1.3-0.2-1.3-0.4c-0.2-0.2-0.2-0.4-0.2-0.7V6.9c0-0.2,0-0.4,0.2-0.7c0-0.2,0.7-0.2,1.3-0.4c0.7,0,1.3,0.2,1.3,0.4
		c0.2,0.2,0.2,0.4,0.2,0.7V32.2z M176.1,16.5c-0.4,0.7-1.3,0.9-2.4,0.9H167v-6h6.7c1.1,0,2,0.2,2.4,0.9c0.4,0.7,0.7,1.3,0.7,2
		C176.8,15.1,176.6,15.8,176.1,16.5z M182.8,32.2c0,0.2,0,0.4-0.2,0.7l0,0c-0.2-0.2-0.4-0.4-0.4-0.7l-4.7-9.1c1.6-0.7,2.9-1.6,4-3.1
		c0.7-0.9,1.1-2.2,1.3-3.5C182.8,16.5,182.8,32.2,182.8,32.2z M247.6,22.9c-0.4,0.9-0.9,1.8-1.3,2.4c-0.7,0.7-1.3,1.1-2,1.6
		s-1.6,0.4-2.4,0.4s-1.8-0.2-2.4-0.4c-0.7-0.4-1.6-0.9-2-1.6c-0.7-0.7-1.1-1.6-1.3-2.4c-0.4-0.9-0.4-2.2-0.4-3.3
		c0-1.3,0.2-2.4,0.4-3.3c0.4-0.9,0.9-1.8,1.3-2.4c0.7-0.7,1.3-1.1,2-1.6c0.7-0.4,1.6-0.4,2.4-0.4s1.8,0.2,2.4,0.4
		c0.7,0.4,1.6,0.9,2,1.6c0.7,0.7,1.1,1.6,1.3,2.4c0.4,0.9,0.4,2.2,0.4,3.3C248.2,20.7,248,21.8,247.6,22.9z"/>
	
		<linearGradient id="SVGID_1_" gradientUnits="userSpaceOnUse" x1="140.0831" y1="-0.4103" x2="140.0831" y2="26.5167" gradientTransform="matrix(1 0 0 -1 0 30)">
		<stop  offset="0" style="stop-color:#FFF200"/>
		<stop  offset="4.910317e-02" style="stop-color:#FFEC00"/>
		<stop  offset="0.1139" style="stop-color:#FFE000"/>
		<stop  offset="0.1875" style="stop-color:#FFCC04"/>
		<stop  offset="0.2676" style="stop-color:#FCB017"/>
		<stop  offset="0.3529" style="stop-color:#F78D1E"/>
		<stop  offset="0.4412" style="stop-color:#F26122"/>
		<stop  offset="0.5198" style="stop-color:#ED1C24"/>
		<stop  offset="1" style="stop-color:#0082C9"/>
	</linearGradient>
	<path class="st1" d="M275.7,4c0.2-0.2,0.4-0.2,0.9-0.4V3.1H266v0.7c0.7,0,0.9,0.4,0.9,0.9c0,0.2-0.2,0.7-0.4,1.3
		c-0.2,0.7-0.4,1.6-0.9,2.7c-0.4,1.1-0.9,2.2-1.3,3.5s-0.9,2.7-1.3,4c0-0.2-0.2-0.7-0.4-1.3c-0.2-0.7-0.4-1.3-0.7-2.2
		c-0.2-0.9-0.7-1.8-0.9-2.7c-0.2-0.9-0.7-1.8-0.9-2.7c-0.2-0.9-0.4-1.6-0.7-2c-0.2-0.4-0.2-0.9-0.2-0.9c0-0.7,0.2-0.9,0.9-0.9V3.1
		h-10.2v0.7c0.4,0,0.9,0.2,0.9,0.4c0.2,0.2,0.2,0.4,0.2,0.7v10.2c-0.2-1.3-0.4-2.7-0.9-4c-0.7-1.8-1.6-3.3-2.7-4.7
		c-1.1-1.3-2.4-2.2-4-2.9c-1.6-0.7-3.1-0.9-4.7-0.9c-1.8,0-3.3,0.2-4.7,0.9c-1.6,0.7-2.9,1.6-4,2.9c-1.1,1.3-2,2.7-2.7,4.7
		c-0.7,1.8-0.9,4-0.9,6.2s0.2,4,0.9,5.5l-1.6-3.1l-0.7,0.4c0,0.2,0,0.2,0.2,0.4c0,0,0,0.2,0,0.4c0,0.4-0.2,0.9-0.9,1.1
		c-4.2,2.7-4.9,2.4-6.9,2.4c-0.9,0-1.6-0.2-2.4-0.4c-0.9-0.2-1.6-0.7-2.4-1.3c-0.7-0.7-1.3-1.3-1.8-2.2c-0.4-0.9-0.7-2.2-0.7-3.5
		s0.2-2.4,0.7-3.5c0.4-0.9,1.1-1.8,1.8-2.2c0.7-0.7,1.6-0.9,2.4-1.3c1.1,0,1.8-0.2,2.7-0.2c0.9,0,1.6,0,2.4,0.2
		c0.7,0.2,1.3,0.4,2,0.7c0.7,0.2,1.1,0.4,1.3,0.9c0.4,0.2,0.4,0.7,0.4,0.9s0,0.4,0,0.4c0,0.2,0,0.2,0,0.4l0.4,0.4l3.5-8.9l-0.4-0.2
		c-0.2,0.2-0.4,0.4-0.7,0.4c-0.2,0-0.4,0-0.9-0.2c-0.4-0.2-1.1-0.4-1.8-0.7c-0.7-0.7-1.8-0.9-2.9-1.1c-1.1-0.2-2.4-0.4-4-0.4
		c-1.6,0-3.1,0.2-4.7,0.9c-1.6,0.7-2.9,1.6-4.2,2.7s-2.2,2.7-2.9,4.7c-0.7,1.8-1.1,4-1.1,6.4s0.4,4.4,1.1,6.4
		c0.2,0.2,0.2,0.4,0.4,0.9c-0.7-0.9-1.6-1.1-2.7-1.1c-1.1,0-2,0.4-2.7,1.3c-0.4,0.7-0.9,1.3-1.1,2v-3.5h-0.4c0,0.7-0.2,1.1-0.2,1.3
		c0,0.2-0.2,0.2-0.4,0.2h-12.6v-5.1h7.3c0.4,0,0.7,0.2,0.9,0.4c0.2,0.2,0.2,0.4,0.4,0.9h0.2v-8.4h-0.4c0,0.4-0.2,0.7-0.4,0.9
		c-0.2,0.2-0.4,0.4-0.9,0.4h-7.3V9.6h12.6c0.2,0,0.4,0,0.4,0.2s0.2,0.7,0.2,1.1h0.4v-8c0,0-0.9,0-1.1,0h-19.7v0.7
		c0.4,0,0.9,0.2,0.9,0.4c0.2,0.2,0.2,0.4,0.2,0.7v4.9c-0.2-1.8-0.9-3.3-1.8-4.2c-1.3-1.6-3.3-2.2-6.4-2.2H128v0.7
		c0.4,0,0.9,0.2,0.9,0.4c0.2,0.2,0.2,0.4,0.2,0.7v18.4h-0.2c0,0.7-0.2,1.1-0.2,1.1c0,0.2-0.2,0.2-0.4,0.2h-11.8v-20
		c0-0.2,0-0.4,0.2-0.7c0.2-0.2,0.4-0.2,0.9-0.4V3.1h-8.2v0.7c0.4,0,0.9,0.2,0.9,0.4c0.2,0,0.2,0.2,0.2,0.4V30c0,0.2,0,0.4-0.2,0.7
		c-0.2,0.2-0.4,0.2-0.9,0.4c-0.4,0-0.7-0.2-0.9-0.2c-0.2-0.4-0.2-0.9-0.4-1.6c-0.4-1.3-0.9-2.9-1.3-4.7c-0.4-1.8-1.1-3.5-1.6-5.3
		c-0.4-1.8-1.1-3.5-1.6-5.3s-0.9-3.3-1.3-4.7c-0.7-1.6-0.9-2.7-1.1-3.5c-0.2-0.9-0.4-1.3-0.4-1.3c0-0.2,0-0.4,0.2-0.4
		c0.2,0,0.2-0.2,0.4-0.2V3.1H91.2v0.7c0.2,0,0.4,0,0.4,0.2c0.2,0,0.2,0.2,0.2,0.4c0,0,0,0.4-0.2,1.1c-0.2,0.7-0.4,1.6-0.7,2.9
		c-0.2,1.1-0.7,2.4-1.1,4c-0.4,1.6-0.9,2.9-1.3,4.4c-0.4,1.6-0.9,3.1-1.3,4.4c-0.4,1.6-0.9,2.9-1.1,4c-0.2,1.1-0.7,2.2-0.9,3.1
		c-0.2,0.9-0.4,1.3-0.4,1.6c-0.2,0.4-0.2,0.7-0.4,0.9c-0.2,0.2-1.6,0.2-2,0.4c-0.4,0-1.3-0.2-1.6-0.4c-0.2-0.2-0.2-0.4-0.2-0.7V9.6
		h6.9c0.2,0,0.4,0,0.4,0.2s0.2,0.7,0.2,1.1h0.4v-8H59.7v0.7c0.4,0,0.9,0.2,0.9,0.4c0.2,0.2,0.2,0.4,0.2,0.7v11.1H50.1
		c-0.4,0-0.4-0.2-0.7-0.9H49v7.5h0.4c0-0.2,0-0.7,0.2-0.9c0-0.2,0.2-0.2,0.4-0.2h5.1v3.5c-0.9,0.2-1.6,0.7-2.4,0.7
		c-0.9,0.2-1.8,0.2-2.9,0.2c-0.9,0-1.8-0.2-2.7-0.4c-0.9-0.2-1.8-0.9-2.4-1.6c-0.7-0.7-1.3-1.6-1.8-2.7c-0.4-1.1-0.7-2.2-0.7-3.8
		s0.2-2.7,0.7-3.8c0.4-1.1,0.9-2,1.6-2.7c0.7-0.7,1.3-1.3,2.2-1.6c0.9-0.4,1.8-0.4,2.7-0.4c0.9,0,1.6,0,2.4,0.2
		c0.9,0.2,1.6,0.4,2.2,0.7c0.9,0.2,1.6,0.4,2,0.7c0.4,0.2,0.7,0.7,0.7,0.9s0,0.4,0,0.7l0.2,0.2l2.7-7.1l-0.4-0.2
		c-0.2,0.2-0.4,0.4-0.4,0.4c-0.2,0-0.4-0.2-1.1-0.4c-0.4-0.4-1.1-0.7-1.8-0.9c-0.9-0.2-1.3-0.4-2-0.7c-0.4-0.2-0.9-0.2-1.6-0.4
		c-0.4,0-0.9-0.2-1.6-0.2c-0.4,0-1.1,0-1.8,0c-1.6,0-3.3,0.2-4.9,0.9c-1.6,0.7-2.9,1.6-4,2.7s-2.2,2.7-2.9,4.7
		c-0.7,1.3-0.9,3.1-1.1,4.9V4.7c0-0.2,0-0.4,0.2-0.7c0.2-0.2,0.4-0.2,0.9-0.4V3.1h-8.2v0.7c0.4,0,0.9,0.2,0.9,0.4
		c0.7,0,0.7,0.2,0.7,0.4v10.2c0-1.1-0.2-2.2-0.4-3.1c-0.4-1.8-1.1-3.3-2-4.4c-0.9-1.3-2-2.2-3.3-3.1c-1.3-0.9-2.9-1.1-4.7-1.1H3.5
		v0.7C4,3.8,4.4,4,4.4,4.3c0.2,0.2,0.2,0.4,0.2,0.7V30c0,0.2,0,0.4-0.2,0.7c-0.2,0.2-0.4,0.2-0.9,0.4v0.7h16.2
		c1.8,0,3.5-0.4,4.9-1.1c1.3-0.9,2.4-1.8,3.5-3.1c0.9-1.3,1.6-2.9,2-4.7c0.2-1.1,0.4-2,0.4-3.1V30c0,0.2,0,0.4-0.2,0.7
		c-0.2,0.2-0.4,0.2-0.9,0.4v0.7h8.2v-0.7c-0.4,0-0.9-0.2-0.9-0.4c-0.2-0.2-0.2-0.4-0.2-0.7V18.9c0.2,1.8,0.4,3.3,1.1,4.9
		c0.7,1.8,1.8,3.3,2.9,4.4c1.1,1.1,2.4,2,4,2.7s3.1,0.9,4.9,0.9c4.4,0,8.4-1.1,11.8-3.3V30c0,0.2,0,0.4-0.2,0.7
		c-0.2,0.2-0.4,0.2-0.9,0.4v0.7h8.2v-0.7c-0.4,0-0.9-0.2-0.9-0.4c-0.2-0.2-0.2-0.4-0.2-0.7V11.4h0.4c0-0.7,0.2-1.1,0.2-1.1
		c0-0.2,0.2-0.2,0.4-0.2H75v20c0,0.2,0,0.4-0.2,0.7c-0.2,0.2-1.1,0.2-1.6,0.4v0.7h9.3l0,0h8.4v-0.7c-0.2,0-0.7,0-0.7-0.2
		c0,0-0.2-0.2-0.2-0.4c0,0,0-0.2,0-0.4s0-0.4,0.2-0.9c0-0.4,0.2-0.9,0.4-1.6c0.2-0.7,0.4-1.3,0.7-2.4h9.3c0,0.2,0.2,0.4,0.2,1.1
		c0.2,0.4,0.2,1.1,0.4,1.6s0.2,1.1,0.4,1.6S102,30,102,30c0,0.4-0.4,0.7-0.9,0.7v0.7h8.2h0.2h26.8v-0.7c-0.4,0-0.9-0.2-0.9-0.4
		c-0.2-0.2-0.2-0.4-0.2-0.7v-9.1h8.4c0.2,0,0.4,0,0.4,0.2c0,0.2,0.2,0.7,0.2,1.1h0.4v-8.7h-0.4c0,0.4-0.2,0.9-0.2,1.1
		s-0.2,0.2-0.4,0.2h-8.7V9.6h13.1c0.2,0,0.4,0,0.4,0.2s0.2,0.4,0.2,1.1h0.4v18.9c0,0.2,0,0.4-0.2,0.7c-0.2,0.2-0.4,0.2-0.9,0.4v0.7
		h8.4h0.4h8.4v-0.7c-0.4,0-0.9-0.2-0.9-0.4c-0.2-0.2-0.2-0.4-0.2-0.7v-9.1h3.8c0,0.2,0.2,0.4,0.4,1.1c0.2,0.4,0.7,1.1,0.9,1.8
		c0.4,0.7,0.7,1.3,1.1,2c0.4,0.7,0.7,1.3,1.1,2c0.2,0.7,0.7,1.1,0.9,1.6s0.2,0.7,0.2,0.7c0,0.7-0.2,0.9-0.9,0.9v0.7h6.7h1.6h18.2
		c0.2,0,1.1,0,1.1,0v-2.9c0.2,0.7,0.4,1.3,1.1,2c0.7,0.9,1.6,1.1,2.7,1.1c1.1,0,2-0.4,2.7-1.1c0.7-0.9,1.1-1.8,1.1-2.9
		c0-0.4,0-0.9-0.2-1.1c0.4,0.7,0.9,1.3,1.6,1.8c1.3,1.1,2.7,2,4.2,2.7c1.6,0.7,3.1,0.9,4.7,0.9c1.6,0,2.9-0.2,4-0.4
		c1.1-0.2,2.2-0.7,3.1-0.9c0.9-0.4,2.7-1.3,3.3-1.6c0.4-0.2,0.9-0.4,1.1-0.4c0.2,0,0.2,0,0.4,0c0,0,0.2,0.2,0.2,0.4l0.7-0.4
		l-0.9-1.8c0.4,0.4,0.7,1.1,1.1,1.6c1.1,1.3,2.4,2.2,4,2.7c1.6,0.7,3.1,0.9,4.7,0.9c1.8,0,3.3-0.2,4.7-0.9c1.6-0.7,2.9-1.6,4-2.7
		c1.1-1.3,2-2.7,2.7-4.7c0.4-1.1,0.7-2.4,0.9-4V30c0,0.2,0,0.4-0.2,0.7c-0.2,0.2-0.4,0.2-0.9,0.4v0.7h6.9v-0.7
		c-0.4,0-0.9-0.2-0.9-0.4c-0.2-0.2-0.2-0.4-0.2-0.7V9.6l0,0l6.9,21.3l7.1-21.1l0,0v20c0,0.2,0,0.4-0.2,0.7c-0.2,0.2-0.4,0.2-0.9,0.4
		v0.7h7.8v-0.7c-0.4,0-0.9-0.2-0.9-0.4c-0.2-0.2-0.2-0.4-0.2-0.7V4.7C275.5,4.5,275.5,4.3,275.7,4z M23.7,22.9
		c-0.9,1.6-2.4,2.2-4.4,2.2h-8.7V9.4h8.7c2,0,3.5,0.7,4.4,2.2s1.3,3.3,1.3,5.8C25.1,19.6,24.6,21.6,23.7,22.9z M92.3,21.1l3.5-12.9
		l3.8,12.9H92.3z M158.4,30c0,0.2,0,0.4-0.2,0.7c-0.2,0.2-0.4,0.2-1.3,0.4c-1.1,0-1.3-0.2-1.3-0.4c-0.2-0.2-0.2-0.4-0.2-0.7V4.7
		c0-0.2,0-0.4,0.2-0.7c0-0.2,0.7-0.2,1.3-0.4c0.7,0,1.3,0.2,1.3,0.4c0.2,0.2,0.2,0.4,0.2,0.7V30z M173.2,14.2
		c-0.4,0.7-1.3,0.9-2.4,0.9h-6.7v-6h6.7c1.1,0,2,0.2,2.4,0.9s0.7,1.3,0.7,2C173.9,12.9,173.7,13.6,173.2,14.2z M179.9,30
		c0,0.2,0,0.4-0.2,0.7l0,0c-0.2-0.2-0.4-0.4-0.4-0.7l-4.7-9.1c1.6-0.7,2.9-1.6,4-3.1c0.7-0.9,1.1-2.2,1.3-3.5
		C179.9,14.2,179.9,30,179.9,30z M244.9,20.7c-0.4,0.9-0.9,1.8-1.3,2.4c-0.7,0.7-1.3,1.1-2,1.6c-0.7,0.4-1.6,0.4-2.4,0.4
		s-1.8-0.2-2.4-0.4c-0.7-0.4-1.6-0.9-2-1.6c-0.7-0.7-1.1-1.6-1.3-2.4c-0.4-0.9-0.4-2.2-0.4-3.3c0-1.3,0.2-2.4,0.4-3.3
		c0.4-0.9,0.9-1.8,1.3-2.4c0.7-0.7,1.3-1.1,2-1.6s1.6-0.4,2.4-0.4s1.8,0.2,2.4,0.4c0.7,0.4,1.6,0.9,2,1.6c0.7,0.7,1.1,1.6,1.3,2.4
		c0.4,0.9,0.4,2.2,0.4,3.3C245.3,18.4,245.1,19.6,244.9,20.7z"/>
</g>
<ellipse class="st0" cx="203.4" cy="27.5" rx="2.2" ry="2.4"/>
</svg>
