<?xml version="1.0" encoding="utf-8"?>
<!-- Generator: Adobe Illustrator 25.2.0, SVG Export Plug-In . SVG Version: 6.00 Build 0)  -->
<svg version="1.1" id="Layer_1" xmlns="http://www.w3.org/2000/svg" xmlns:xlink="http://www.w3.org/1999/xlink" x="0px" y="0px"
	 width="710px" height="102.8px" viewBox="0 0 710 102.8" style="enable-background:new 0 0 710 102.8;" xml:space="preserve">
<style type="text/css">
	.st0{opacity:0.85;stroke:#231F20;}
	.st1{fill:#FFFFFF;}
	.st2{fill-opacity:0;stroke:#000000;stroke-width:0.696;}
	.st3{fill:url(#SVGID_1_);}
	.st4{fill-opacity:0;stroke:#FFFFFF;stroke-width:0.7022;stroke-linecap:round;stroke-linejoin:round;}
	.st5{fill:url(#SVGID_2_);}
	.st6{fill-opacity:0;stroke:#000000;stroke-width:0.3;}
	.st7{fill:url(#SVGID_3_);}
	.st8{fill:url(#SVGID_4_);}
	.st9{fill:url(#SVGID_5_);}
	.st10{fill:url(#SVGID_6_);}
	.st11{fill:url(#SVGID_7_);}
	.st12{fill:url(#SVGID_8_);}
	.st13{fill:url(#SVGID_9_);}
	.st14{fill:url(#SVGID_10_);}
	.st15{fill:url(#SVGID_11_);}
	.st16{fill:url(#SVGID_12_);}
	.st17{fill:#00FF00;}
	.st18{fill:url(#SVGID_13_);}
	.st19{fill:#40FF40;}
	.st20{fill:url(#SVGID_14_);}
	.st21{fill:url(#SVGID_15_);}
	.st22{fill:url(#SVGID_16_);}
	.st23{fill:url(#SVGID_17_);}
	.st24{fill:url(#SVGID_18_);}
	.st25{fill:url(#SVGID_19_);}
	.st26{fill:url(#SVGID_20_);}
	.st27{fill:url(#SVGID_21_);}
	.st28{fill:url(#SVGID_22_);}
	.st29{fill:#FF8080;}
	.st30{fill:#FF0000;}
	.st31{fill:#FFFFBF;}
	.st32{fill:url(#SVGID_23_);}
	.st33{fill-opacity:0;stroke:#000000;stroke-width:8.146218e-02;}
	.st34{fill:url(#SVGID_24_);}
	.st35{fill:url(#SVGID_25_);}
	.st36{fill:url(#SVGID_26_);}
	.st37{fill:url(#SVGID_27_);}
	.st38{fill:#404040;}
	.st39{fill:url(#SVGID_28_);}
	.st40{fill:url(#SVGID_29_);}
	.st41{fill:url(#SVGID_30_);}
	.st42{font-family:'Helvetica';}
	.st43{font-size:13px;}
</style>
<g>
	<path class="st0" d="M0,12.8h710v76H0V12.8z"/>
</g>
<g>
	<g>
		<path class="st1" d="M364.9,47.4c-1.1,0.2-2.9,0.2-5.6,0.2h-17.8V33.8h17.8c2.7,0,4.5,0.1,5.6,0.2c1,0.1,2,0.5,3,1
			c2,1.1,2.9,3,2.9,5.7c0,2.7-1,4.6-2.9,5.7C367,46.9,366,47.2,364.9,47.4 M378.2,70.5L368,55.9c6.6-1,10.9-3.7,13-8.2v26.1
			c0,0.1,0,0.1,0,0.2C380.2,73.2,379.3,72,378.2,70.5 M327.4,76.7c-0.9-0.2-1.5-0.6-1.9-1c-0.4-0.4-0.6-1-0.6-1.8V29.1
			c0-0.8,0.2-1.4,0.5-1.8c0.4-0.4,1-0.8,1.9-1h0.2c0.9,0.3,1.6,0.6,1.9,1c0.4,0.4,0.5,1,0.5,1.8v44.8c0,0.8-0.2,1.4-0.5,1.8
			c-0.4,0.4-1,0.7-1.9,1H327.4z M207.5,57.2l8.7-18.7l8.5,18.7H207.5z M57.8,67.2c-2.3,1.3-5.8,1.9-10.4,1.9H33V33.8h14.4
			c3.5,0,6.3,0.4,8.4,1.1c2.1,0.7,3.9,1.9,5.4,3.6c2.7,3,4,7.4,4,13C65.2,59.3,62.8,64.5,57.8,67.2 M418.5,66.7
			c-0.3,0.9-0.6,1.6-1,1.9c-0.4,0.4-1,0.5-1.8,0.5h-23.2V54.7h10.8c0.8,0,1.4,0.2,1.8,0.6c0.4,0.4,0.7,1,1,1.9h1.2V43.8H406
			c-0.3,0.9-0.6,1.6-1,1.9c-0.4,0.4-1,0.5-1.8,0.5h-10.8V33.8h22.3c0.8,0,1.4,0.2,1.8,0.6c0.4,0.4,0.7,1,1,1.9h1.2V22.6h-1.2
			c-0.3,0.9-0.6,1.6-1,1.9c-0.4,0.4-1,0.5-1.8,0.5h-36.4v1.2c0.9,0.3,1.6,0.6,1.9,1c0.4,0.4,0.5,1,0.5,1.8v4.7c0,0,0-0.1,0-0.1
			c-1-2.3-2.5-4.1-4.6-5.5c-1.8-1.2-3.8-2-6.2-2.4c-2.4-0.5-5.5-0.7-9.6-0.7h-86.3v1.2c0.9,0.3,1.6,0.6,1.9,1c0.4,0.4,0.5,1,0.5,1.8
			v40h-22.1v-40c0-0.8,0.2-1.4,0.5-1.8c0.4-0.4,1-0.8,1.9-1V25h-16.5v1.2c0.9,0.3,1.6,0.6,1.9,1c0.4,0.4,0.5,1,0.5,1.8v40l-18.8-38
			c-0.5-1-0.7-1.8-0.7-2.6c0-1.1,0.8-1.8,2.3-2.3V25h-18.7v1.2c1.5,0.5,2.2,1.4,2.2,2.6c0,0.8-0.3,1.8-0.9,3.1l-19.4,40.6
			c-0.7,1.5-1.3,2.5-1.9,3c-0.5,0.5-1.2,0.8-2.2,1c-0.8-0.3-1.4-0.6-1.8-1c-0.4-0.4-0.5-1-0.5-1.8v-40h12.4c0.8,0,1.4,0.2,1.8,0.5
			c0.4,0.4,0.7,1,1,1.9h1.2L199.1,25H141v1.2c0.9,0.3,1.6,0.6,1.9,1c0.4,0.4,0.5,1,0.5,1.8v22.5h-22.1c-0.8,0-1.4-0.2-1.8-0.5
			c-0.4-0.3-0.7-1-1-2h-1.2v12.3h1.2c0.3-0.9,0.6-1.6,1-1.9c0.4-0.4,1-0.5,1.8-0.5h13.1v7.2c-2.1,1.2-4.5,2.1-7.4,2.7
			c-2.8,0.7-5.7,1-8.6,1c-6,0-10.8-1.6-14.5-4.7c-4-3.4-6-7.9-6-13.5c0-5.7,2.1-10.4,6.2-13.9c3.6-3.1,8.2-4.6,13.8-4.6
			c2.7,0,5.6,0.4,8.6,1.2c3,0.8,5.4,1.8,6.9,3c0.7,0.5,1.2,1,1.4,1.4c0.2,0.4,0.3,1,0.3,1.8l1.1,0.6l6.2-12.7l-1.2-0.6
			c-0.7,0.6-1.4,0.9-1.9,0.9c-0.7,0-2-0.3-3.8-1c-3.4-1.3-6.5-2.3-9.1-2.8c-2.7-0.6-5.5-0.8-8.5-0.8c-9.5,0-17.1,2.4-22.9,7.1
			c-3.8,3.1-6.4,6.9-7.8,11.4V29.1c0-0.8,0.2-1.4,0.5-1.8c0.4-0.4,1-0.8,1.9-1V25H73.5v1.2c0.9,0.3,1.6,0.6,1.9,1
			c0.4,0.4,0.5,1,0.5,1.8v13.5c-0.4-1.7-1-3.2-1.7-4.7c-2.4-4.9-6-8.5-11-10.6c-3.5-1.5-8.4-2.2-14.9-2.2H18.9v1.2
			c0.9,0.3,1.6,0.6,1.9,1c0.4,0.4,0.5,1,0.5,1.8v44.7c0,0.8-0.2,1.4-0.5,1.8c-0.4,0.4-1,0.7-1.9,1v1.2h29.5c4.9,0,8.9-0.4,12-1.3
			c3.1-0.9,5.9-2.3,8.2-4.3c3.6-3.1,6-7,7.3-11.9v13.5c0,0.8-0.2,1.4-0.5,1.8c-0.4,0.4-1,0.7-1.9,1v1.2H90v-1.2
			c-0.9-0.2-1.5-0.6-1.9-1c-0.4-0.4-0.6-1-0.6-1.8V60.3c1.6,5,4.5,9.1,8.9,12.4c5.4,4,12.4,6.1,20.9,6.1c8.5,0,17.2-2.3,26.1-6.9v2
			c0,0.8-0.2,1.4-0.5,1.8c-0.4,0.4-1,0.7-1.9,1v1.2h16.5v-1.2c-0.9-0.2-1.5-0.6-1.9-1c-0.4-0.4-0.6-1-0.6-1.8V36.3h1
			c0.3-0.9,0.6-1.6,1-1.9c0.4-0.4,1-0.5,1.8-0.5h12.4v40c0,0.8-0.2,1.4-0.5,1.8c-0.4,0.4-1,0.7-1.9,1v1.2h16.2h0.4h17.1v-1.2
			c-1.7-0.4-2.6-1.2-2.6-2.4c0-0.6,0.2-1.4,0.7-2.4l3.6-7.4h24l3.6,7.4c0.5,1.1,0.8,1.9,0.8,2.4c0,1.3-0.8,2.1-2.5,2.4v1.2h60.9
			v-1.2c-0.9-0.2-1.5-0.6-1.9-1c-0.4-0.4-0.6-1-0.6-1.8V54.8h14.8c0.8,0,1.4,0.2,1.8,0.6c0.4,0.4,0.7,1,1,1.9h1.2V43.9H306
			c-0.3,0.9-0.6,1.6-1,1.9c-0.4,0.4-1,0.6-1.8,0.6h-14.8V33.8h25v40c0,0.8-0.2,1.4-0.5,1.8c-0.4,0.4-1,0.7-1.9,1v1.2h33.2v-1.2
			c-0.9-0.2-1.5-0.6-1.9-1c-0.4-0.4-0.6-1-0.6-1.8V56.3h13.9l10.8,15.6c1.2,1.8,1.8,2.9,1.8,3.4c0,0.7-0.7,1.2-2,1.4v1.2h13.8h1.2
			h1.4h0.1h33.1c0.8,0,1.4,0.2,1.8,0.5c0.4,0.4,0.7,1,1,1.9h1.2V66.7H418.5z"/>
		<path class="st2" d="M364.9,47.4c-1.1,0.2-2.9,0.2-5.6,0.2h-17.8V33.8h17.8c2.7,0,4.5,0.1,5.6,0.2c1,0.1,2,0.5,3,1
			c2,1.1,2.9,3,2.9,5.7c0,2.7-1,4.6-2.9,5.7C367,46.9,366,47.2,364.9,47.4 M378.2,70.5L368,55.9c6.6-1,10.9-3.7,13-8.2v26.1
			c0,0.1,0,0.1,0,0.2C380.2,73.2,379.3,72,378.2,70.5 M327.4,76.7c-0.9-0.2-1.5-0.6-1.9-1c-0.4-0.4-0.6-1-0.6-1.8V29.1
			c0-0.8,0.2-1.4,0.5-1.8c0.4-0.4,1-0.8,1.9-1h0.2c0.9,0.3,1.6,0.6,1.9,1c0.4,0.4,0.5,1,0.5,1.8v44.8c0,0.8-0.2,1.4-0.5,1.8
			c-0.4,0.4-1,0.7-1.9,1H327.4z M207.5,57.2l8.7-18.7l8.5,18.7H207.5z M57.8,67.2c-2.3,1.3-5.8,1.9-10.4,1.9H33V33.8h14.4
			c3.5,0,6.3,0.4,8.4,1.1c2.1,0.7,3.9,1.9,5.4,3.6c2.7,3,4,7.4,4,13C65.2,59.3,62.8,64.5,57.8,67.2 M418.5,66.7
			c-0.3,0.9-0.6,1.6-1,1.9c-0.4,0.4-1,0.5-1.8,0.5h-23.2V54.7h10.8c0.8,0,1.4,0.2,1.8,0.6c0.4,0.4,0.7,1,1,1.9h1.2V43.8H406
			c-0.3,0.9-0.6,1.6-1,1.9c-0.4,0.4-1,0.5-1.8,0.5h-10.8V33.8h22.3c0.8,0,1.4,0.2,1.8,0.6c0.4,0.4,0.7,1,1,1.9h1.2V22.6h-1.2
			c-0.3,0.9-0.6,1.6-1,1.9c-0.4,0.4-1,0.5-1.8,0.5h-36.4v1.2c0.9,0.3,1.6,0.6,1.9,1c0.4,0.4,0.5,1,0.5,1.8v4.7c0,0,0-0.1,0-0.1
			c-1-2.3-2.5-4.1-4.6-5.5c-1.8-1.2-3.8-2-6.2-2.4c-2.4-0.5-5.5-0.7-9.6-0.7h-86.3v1.2c0.9,0.3,1.6,0.6,1.9,1c0.4,0.4,0.5,1,0.5,1.8
			v40h-22.1v-40c0-0.8,0.2-1.4,0.5-1.8c0.4-0.4,1-0.8,1.9-1V25h-16.5v1.2c0.9,0.3,1.6,0.6,1.9,1c0.4,0.4,0.5,1,0.5,1.8v40l-18.8-38
			c-0.5-1-0.7-1.8-0.7-2.6c0-1.1,0.8-1.8,2.3-2.3V25h-18.7v1.2c1.5,0.5,2.2,1.4,2.2,2.6c0,0.8-0.3,1.8-0.9,3.1l-19.4,40.6
			c-0.7,1.5-1.3,2.5-1.9,3c-0.5,0.5-1.2,0.8-2.2,1c-0.8-0.3-1.4-0.6-1.8-1c-0.4-0.4-0.5-1-0.5-1.8v-40h12.4c0.8,0,1.4,0.2,1.8,0.5
			c0.4,0.4,0.7,1,1,1.9h1.2L199.1,25H141v1.2c0.9,0.3,1.6,0.6,1.9,1c0.4,0.4,0.5,1,0.5,1.8v22.5h-22.1c-0.8,0-1.4-0.2-1.8-0.5
			c-0.4-0.3-0.7-1-1-2h-1.2v12.3h1.2c0.3-0.9,0.6-1.6,1-1.9c0.4-0.4,1-0.5,1.8-0.5h13.1v7.2c-2.1,1.2-4.5,2.1-7.4,2.7
			c-2.8,0.7-5.7,1-8.6,1c-6,0-10.8-1.6-14.5-4.7c-4-3.4-6-7.9-6-13.5c0-5.7,2.1-10.4,6.2-13.9c3.6-3.1,8.2-4.6,13.8-4.6
			c2.7,0,5.6,0.4,8.6,1.2c3,0.8,5.4,1.8,6.9,3c0.7,0.5,1.2,1,1.4,1.4c0.2,0.4,0.3,1,0.3,1.8l1.1,0.6l6.2-12.7l-1.2-0.6
			c-0.7,0.6-1.4,0.9-1.9,0.9c-0.7,0-2-0.3-3.8-1c-3.4-1.3-6.5-2.3-9.1-2.8c-2.7-0.6-5.5-0.8-8.5-0.8c-9.5,0-17.1,2.4-22.9,7.1
			c-3.8,3.1-6.4,6.9-7.8,11.4V29.1c0-0.8,0.2-1.4,0.5-1.8c0.4-0.4,1-0.8,1.9-1V25H73.5v1.2c0.9,0.3,1.6,0.6,1.9,1
			c0.4,0.4,0.5,1,0.5,1.8v13.5c-0.4-1.7-1-3.2-1.7-4.7c-2.4-4.9-6-8.5-11-10.6c-3.5-1.5-8.4-2.2-14.9-2.2H18.9v1.2
			c0.9,0.3,1.6,0.6,1.9,1c0.4,0.4,0.5,1,0.5,1.8v44.7c0,0.8-0.2,1.4-0.5,1.8c-0.4,0.4-1,0.7-1.9,1v1.2h29.5c4.9,0,8.9-0.4,12-1.3
			c3.1-0.9,5.9-2.3,8.2-4.3c3.6-3.1,6-7,7.3-11.9v13.5c0,0.8-0.2,1.4-0.5,1.8c-0.4,0.4-1,0.7-1.9,1v1.2H90v-1.2
			c-0.9-0.2-1.5-0.6-1.9-1c-0.4-0.4-0.6-1-0.6-1.8V60.3c1.6,5,4.5,9.1,8.9,12.4c5.4,4,12.4,6.1,20.9,6.1c8.5,0,17.2-2.3,26.1-6.9v2
			c0,0.8-0.2,1.4-0.5,1.8c-0.4,0.4-1,0.7-1.9,1v1.2h16.5v-1.2c-0.9-0.2-1.5-0.6-1.9-1c-0.4-0.4-0.6-1-0.6-1.8V36.3h1
			c0.3-0.9,0.6-1.6,1-1.9c0.4-0.4,1-0.5,1.8-0.5h12.4v40c0,0.8-0.2,1.4-0.5,1.8c-0.4,0.4-1,0.7-1.9,1v1.2h16.2h0.4h17.1v-1.2
			c-1.7-0.4-2.6-1.2-2.6-2.4c0-0.6,0.2-1.4,0.7-2.4l3.6-7.4h24l3.6,7.4c0.5,1.1,0.8,1.9,0.8,2.4c0,1.3-0.8,2.1-2.5,2.4v1.2h60.9
			v-1.2c-0.9-0.2-1.5-0.6-1.9-1c-0.4-0.4-0.6-1-0.6-1.8V54.8h14.8c0.8,0,1.4,0.2,1.8,0.6c0.4,0.4,0.7,1,1,1.9h1.2V43.9H306
			c-0.3,0.9-0.6,1.6-1,1.9c-0.4,0.4-1,0.6-1.8,0.6h-14.8V33.8h25v40c0,0.8-0.2,1.4-0.5,1.8c-0.4,0.4-1,0.7-1.9,1v1.2h33.2v-1.2
			c-0.9-0.2-1.5-0.6-1.9-1c-0.4-0.4-0.6-1-0.6-1.8V56.3h13.9l10.8,15.6c1.2,1.8,1.8,2.9,1.8,3.4c0,0.7-0.7,1.2-2,1.4v1.2h13.8h1.2
			h1.4h0.1h33.1c0.8,0,1.4,0.2,1.8,0.5c0.4,0.4,0.7,1,1,1.9h1.2V66.7H418.5z"/>
	</g>
	<g>
		
			<linearGradient id="SVGID_1_" gradientUnits="userSpaceOnUse" x1="216.69" y1="55.212" x2="216.69" y2="112.25" gradientTransform="matrix(1 0 0 -1 0 132)">
			<stop  offset="0" style="stop-color:#FFF101"/>
			<stop  offset="0.52" style="stop-color:#D8232A"/>
			<stop  offset="1" style="stop-color:#0079B4"/>
		</linearGradient>
		<path class="st3" d="M362.3,43.8c-1.1,0.2-2.9,0.2-5.6,0.2H339V30.3h17.8c2.7,0,4.5,0.1,5.6,0.2c1,0.1,2,0.5,3,1
			c2,1.1,2.9,3,2.9,5.7c0,2.7-1,4.7-2.9,5.7C364.4,43.4,363.4,43.7,362.3,43.8 M375.6,67l-10.3-14.6c6.6-1,10.9-3.7,13-8.2v26.1
			c0,0.1,0,0.1,0,0.2C377.5,69.6,376.7,68.5,375.6,67 M324.7,73.1c-0.9-0.2-1.5-0.6-1.9-1c-0.4-0.4-0.6-1-0.6-1.8V25.6
			c0-0.8,0.2-1.4,0.5-1.8c0.4-0.4,1-0.8,1.9-1h0.2c0.9,0.3,1.6,0.6,1.9,1c0.4,0.4,0.5,1,0.5,1.8v44.8c0,0.8-0.2,1.4-0.5,1.8
			c-0.4,0.4-1,0.8-1.9,1H324.7z M204.9,53.6l8.7-18.7l8.5,18.7H204.9z M55.1,63.7c-2.3,1.3-5.8,1.9-10.4,1.9H30.3V30.3h14.4
			c3.5,0,6.3,0.4,8.4,1.1c2.1,0.7,3.9,1.9,5.4,3.6c2.7,3,4,7.4,4,13C62.6,55.8,60.1,61,55.1,63.7 M415.9,63.1
			c-0.3,0.9-0.6,1.6-1,1.9c-0.4,0.4-1,0.5-1.8,0.5h-23.2V51.2h10.8c0.8,0,1.4,0.2,1.8,0.6c0.4,0.4,0.7,1,1,1.9h1.2V40.3h-1.2
			c-0.3,0.9-0.6,1.6-1,1.9c-0.4,0.4-1,0.5-1.8,0.5h-10.8V30.3h22.3c0.8,0,1.4,0.2,1.8,0.6c0.4,0.4,0.7,1,1,1.9h1.2V19H415
			c-0.3,0.9-0.6,1.6-1,1.9c-0.4,0.4-1,0.6-1.8,0.6h-36.4v1.2c0.9,0.3,1.6,0.6,1.9,1c0.4,0.4,0.5,1,0.5,1.8v4.7c0,0,0-0.1,0-0.1
			c-1-2.3-2.5-4.1-4.6-5.5c-1.8-1.2-3.8-2-6.2-2.4c-2.4-0.5-5.5-0.7-9.6-0.7h-86.3v1.2c0.9,0.3,1.6,0.6,1.9,1c0.4,0.4,0.5,1,0.5,1.8
			v40h-22.1v-40c0-0.8,0.2-1.4,0.5-1.8c0.4-0.4,1-0.8,1.9-1v-1.2h-16.5v1.2c0.9,0.3,1.6,0.6,1.9,1c0.4,0.4,0.5,1,0.5,1.8v40
			l-18.8-38c-0.5-1-0.7-1.8-0.7-2.6c0-1.1,0.8-1.8,2.3-2.3v-1.2h-18.7v1.2c1.5,0.5,2.2,1.4,2.2,2.6c0,0.8-0.3,1.8-0.9,3.1L186.5,69
			c-0.7,1.5-1.3,2.5-1.9,3c-0.5,0.5-1.2,0.8-2.2,1c-0.8-0.2-1.4-0.6-1.8-1c-0.4-0.4-0.5-1-0.5-1.8v-40h12.4c0.8,0,1.4,0.2,1.8,0.5
			c0.4,0.4,0.7,1,1,1.9h1.2l-0.1-11.2h-58.1v1.2c0.9,0.3,1.6,0.6,1.9,1c0.4,0.4,0.5,1,0.5,1.8V48h-22.1c-0.8,0-1.4-0.2-1.8-0.5
			c-0.4-0.3-0.7-1-1-2h-1.2v12.3h1.2c0.3-0.9,0.6-1.6,1-1.9c0.4-0.4,1-0.5,1.8-0.5h13.1v7.2c-2.1,1.2-4.5,2.1-7.4,2.7
			c-2.8,0.7-5.7,1-8.6,1c-6,0-10.8-1.6-14.5-4.7c-4-3.4-6-7.9-6-13.5c0-5.7,2.1-10.4,6.2-13.9c3.6-3.1,8.2-4.6,13.8-4.6
			c2.7,0,5.6,0.4,8.6,1.2c3,0.8,5.4,1.8,6.9,3c0.7,0.5,1.2,1,1.4,1.4c0.2,0.4,0.3,1,0.3,1.8l1.1,0.6L140,25l-1.2-0.6
			c-0.7,0.6-1.4,0.9-1.9,0.9c-0.8,0-2-0.3-3.8-1c-3.4-1.3-6.5-2.3-9.1-2.8c-2.7-0.6-5.5-0.8-8.5-0.8c-9.5,0-17.1,2.4-22.9,7.1
			c-3.8,3.1-6.4,6.9-7.8,11.4V25.6c0-0.8,0.2-1.4,0.5-1.8c0.4-0.4,1-0.8,1.9-1v-1.2H70.8v1.2c0.9,0.3,1.6,0.6,1.9,1
			c0.4,0.4,0.5,1,0.5,1.8V39c-0.4-1.7-1-3.2-1.7-4.7c-2.4-4.9-6-8.5-11-10.6c-3.5-1.5-8.4-2.2-14.9-2.2H16.3v1.2
			c0.9,0.3,1.6,0.6,1.9,1c0.4,0.4,0.5,1,0.5,1.8v44.7c0,0.8-0.2,1.4-0.5,1.8c-0.4,0.4-1,0.8-1.9,1v1.2h29.4c4.9,0,8.9-0.4,12-1.3
			c3.2-0.9,5.9-2.3,8.2-4.3c3.6-3.1,6-7,7.3-11.9v13.5c0,0.8-0.2,1.4-0.5,1.8c-0.4,0.4-1,0.8-1.9,1v1.2h16.5v-1.2
			c-0.9-0.2-1.5-0.6-1.9-1c-0.4-0.4-0.6-1-0.6-1.8V56.8c1.6,5,4.5,9.1,8.9,12.4c5.4,4,12.4,6.1,20.9,6.1c8.5,0,17.2-2.3,26.1-6.9v2
			c0,0.8-0.2,1.4-0.5,1.8c-0.4,0.4-1,0.8-1.9,1v1.2h16.5v-1.2c-0.9-0.2-1.5-0.6-1.9-1c-0.4-0.4-0.6-1-0.6-1.8V32.8h1
			c0.3-0.9,0.6-1.6,1-1.9c0.4-0.4,1-0.5,1.8-0.5h12.4v40c0,0.8-0.2,1.4-0.5,1.8c-0.4,0.4-1,0.8-1.9,1v1.2h16.2h0.4h17.1v-1.2
			c-1.7-0.4-2.6-1.2-2.6-2.4c0-0.6,0.2-1.4,0.7-2.4l3.6-7.4h24l3.6,7.4c0.5,1.1,0.8,1.9,0.8,2.4c0,1.3-0.8,2.1-2.5,2.4v1.2h61v-1.2
			c-0.9-0.2-1.5-0.6-1.9-1c-0.4-0.4-0.6-1-0.6-1.8V51.3h14.8c0.8,0,1.4,0.2,1.8,0.6c0.4,0.4,0.7,1,1,1.9h1.2V40.4h-1.2
			c-0.3,0.9-0.6,1.6-1,1.9c-0.4,0.4-1,0.6-1.8,0.6h-14.8V30.3h25v40c0,0.8-0.2,1.4-0.5,1.8c-0.4,0.4-1,0.8-1.9,1v1.2h33.2v-1.2
			c-0.9-0.2-1.5-0.6-1.9-1c-0.4-0.4-0.6-1-0.6-1.8V52.8h13.9l10.8,15.6c1.2,1.8,1.8,2.9,1.8,3.4c0,0.7-0.7,1.2-2,1.4v1.2h13.8h1.2
			h1.4h0.1h33.1c0.8,0,1.4,0.2,1.8,0.5c0.4,0.4,0.7,1,1,1.9h1.2V63.1H415.9z"/>
		<path class="st2" d="M362.3,43.8c-1.1,0.2-2.9,0.2-5.6,0.2H339V30.3h17.8c2.7,0,4.5,0.1,5.6,0.2c1,0.1,2,0.5,3,1
			c2,1.1,2.9,3,2.9,5.7c0,2.7-1,4.7-2.9,5.7C364.4,43.4,363.4,43.7,362.3,43.8 M375.6,67l-10.3-14.6c6.6-1,10.9-3.7,13-8.2v26.1
			c0,0.1,0,0.1,0,0.2C377.5,69.6,376.7,68.5,375.6,67 M324.7,73.1c-0.9-0.2-1.5-0.6-1.9-1c-0.4-0.4-0.6-1-0.6-1.8V25.6
			c0-0.8,0.2-1.4,0.5-1.8c0.4-0.4,1-0.8,1.9-1h0.2c0.9,0.3,1.6,0.6,1.9,1c0.4,0.4,0.5,1,0.5,1.8v44.8c0,0.8-0.2,1.4-0.5,1.8
			c-0.4,0.4-1,0.8-1.9,1H324.7z M204.9,53.6l8.7-18.7l8.5,18.7H204.9z M55.1,63.7c-2.3,1.3-5.8,1.9-10.4,1.9H30.3V30.3h14.4
			c3.5,0,6.3,0.4,8.4,1.1c2.1,0.7,3.9,1.9,5.4,3.6c2.7,3,4,7.4,4,13C62.6,55.8,60.1,61,55.1,63.7 M415.9,63.1
			c-0.3,0.9-0.6,1.6-1,1.9c-0.4,0.4-1,0.5-1.8,0.5h-23.2V51.2h10.8c0.8,0,1.4,0.2,1.8,0.6c0.4,0.4,0.7,1,1,1.9h1.2V40.3h-1.2
			c-0.3,0.9-0.6,1.6-1,1.9c-0.4,0.4-1,0.5-1.8,0.5h-10.8V30.3h22.3c0.8,0,1.4,0.2,1.8,0.6c0.4,0.4,0.7,1,1,1.9h1.2V19H415
			c-0.3,0.9-0.6,1.6-1,1.9c-0.4,0.4-1,0.6-1.8,0.6h-36.4v1.2c0.9,0.3,1.6,0.6,1.9,1c0.4,0.4,0.5,1,0.5,1.8v4.7c0,0,0-0.1,0-0.1
			c-1-2.3-2.5-4.1-4.6-5.5c-1.8-1.2-3.8-2-6.2-2.4c-2.4-0.5-5.5-0.7-9.6-0.7h-86.3v1.2c0.9,0.3,1.6,0.6,1.9,1c0.4,0.4,0.5,1,0.5,1.8
			v40h-22.1v-40c0-0.8,0.2-1.4,0.5-1.8c0.4-0.4,1-0.8,1.9-1v-1.2h-16.5v1.2c0.9,0.3,1.6,0.6,1.9,1c0.4,0.4,0.5,1,0.5,1.8v40
			l-18.8-38c-0.5-1-0.7-1.8-0.7-2.6c0-1.1,0.8-1.8,2.3-2.3v-1.2h-18.7v1.2c1.5,0.5,2.2,1.4,2.2,2.6c0,0.8-0.3,1.8-0.9,3.1L186.5,69
			c-0.7,1.5-1.3,2.5-1.9,3c-0.5,0.5-1.2,0.8-2.2,1c-0.8-0.2-1.4-0.6-1.8-1c-0.4-0.4-0.5-1-0.5-1.8v-40h12.4c0.8,0,1.4,0.2,1.8,0.5
			c0.4,0.4,0.7,1,1,1.9h1.2l-0.1-11.2h-58.1v1.2c0.9,0.3,1.6,0.6,1.9,1c0.4,0.4,0.5,1,0.5,1.8V48h-22.1c-0.8,0-1.4-0.2-1.8-0.5
			c-0.4-0.3-0.7-1-1-2h-1.2v12.3h1.2c0.3-0.9,0.6-1.6,1-1.9c0.4-0.4,1-0.5,1.8-0.5h13.1v7.2c-2.1,1.2-4.5,2.1-7.4,2.7
			c-2.8,0.7-5.7,1-8.6,1c-6,0-10.8-1.6-14.5-4.7c-4-3.4-6-7.9-6-13.5c0-5.7,2.1-10.4,6.2-13.9c3.6-3.1,8.2-4.6,13.8-4.6
			c2.7,0,5.6,0.4,8.6,1.2c3,0.8,5.4,1.8,6.9,3c0.7,0.5,1.2,1,1.4,1.4c0.2,0.4,0.3,1,0.3,1.8l1.1,0.6L140,25l-1.2-0.6
			c-0.7,0.6-1.4,0.9-1.9,0.9c-0.8,0-2-0.3-3.8-1c-3.4-1.3-6.5-2.3-9.1-2.8c-2.7-0.6-5.5-0.8-8.5-0.8c-9.5,0-17.1,2.4-22.9,7.1
			c-3.8,3.1-6.4,6.9-7.8,11.4V25.6c0-0.8,0.2-1.4,0.5-1.8c0.4-0.4,1-0.8,1.9-1v-1.2H70.8v1.2c0.9,0.3,1.6,0.6,1.9,1
			c0.4,0.4,0.5,1,0.5,1.8V39c-0.4-1.7-1-3.2-1.7-4.7c-2.4-4.9-6-8.5-11-10.6c-3.5-1.5-8.4-2.2-14.9-2.2H16.3v1.2
			c0.9,0.3,1.6,0.6,1.9,1c0.4,0.4,0.5,1,0.5,1.8v44.7c0,0.8-0.2,1.4-0.5,1.8c-0.4,0.4-1,0.8-1.9,1v1.2h29.4c4.9,0,8.9-0.4,12-1.3
			c3.2-0.9,5.9-2.3,8.2-4.3c3.6-3.1,6-7,7.3-11.9v13.5c0,0.8-0.2,1.4-0.5,1.8c-0.4,0.4-1,0.8-1.9,1v1.2h16.5v-1.2
			c-0.9-0.2-1.5-0.6-1.9-1c-0.4-0.4-0.6-1-0.6-1.8V56.8c1.6,5,4.5,9.1,8.9,12.4c5.4,4,12.4,6.1,20.9,6.1c8.5,0,17.2-2.3,26.1-6.9v2
			c0,0.8-0.2,1.4-0.5,1.8c-0.4,0.4-1,0.8-1.9,1v1.2h16.5v-1.2c-0.9-0.2-1.5-0.6-1.9-1c-0.4-0.4-0.6-1-0.6-1.8V32.8h1
			c0.3-0.9,0.6-1.6,1-1.9c0.4-0.4,1-0.5,1.8-0.5h12.4v40c0,0.8-0.2,1.4-0.5,1.8c-0.4,0.4-1,0.8-1.9,1v1.2h16.2h0.4h17.1v-1.2
			c-1.7-0.4-2.6-1.2-2.6-2.4c0-0.6,0.2-1.4,0.7-2.4l3.6-7.4h24l3.6,7.4c0.5,1.1,0.8,1.9,0.8,2.4c0,1.3-0.8,2.1-2.5,2.4v1.2h61v-1.2
			c-0.9-0.2-1.5-0.6-1.9-1c-0.4-0.4-0.6-1-0.6-1.8V51.3h14.8c0.8,0,1.4,0.2,1.8,0.6c0.4,0.4,0.7,1,1,1.9h1.2V40.4h-1.2
			c-0.3,0.9-0.6,1.6-1,1.9c-0.4,0.4-1,0.6-1.8,0.6h-14.8V30.3h25v40c0,0.8-0.2,1.4-0.5,1.8c-0.4,0.4-1,0.8-1.9,1v1.2h33.2v-1.2
			c-0.9-0.2-1.5-0.6-1.9-1c-0.4-0.4-0.6-1-0.6-1.8V52.8h13.9l10.8,15.6c1.2,1.8,1.8,2.9,1.8,3.4c0,0.7-0.7,1.2-2,1.4v1.2h13.8h1.2
			h1.4h0.1h33.1c0.8,0,1.4,0.2,1.8,0.5c0.4,0.4,0.7,1,1,1.9h1.2V63.1H415.9z"/>
	</g>
</g>
<g>
	<path d="M650.9,90.8C650.9,90.9,651,90.9,650.9,90.8C651,90.9,651,90.9,650.9,90.8c0,0.2-0.1,0.2-0.2,0.4
		C650.8,91.1,650.8,90.9,650.9,90.8 M661.4,31.7c0.1,0.5,0.2,1,0.3,1.6c-0.1-0.1-0.2-0.1-0.2-0.2C661.4,32.6,661.4,32.1,661.4,31.7
		 M688.6,78.9c-0.6-0.2-1.3,0-1.9,0.4c-0.2-0.2-0.5-0.3-0.7-0.5c0.1-0.1,0.2-0.3,0.3-0.5c0.7-0.4,1.3-1.1,1.5-1.9
		c0.2-0.8,0.1-1.5-0.3-2.2c-0.4-0.7-1.1-1.1-1.8-1.3c-1.6-0.4-3.2,0.6-3.5,2.2c-0.2,0.9,0,1.8,0.6,2.5c0,0,0,0,0,0l-0.4-0.4
		c-0.4-0.5-0.9-0.9-1.1-1.4c-1.5-3.1-3-5.9-5.5-8l-0.4-0.3c-0.5-0.4-1-0.7-1.2-1.3c-0.4-0.9-0.5-1.9-0.7-2.9
		c-0.1-0.9-0.3-1.8-0.6-2.6l-0.3-0.9c-0.6-1.7-1.2-3.5-2.8-4.6l-1-0.8c0.1-0.1,0.1-0.2,0.2-0.3c0.7,0.3,1.5,0.5,2.3,0.2
		c0.7-0.3,1-1.3,0.9-2.1l0.2-0.1l-0.2-0.1l0-0.1l-0.1,0c-0.3-0.1-0.6-0.5-0.8-0.9l0.8-0.2c0.7-0.1,1.5,0.1,2.4,0.5l0.2,0.1v-0.2
		c0-0.4,0.1-0.8,0.2-1.2l0.2-0.9c0.1-0.9,0-1.7-0.2-2.4c-0.2-0.4-0.4-0.8-0.7-1.1c1.7-2.3,3.5-4.3,5.2-5l-0.1-0.3
		c-2.3,0.2-3.8-0.2-4.3-1.3c-2.1-4.2,8.8-16.7,8.9-16.8l-0.2-0.2c-3,1.5-5,1.6-6,0.4c-1.7-2.2,0.4-9.2,7.8-17.7l-0.2-0.2
		c-13.4,7.9-19.1,19.1-21,25c-1.9-2.9-5.2-5.4-11.2-6.5l-0.1,0.3c0.1,0,6.5,2.8,8,9.2c-0.1,0-0.1-0.1-0.2-0.1l-1.7-1.2
		c-1.5-1.1-2.9-2.1-4.6-2.8c-0.3-0.1-1.5-0.5-3.1-0.7c-1.2-2.1-2-4.6-2.2-6.9l0-0.4l-0.2,0.3c-1.2,1.7-1,3.7-0.8,5.1
		c0.1,0.6,0.2,1.2,0.3,1.7c-1,0.1-2.1,0.4-3,0.9c-1.7,0.9-2.8,2.6-3.2,4.8c0,0.2-0.1,0.5-0.1,0.7c-0.7-0.9-1.6-1.9-2.7-3.1
		c-4.7-5.2-13.1-12.8-24.5-15.6l-0.1,0.2c5.8,4.6,8.5,8.5,7.7,10.9c-0.6,1.7-2.9,2.6-6.4,2.5l0,0.3c9.6,2.4,14.3,6.1,13.9,8.4
		c-0.2,1.3-2,1.9-4.7,1.6l-0.1,0.3c2.9,1.6,11.3,10.6,10.6,11.9c-0.1,0.1-0.5,0.4-2.5-0.7l-0.2,0.2c1.1,1.5,2.6,3,4.3,4.3
		c-2.6-1.3-5.3-2.3-8.2-2.4c-3.7-0.1-10.8,0.8-14.3,4.7c-1.7,2-2.4,4.5-2,7.4c0.4,3,1.8,5.8,4,8.1c4.6,4.9,10,1.9,11.7,0.3
		c0.8-0.8,1.3-1.6,1.7-2.5l0.6-1.1l0.4-1.1c0.1-0.4,0.3-0.8,0.5-1.1l-0.2-0.2c-1.1,1.5-2.9,2.5-5.1,3c-0.8,0.2-1.5-0.1-2.3-0.5
		l-0.9-0.4l0.3,0.4c0.9,1.3,2.6,2,4.4,1.8c-0.2,0.2-0.4,0.4-0.6,0.5c-0.7,0.4-1.5,0.8-2.3,0.9c-1,0.1-3.3,0.2-4.5-0.7
		c-1.4-1-2.5-3.1-2.8-5.4c0-0.1,0-0.2,0.1-0.3c0.5-1.7,1-3.6,1.8-4.5c5.4-5.9,11.2-0.9,13.3,1l0.6,0.5l1.8,1.5l0.9,0.8
		c0.1,0.1,0.2,0.2,0.3,0.3c-1.1,1.2-2,2.4-2.7,3.7c-0.7,1.1-0.8,2.4-0.8,3.5c0,0.3,0,0.6,0,0.9c0,0,0,0.2,0,0.3
		c-0.2,0.4-0.3,0.9-0.3,1.3c0,0.4,0.1,0.7,0.4,1.1c0.5,0.7,1.3,1.1,2.2,1.2c0.4,0,0.8-0.1,1.2-0.2c0,0,0,0,0,0l0.3,0l0.7,0.2
		c0.5,0.2,1,0.3,1.4,0.1l1.1-0.3l0.5-0.1l0.1,0c0.4-0.1,0.8-0.2,1.1,0l0.1,0.1c0.2,0.1,0.4,0.3,0.3,0.5l0,0.3l-1.4,1.2
		c-0.8,0.7-1.8,1.1-2.7,1.5c-0.3,0-0.6-0.1-0.9-0.1c-0.5-0.1-1.1-0.2-1.7-0.1c-0.8,0.1-1.1,0.8-1.5,1.5c-0.3,0.7-0.3,1.5,0,2.1
		c0.1,0.1,0.1,0.2,0.2,0.3c0,0.2,0,0.4,0.1,0.6c0,0,0,0.1,0.1,0.1c-0.2,0.5-0.3,1-0.4,1.7c0,0,0,0,0,0l0,0c0,0,0,0,0,0l0.3,0
		c0.1-0.6,0.5-0.7,1-0.7c0,0,0,0,0,0c0.2,0.1,0.5,0.2,0.8,0.3c0.6,0.1,1.2,0.1,1.7-0.2c0.1,0,0.2,0.1,0.3,0.1c0,0,0,0,0,0
		c-0.1,0.4-0.1,0.9-0.1,1.5l0.3,0c0-0.5,0.3-0.7,0.7-0.8c0.7,0.3,1.5,0.4,2.3,0.2c1.1-0.2,2-0.9,2.5-1.8c0.3-0.5,0.4-1.1,0.5-1.6
		c0.9-0.8,1.6-1.7,2.3-2.6c0,0,0,0,0-0.1c0,0.1,0.1,0.2,0.1,0.4l0.6,0.9c0.4,0.6,0.8,1.2,0.9,1.9c0,0.1,0,0.2,0,0.3
		c0,1.4-1,2.5-2.1,3.1c-0.3,0.2-0.6,0-1-0.2c-0.3-0.2-0.7-0.4-1.1-0.4c-1.1,0.1-2.4,0.7-2.7,1.9c-0.1,0.4-0.1,0.7,0,1.1
		c-0.3,0.7-0.5,1.8-0.2,3.4l0.3,0c0.2-0.9,0.6-1.2,1-1.5c0.7,0.5,1.8,0.6,2.6,0.1c0,0,0,0.1,0,0.1c0,0,0,0,0,0.1
		c-0.1,0.7-0.1,1.6,0.1,2.7l0.3,0c0.2-0.8,0.5-1.2,0.9-1.4c0.7,0.3,1.6,0.2,2.2,0.1c0.4-0.1,0.8-0.5,1.2-1c0.1-0.1,0.1-0.3,0.2-0.4
		c0,0.3,0.1,0.5,0.2,0.7c0.3,0.7,1,1.1,1.3,1.2c0.2,0.1,0.5,0.2,0.7,0.2c0.1,0.3,0.1,0.7,0.1,1.2l0.3,0c0-0.4,0.1-0.8,0.2-1.1
		c0.4,0,0.7-0.1,1.1-0.2c0.8-0.3,1.5-1,1.8-1.8c0.4-1.1,0.3-2.6-1-3.2c0,0-0.1-0.1-0.1-0.1c0-0.1,0-0.2,0-0.2
		c0.3-0.4,0.4-0.9,0.4-1.3c0.1-0.5,0.1-0.9,0.5-1.2c0.4-0.3,0.8-0.5,1.3-0.4l0.4,0.1l-0.2-0.3c-0.4-0.6-1-0.9-1.7-0.8
		c-0.4,0-0.7,0.2-1,0.4c0.6-1.3,1-2.6,1-3.9c0-0.7-0.1-1.4-0.5-2.1l-0.7-1c-0.5-0.6-0.9-1.2-0.9-1.8c0-0.2,0-0.3,0.1-0.5l1-2.4
		c0.6-1.2,1.1-2.5,1.3-3.9c0.2,0.1,0.3,0.1,0.5,0.1c0.3,1.3,0.7,2.5,1.9,3.4c0.2,0.2,0.5,0.3,0.7,0.5c-0.2,0.7,0,1.4,0.5,1.9
		c0.8,0.8,1.6,1.3,2.5,1.9l1.5,1c1.1,0.9,2.2,1.5,3.5,2.2c0.2,0.7,0.7,1.4,1.3,1.7c0.5,0.3,1,0.3,1.5,0c0.1,0,0.1-0.1,0.2-0.1
		c0.3,0.1,0.4,0.2,0.4,0.6l0.3,0c0-0.4,0-0.8-0.1-1.2c0,0,0.1-0.1,0.1-0.1c0.1,0.1,0.2,0.1,0.3,0.1c0.4,0.1,0.8,0.1,1.2-0.2
		c0.3,0.1,0.5,0.2,0.5,0.5l0.3,0c0-0.5,0-0.9-0.1-1.3c0-0.1,0.1-0.2,0.1-0.2l0.3,0c0-0.6-0.1-1.1-0.2-1.5c0.1-0.3,0.1-0.6,0-1
		c-0.2-0.5-0.6-0.7-1-0.8c-0.4-0.1-0.8,0.1-1.1,0.3c-0.7-0.4-1.4-0.8-2.1-1.2c-0.1-0.1-0.3-0.1-0.4-0.1c0.8-0.2,1.5-0.6,2-1.2
		c0.2-0.3,0.5-0.7,0.5-1v0c0-0.7-0.1-1.4-0.1-2.1c0.2,0,0.3,0.1,0.5,0.1c0,0,0.2,0.1,0.3,0.1c0.1,0.2,1.6,3.3,1.6,3.3
		c0.4,0.8,0.8,1.3,1.3,1.6c0.2,0.1,0.5,0.3,0.7,0.4c0,0.5,0.2,1.1,0.5,1.5c0.4,0.6,1,1.1,1.6,1.4l0.7,0.9c1,1.2,1.9,2.4,2.3,3.8
		c-0.4,0.4-0.7,0.9-0.9,1.5c-0.4,1.6,0.5,3.1,2,3.5c0.4,0.1,0.8,0.1,1.2,0c0,0.1,0,0.2,0,0.3l0,0.3l0.3-0.2c0.2-0.1,0.4-0.4,0.6-0.7
		c0.6-0.4,1.2-1.1,1.3-1.9c0.2-0.8,0.1-1.5-0.3-2.2c0.7-0.8,1.5-1.5,2.4-2c0.2,0.1,0.4,0.2,0.6,0.2c0.5,0.1,1,0,1.4-0.2l0,0.2
		l0.3-0.2c0.1-0.1,0.2-0.2,0.4-0.4c0.5-0.4,1-1.1,1.2-1.9C690.7,80.9,690,79.2,688.6,78.9"/>
	<path class="st4" d="M650.9,90.8C650.9,90.9,651,90.9,650.9,90.8C651,90.9,651,90.9,650.9,90.8c0,0.2-0.1,0.2-0.2,0.4
		C650.8,91.1,650.8,90.9,650.9,90.8z M661.4,31.7c0.1,0.5,0.2,1,0.3,1.6c-0.1-0.1-0.2-0.1-0.2-0.2C661.4,32.6,661.4,32.1,661.4,31.7
		z M688.6,78.9c-0.6-0.2-1.3,0-1.9,0.4c-0.2-0.2-0.5-0.3-0.7-0.5c0.1-0.1,0.2-0.3,0.3-0.5c0.7-0.4,1.3-1.1,1.5-1.9
		c0.2-0.8,0.1-1.5-0.3-2.2c-0.4-0.7-1.1-1.1-1.8-1.3c-1.6-0.4-3.2,0.6-3.5,2.2c-0.2,0.9,0,1.8,0.6,2.5c0,0,0,0,0,0l-0.4-0.4
		c-0.4-0.5-0.9-0.9-1.1-1.4c-1.5-3.1-3-5.9-5.5-8l-0.4-0.3c-0.5-0.4-1-0.7-1.2-1.3c-0.4-0.9-0.5-1.9-0.7-2.9
		c-0.1-0.9-0.3-1.8-0.6-2.6l-0.3-0.9c-0.6-1.7-1.2-3.5-2.8-4.6l-1-0.8c0.1-0.1,0.1-0.2,0.2-0.3c0.7,0.3,1.5,0.5,2.3,0.2
		c0.7-0.3,1-1.3,0.9-2.1l0.2-0.1l-0.2-0.1l0-0.1l-0.1,0c-0.3-0.1-0.6-0.5-0.8-0.9l0.8-0.2c0.7-0.1,1.5,0.1,2.4,0.5l0.2,0.1v-0.2
		c0-0.4,0.1-0.8,0.2-1.2l0.2-0.9c0.1-0.9,0-1.7-0.2-2.4c-0.2-0.4-0.4-0.8-0.7-1.1c1.7-2.3,3.5-4.3,5.2-5l-0.1-0.3
		c-2.3,0.2-3.8-0.2-4.3-1.3c-2.1-4.2,8.8-16.7,8.9-16.8l-0.2-0.2c-3,1.5-5,1.6-6,0.4c-1.7-2.2,0.4-9.2,7.8-17.7l-0.2-0.2
		c-13.4,7.9-19.1,19.1-21,25c-1.9-2.9-5.2-5.4-11.2-6.5l-0.1,0.3c0.1,0,6.5,2.8,8,9.2c-0.1,0-0.1-0.1-0.2-0.1l-1.7-1.2
		c-1.5-1.1-2.9-2.1-4.6-2.8c-0.3-0.1-1.5-0.5-3.1-0.7c-1.2-2.1-2-4.6-2.2-6.9l0-0.4l-0.2,0.3c-1.2,1.7-1,3.7-0.8,5.1
		c0.1,0.6,0.2,1.2,0.3,1.7c-1,0.1-2.1,0.4-3,0.9c-1.7,0.9-2.8,2.6-3.2,4.8c0,0.2-0.1,0.5-0.1,0.7c-0.7-0.9-1.6-1.9-2.7-3.1
		c-4.7-5.2-13.1-12.8-24.5-15.6l-0.1,0.2c5.8,4.6,8.5,8.5,7.7,10.9c-0.6,1.7-2.9,2.6-6.4,2.5l0,0.3c9.6,2.4,14.3,6.1,13.9,8.4
		c-0.2,1.3-2,1.9-4.7,1.6l-0.1,0.3c2.9,1.6,11.3,10.6,10.6,11.9c-0.1,0.1-0.5,0.4-2.5-0.7l-0.2,0.2c1.1,1.5,2.6,3,4.3,4.3
		c-2.6-1.3-5.3-2.3-8.2-2.4c-3.7-0.1-10.8,0.8-14.3,4.7c-1.7,2-2.4,4.5-2,7.4c0.4,3,1.8,5.8,4,8.1c4.6,4.9,10,1.9,11.7,0.3
		c0.8-0.8,1.3-1.6,1.7-2.5l0.6-1.1l0.4-1.1c0.1-0.4,0.3-0.8,0.5-1.1l-0.2-0.2c-1.1,1.5-2.9,2.5-5.1,3c-0.8,0.2-1.5-0.1-2.3-0.5
		l-0.9-0.4l0.3,0.4c0.9,1.3,2.6,2,4.4,1.8c-0.2,0.2-0.4,0.4-0.6,0.5c-0.7,0.4-1.5,0.8-2.3,0.9c-1,0.1-3.3,0.2-4.5-0.7
		c-1.4-1-2.5-3.1-2.8-5.4c0-0.1,0-0.2,0.1-0.3c0.5-1.7,1-3.6,1.8-4.5c5.4-5.9,11.2-0.9,13.3,1l0.6,0.5l1.8,1.5l0.9,0.8
		c0.1,0.1,0.2,0.2,0.3,0.3c-1.1,1.2-2,2.4-2.7,3.7c-0.7,1.1-0.8,2.4-0.8,3.5c0,0.3,0,0.6,0,0.9c0,0,0,0.2,0,0.3
		c-0.2,0.4-0.3,0.9-0.3,1.3c0,0.4,0.1,0.7,0.4,1.1c0.5,0.7,1.3,1.1,2.2,1.2c0.4,0,0.8-0.1,1.2-0.2c0,0,0,0,0,0l0.3,0l0.7,0.2
		c0.5,0.2,1,0.3,1.4,0.1l1.1-0.3l0.5-0.1l0.1,0c0.4-0.1,0.8-0.2,1.1,0l0.1,0.1c0.2,0.1,0.4,0.3,0.3,0.5l0,0.3l-1.4,1.2
		c-0.8,0.7-1.8,1.1-2.7,1.5c-0.3,0-0.6-0.1-0.9-0.1c-0.5-0.1-1.1-0.2-1.7-0.1c-0.8,0.1-1.1,0.8-1.5,1.5c-0.3,0.7-0.3,1.5,0,2.1
		c0.1,0.1,0.1,0.2,0.2,0.3c0,0.2,0,0.4,0.1,0.6c0,0,0,0.1,0.1,0.1c-0.2,0.5-0.3,1-0.4,1.7c0,0,0,0,0,0l0,0c0,0,0,0,0,0l0.3,0
		c0.1-0.6,0.5-0.7,1-0.7c0,0,0,0,0,0c0.2,0.1,0.5,0.2,0.8,0.3c0.6,0.1,1.2,0.1,1.7-0.2c0.1,0,0.2,0.1,0.3,0.1c0,0,0,0,0,0
		c-0.1,0.4-0.1,0.9-0.1,1.5l0.3,0c0-0.5,0.3-0.7,0.7-0.8c0.7,0.3,1.5,0.4,2.3,0.2c1.1-0.2,2-0.9,2.5-1.8c0.3-0.5,0.4-1.1,0.5-1.6
		c0.9-0.8,1.6-1.7,2.3-2.6c0,0,0,0,0-0.1c0,0.1,0.1,0.2,0.1,0.4l0.6,0.9c0.4,0.6,0.8,1.2,0.9,1.9c0,0.1,0,0.2,0,0.3
		c0,1.4-1,2.5-2.1,3.1c-0.3,0.2-0.6,0-1-0.2c-0.3-0.2-0.7-0.4-1.1-0.4c-1.1,0.1-2.4,0.7-2.7,1.9c-0.1,0.4-0.1,0.7,0,1.1
		c-0.3,0.7-0.5,1.8-0.2,3.4l0.3,0c0.2-0.9,0.6-1.2,1-1.5c0.7,0.5,1.8,0.6,2.6,0.1c0,0,0,0.1,0,0.1c0,0,0,0,0,0.1
		c-0.1,0.7-0.1,1.6,0.1,2.7l0.3,0c0.2-0.8,0.5-1.2,0.9-1.4c0.7,0.3,1.6,0.2,2.2,0.1c0.4-0.1,0.8-0.5,1.2-1c0.1-0.1,0.1-0.3,0.2-0.4
		c0,0.3,0.1,0.5,0.2,0.7c0.3,0.7,1,1.1,1.3,1.2c0.2,0.1,0.5,0.2,0.7,0.2c0.1,0.3,0.1,0.7,0.1,1.2l0.3,0c0-0.4,0.1-0.8,0.2-1.1
		c0.4,0,0.7-0.1,1.1-0.2c0.8-0.3,1.5-1,1.8-1.8c0.4-1.1,0.3-2.6-1-3.2c0,0-0.1-0.1-0.1-0.1c0-0.1,0-0.2,0-0.2
		c0.3-0.4,0.4-0.9,0.4-1.3c0.1-0.5,0.1-0.9,0.5-1.2c0.4-0.3,0.8-0.5,1.3-0.4l0.4,0.1l-0.2-0.3c-0.4-0.6-1-0.9-1.7-0.8
		c-0.4,0-0.7,0.2-1,0.4c0.6-1.3,1-2.6,1-3.9c0-0.7-0.1-1.4-0.5-2.1l-0.7-1c-0.5-0.6-0.9-1.2-0.9-1.8c0-0.2,0-0.3,0.1-0.5l1-2.4
		c0.6-1.2,1.1-2.5,1.3-3.9c0.2,0.1,0.3,0.1,0.5,0.1c0.3,1.3,0.7,2.5,1.9,3.4c0.2,0.2,0.5,0.3,0.7,0.5c-0.2,0.7,0,1.4,0.5,1.9
		c0.8,0.8,1.6,1.3,2.5,1.9l1.5,1c1.1,0.9,2.2,1.5,3.5,2.2c0.2,0.7,0.7,1.4,1.3,1.7c0.5,0.3,1,0.3,1.5,0c0.1,0,0.1-0.1,0.2-0.1
		c0.3,0.1,0.4,0.2,0.4,0.6l0.3,0c0-0.4,0-0.8-0.1-1.2c0,0,0.1-0.1,0.1-0.1c0.1,0.1,0.2,0.1,0.3,0.1c0.4,0.1,0.8,0.1,1.2-0.2
		c0.3,0.1,0.5,0.2,0.5,0.5l0.3,0c0-0.5,0-0.9-0.1-1.3c0-0.1,0.1-0.2,0.1-0.2l0.3,0c0-0.6-0.1-1.1-0.2-1.5c0.1-0.3,0.1-0.6,0-1
		c-0.2-0.5-0.6-0.7-1-0.8c-0.4-0.1-0.8,0.1-1.1,0.3c-0.7-0.4-1.4-0.8-2.1-1.2c-0.1-0.1-0.3-0.1-0.4-0.1c0.8-0.2,1.5-0.6,2-1.2
		c0.2-0.3,0.5-0.7,0.5-1v0c0-0.7-0.1-1.4-0.1-2.1c0.2,0,0.3,0.1,0.5,0.1c0,0,0.2,0.1,0.3,0.1c0.1,0.2,1.6,3.3,1.6,3.3
		c0.4,0.8,0.8,1.3,1.3,1.6c0.2,0.1,0.5,0.3,0.7,0.4c0,0.5,0.2,1.1,0.5,1.5c0.4,0.6,1,1.1,1.6,1.4l0.7,0.9c1,1.2,1.9,2.4,2.3,3.8
		c-0.4,0.4-0.7,0.9-0.9,1.5c-0.4,1.6,0.5,3.1,2,3.5c0.4,0.1,0.8,0.1,1.2,0c0,0.1,0,0.2,0,0.3l0,0.3l0.3-0.2c0.2-0.1,0.4-0.4,0.6-0.7
		c0.6-0.4,1.2-1.1,1.3-1.9c0.2-0.8,0.1-1.5-0.3-2.2c0.7-0.8,1.5-1.5,2.4-2c0.2,0.1,0.4,0.2,0.6,0.2c0.5,0.1,1,0,1.4-0.2l0,0.2
		l0.3-0.2c0.1-0.1,0.2-0.2,0.4-0.4c0.5-0.4,1-1.1,1.2-1.9C690.7,80.9,690,79.2,688.6,78.9z"/>
	
		<radialGradient id="SVGID_2_" cx="655.9274" cy="55.5419" r="23.0568" gradientTransform="matrix(1 0 0 -1 0 132)" gradientUnits="userSpaceOnUse">
		<stop  offset="0" style="stop-color:#FFFF00"/>
		<stop  offset="1" style="stop-color:#40FF40"/>
	</radialGradient>
	<path class="st5" d="M661.9,72.5c-0.9-1.8-1.1-4.4,0.7-5.5c2-1.3,4.9-1.5,6.5,0.5c0.2,0.3,0.6,0.5,0.7,0.9c0.5,2.3,0.8,4.5,0.8,6.8
		c0,0.2-0.3,0.6-0.5,0.9c-0.7,0.8-1.6,1.2-2.6,1.4c-0.9,0.1-1.7-0.1-2.5-0.4c1.2,0.3,2.5,0,3.4,0.6c1.1,0.7,2.1,1.3,3.4,1.8
		c0.7,0.2,1,0.9,0.8,1.7c-0.1,0.4-0.5,0.6-0.8,0.8c-1.5,0.6-3.3,0.7-4.7,0c-1.3-0.6-2.5-1.4-3.8-2.3c-1.4-1-2.8-1.8-4-2.9
		c-0.6-0.6-0.6-1.5-0.2-2.3c0.2-0.5,0.6-0.9,1-1.3"/>
	<path class="st6" d="M661.9,72.5c-0.9-1.8-1.1-4.4,0.7-5.5c2-1.3,4.9-1.5,6.5,0.5c0.2,0.3,0.6,0.5,0.7,0.9c0.5,2.3,0.8,4.5,0.8,6.8
		c0,0.2-0.3,0.6-0.5,0.9c-0.7,0.8-1.6,1.2-2.6,1.4c-0.9,0.1-1.7-0.1-2.5-0.4c1.2,0.3,2.5,0,3.4,0.6c1.1,0.7,2.1,1.3,3.4,1.8
		c0.7,0.2,1,0.9,0.8,1.7c-0.1,0.4-0.5,0.6-0.8,0.8c-1.5,0.6-3.3,0.7-4.7,0c-1.3-0.6-2.5-1.4-3.8-2.3c-1.4-1-2.8-1.8-4-2.9
		c-0.6-0.6-0.6-1.5-0.2-2.3c0.2-0.5,0.6-0.9,1-1.3"/>
	
		<radialGradient id="SVGID_3_" cx="655.9274" cy="55.5419" r="23.0568" gradientTransform="matrix(1 0 0 -1 0 132)" gradientUnits="userSpaceOnUse">
		<stop  offset="0" style="stop-color:#FFFF00"/>
		<stop  offset="1" style="stop-color:#40FF40"/>
	</radialGradient>
	<path class="st7" d="M645.3,76.7c-1.5,1.3-2.8,2.7-4.4,3.9c-0.9,0.7-2,1.2-3.1,1.7c-1.7,0.7-2.4,3.4-0.6,4.7
		c1.2,0.8,2.6,1.1,3.8,0.4c0.8-0.4,1.4-0.9,2.1-1.4c2.5-1.9,3.9-4.4,6.1-6.4"/>
	<path class="st6" d="M645.3,76.7c-1.5,1.3-2.8,2.7-4.4,3.9c-0.9,0.7-2,1.2-3.1,1.7c-1.7,0.7-2.4,3.4-0.6,4.7
		c1.2,0.8,2.6,1.1,3.8,0.4c0.8-0.4,1.4-0.9,2.1-1.4c2.5-1.9,3.9-4.4,6.1-6.4"/>
	
		<radialGradient id="SVGID_4_" cx="655.9274" cy="55.5419" r="23.0568" gradientTransform="matrix(1 0 0 -1 0 132)" gradientUnits="userSpaceOnUse">
		<stop  offset="0" style="stop-color:#FFFF00"/>
		<stop  offset="1" style="stop-color:#40FF40"/>
	</radialGradient>
	<path class="st8" d="M639.3,82c-1.2,0.6-2.5-0.3-3.7-0.1c-0.7,0.1-1.1,0.8-1.4,1.4c-0.5,1-0.2,2.5,1,2.6c0.9,0.1,1.8-0.2,2.5-0.9"
		/>
	<path class="st6" d="M639.3,82c-1.2,0.6-2.5-0.3-3.7-0.1c-0.7,0.1-1.1,0.8-1.4,1.4c-0.5,1-0.2,2.5,1,2.6c0.9,0.1,1.8-0.2,2.5-0.9"
		/>
	
		<radialGradient id="SVGID_5_" cx="655.9274" cy="55.5419" r="23.0568" gradientTransform="matrix(1 0 0 -1 0 132)" gradientUnits="userSpaceOnUse">
		<stop  offset="0" style="stop-color:#FFFF00"/>
		<stop  offset="1" style="stop-color:#40FF40"/>
	</radialGradient>
	<path class="st9" d="M639.8,81.9c-0.2,0.6-0.9,0.9-1.2,1c-1.1,0.3-2.6-0.4-3.5,0.9c-0.5,0.8-0.8,1.6-0.5,2.4
		c0.2,0.8,0.9,1.2,1.7,1.4c1.2,0.3,2.2-0.3,2.9-1.3"/>
	<path class="st6" d="M639.8,81.9c-0.2,0.6-0.9,0.9-1.2,1c-1.1,0.3-2.6-0.4-3.5,0.9c-0.5,0.8-0.8,1.6-0.5,2.4
		c0.2,0.8,0.9,1.2,1.7,1.4c1.2,0.3,2.2-0.3,2.9-1.3"/>
	
		<radialGradient id="SVGID_6_" cx="655.9274" cy="55.5419" r="23.0568" gradientTransform="matrix(1 0 0 -1 0 132)" gradientUnits="userSpaceOnUse">
		<stop  offset="0" style="stop-color:#FFFF00"/>
		<stop  offset="1" style="stop-color:#40FF40"/>
	</radialGradient>
	<path class="st10" d="M642.5,84c-0.9-0.9-2.1-0.9-3.1-0.3c-1.1,0.7-1.5,2-1.3,3.2c0.1,0.4,0.2,0.8,0.6,1c1.8,1.2,4.2,0.5,5.2-1.3
		c0.5-0.9,0.6-2,0.5-3"/>
	<path class="st6" d="M642.5,84c-0.9-0.9-2.1-0.9-3.1-0.3c-1.1,0.7-1.5,2-1.3,3.2c0.1,0.4,0.2,0.8,0.6,1c1.8,1.2,4.2,0.5,5.2-1.3
		c0.5-0.9,0.6-2,0.5-3"/>
	
		<radialGradient id="SVGID_7_" cx="639.957" cy="64.4311" r="29.3633" gradientTransform="matrix(1 0 0 -1 0 132)" gradientUnits="userSpaceOnUse">
		<stop  offset="0" style="stop-color:#FFFF00"/>
		<stop  offset="1" style="stop-color:#FF0066"/>
	</radialGradient>
	<path class="st11" d="M638.4,68.7c-0.7-0.7-1.2-1.6-2-2.3c-0.9-0.8-1.7-1.6-2.7-2.3c-1.5-1.1-8-8.2-14.1-1.5
		c-1.3,1.4-1.9,5.2-2.6,7c-0.5-2.6-0.5-7.7,1.7-9.4c4.4-3.5,8.2-4.2,13-2.4c1.8,0.7,3.4,1.7,5,2.8c1.8,1.3,3.6,2.6,4.2,4.7"/>
	<path class="st6" d="M638.4,68.7c-0.7-0.7-1.2-1.6-2-2.3c-0.9-0.8-1.7-1.6-2.7-2.3c-1.5-1.1-8-8.2-14.1-1.5c-1.3,1.4-1.9,5.2-2.6,7
		c-0.5-2.6-0.5-7.7,1.7-9.4c4.4-3.5,8.2-4.2,13-2.4c1.8,0.7,3.4,1.7,5,2.8c1.8,1.3,3.6,2.6,4.2,4.7"/>
	
		<radialGradient id="SVGID_8_" cx="655.9274" cy="55.5419" r="23.0568" gradientTransform="matrix(1 0 0 -1 0 132)" gradientUnits="userSpaceOnUse">
		<stop  offset="0" style="stop-color:#FFFF00"/>
		<stop  offset="1" style="stop-color:#40FF40"/>
	</radialGradient>
	<path class="st12" d="M644.2,59.3c-0.6-0.1-1-0.5-1.5-0.8c-4.4-2.5-8.6-5.4-13.7-5.5c-3.8-0.1-17.7,1-16.1,12
		c0.6,4.2,2.8,6.8,4,8.1c4.7,4.9,10,1.7,11.5,0.3c1.1-1,1.5-2.2,2.3-3.6c0.4-0.6,0.5-1.7,0.9-2.2c-1.3,1.7-3.1,2.6-5.2,3.1
		c-1,0.2-1.9-0.3-2.8-0.6c1,1.4,2.9,2,4.6,1.8c-0.1,0.4-0.5,0.6-0.8,0.8c-0.8,0.4-1.5,0.8-2.3,0.9c-1.4,0.1-3.5,0.1-4.6-0.7
		c-2.9-2.2-4.1-8.3-1.7-11.4c3.1-4,7.1-3.5,10.6-2.4c2.9,1,3.5,1.2,9.8,5.6c0.9,0.7-2.3,1.9-1.4,2.7c0.8,0.6,1.3,0,2.2,0.5"/>
	<path class="st6" d="M644.2,59.3c-0.6-0.1-1-0.5-1.5-0.8c-4.4-2.5-8.6-5.4-13.7-5.5c-3.8-0.1-17.7,1-16.1,12c0.6,4.2,2.8,6.8,4,8.1
		c4.7,4.9,10,1.7,11.5,0.3c1.1-1,1.5-2.2,2.3-3.6c0.4-0.6,0.5-1.7,0.9-2.2c-1.3,1.7-3.1,2.6-5.2,3.1c-1,0.2-1.9-0.3-2.8-0.6
		c1,1.4,2.9,2,4.6,1.8c-0.1,0.4-0.5,0.6-0.8,0.8c-0.8,0.4-1.5,0.8-2.3,0.9c-1.4,0.1-3.5,0.1-4.6-0.7c-2.9-2.2-4.1-8.3-1.7-11.4
		c3.1-4,7.1-3.5,10.6-2.4c2.9,1,3.5,1.2,9.8,5.6c0.9,0.7-2.3,1.9-1.4,2.7c0.8,0.6,1.3,0,2.2,0.5"/>
	
		<radialGradient id="SVGID_9_" cx="655.9274" cy="55.5419" r="23.0576" gradientTransform="matrix(1 0 0 -1 0 132)" gradientUnits="userSpaceOnUse">
		<stop  offset="0" style="stop-color:#FFFF00"/>
		<stop  offset="1" style="stop-color:#40FF40"/>
	</radialGradient>
	<path class="st13" d="M644.7,59.1c-2,0.5-3.6,1.6-5,3.1c-0.4,0.5-0.8,0.9-1.1,1.5c-0.3,0.8-0.2,1.8-0.8,2.2
		c-1.7,1.3-2.8,2.9-3.8,4.7c-0.8,1.3-0.9,2.8-0.8,4.3c0-0.2,0.3-0.4,0.4-0.6c-0.3,1.1-1.1,2.2-0.3,3.2c1,1.4,3,1.6,4.3,0.3
		c-0.2,0.3-0.6,0.4-0.7,0.7c0.7,0.1,1.4,0.6,2.1,0.3c0.5-0.2,1.1-0.3,1.6-0.4c0.4-0.1,1-0.3,1.4,0c0.2,0.2,0.5,0.3,0.5,0.7
		c1.6-1.1,3.6-0.9,5.3-1.6c0.2-0.1-0.1-0.6,0.2-0.9"/>
	<path class="st6" d="M644.7,59.1c-2,0.5-3.6,1.6-5,3.1c-0.4,0.5-0.8,0.9-1.1,1.5c-0.3,0.8-0.2,1.8-0.8,2.2
		c-1.7,1.3-2.8,2.9-3.8,4.7c-0.8,1.3-0.9,2.8-0.8,4.3c0-0.2,0.3-0.4,0.4-0.6c-0.3,1.1-1.1,2.2-0.3,3.2c1,1.4,3,1.6,4.3,0.3
		c-0.2,0.3-0.6,0.4-0.7,0.7c0.7,0.1,1.4,0.6,2.1,0.3c0.5-0.2,1.1-0.3,1.6-0.4c0.4-0.1,1-0.3,1.4,0c0.2,0.2,0.5,0.3,0.5,0.7
		c1.6-1.1,3.6-0.9,5.3-1.6c0.2-0.1-0.1-0.6,0.2-0.9"/>
	
		<radialGradient id="SVGID_10_" cx="643.733" cy="58.1374" r="8.236" gradientTransform="matrix(1 0 0 -1 0 132)" gradientUnits="userSpaceOnUse">
		<stop  offset="0" style="stop-color:#FFFF00"/>
		<stop  offset="1" style="stop-color:#FF0066"/>
	</radialGradient>
	<path class="st14" d="M644,71.3c-1.4,1.1-2.3,2.4-3.4,3.8c-0.3,0.3-0.5,0.9-0.4,1.2c0.7,2.8,4.4,1.5,6.6,1.1"/>
	<path class="st6" d="M644,71.3c-1.4,1.1-2.3,2.4-3.4,3.8c-0.3,0.3-0.5,0.9-0.4,1.2c0.7,2.8,4.4,1.5,6.6,1.1"/>
	
		<radialGradient id="SVGID_11_" cx="665.3672" cy="87.4027" r="45.0524" gradientTransform="matrix(1 0 0 -1 0 132)" gradientUnits="userSpaceOnUse">
		<stop  offset="0" style="stop-color:#FFFF00"/>
		<stop  offset="1" style="stop-color:#FF0066"/>
	</radialGradient>
	<path class="st15" d="M663.6,32.4c0.4-2.7,4.5-17.6,21.6-27.7c-10.2,11.9-11.5,22.4-1.6,17.5c0,0-17.4,19.6-4.5,18.3
		c-5.2,2.2-11.8,16.2-11.8,16.2c-17.9-4.5-3.4-20.4-3.4-20.4"/>
	<path class="st6" d="M663.6,32.4c0.4-2.7,4.5-17.6,21.6-27.7c-10.2,11.9-11.5,22.4-1.6,17.5c0,0-17.4,19.6-4.5,18.3
		c-5.2,2.2-11.8,16.2-11.8,16.2c-17.9-4.5-3.4-20.4-3.4-20.4"/>
	
		<radialGradient id="SVGID_12_" cx="646.486" cy="70.1742" r="62.4951" gradientTransform="matrix(1 0 0 -1 0 132)" gradientUnits="userSpaceOnUse">
		<stop  offset="0" style="stop-color:#FFFF00"/>
		<stop  offset="1" style="stop-color:#FF0066"/>
	</radialGradient>
	<path class="st16" d="M643.2,36c-3.8-5.5-14.1-17-28.4-20.6c12.1,9.6,8.5,13.7,1.2,13.6c16.1,4,17.3,11.2,9.2,10.3
		c3.4,1.9,16.3,15.7,8,11.5c4.5,6.2,16.2,11.5,16.2,11.5"/>
	<path class="st6" d="M643.2,36c-3.8-5.5-14.1-17-28.4-20.6c12.1,9.6,8.5,13.7,1.2,13.6c16.1,4,17.3,11.2,9.2,10.3
		c3.4,1.9,16.3,15.7,8,11.5c4.5,6.2,16.2,11.5,16.2,11.5"/>
	<path class="st17" d="M646,43.7c-4-8.8-16.1-23.2-30.6-27.9c17.1,4,28.6,20.9,28.6,20.9"/>
	<path class="st6" d="M646,43.7c-4-8.8-16.1-23.2-30.6-27.9c17.1,4,28.6,20.9,28.6,20.9"/>
	<path class="st17" d="M644.3,39.6c-4.8-3.6-13.9-10.8-26.9-10.4c0,0,18,1.4,28,15.2c0,0-4.3,2.2-19.6-4.8c0,0,12.4,7.4,19.4,6.5"/>
	<path class="st6" d="M644.3,39.6c-4.8-3.6-13.9-10.8-26.9-10.4c0,0,18,1.4,28,15.2c0,0-4.3,2.2-19.6-4.8c0,0,12.4,7.4,19.4,6.5"/>
	<path class="st17" d="M665.2,33.7c1.2-4.6,10.5-22.9,19.7-28.8c0,0-16.7,9.2-21.1,26.9"/>
	<path class="st6" d="M665.2,33.7c1.2-4.6,10.5-22.9,19.7-28.8c0,0-16.7,9.2-21.1,26.9"/>
	<path class="st17" d="M666,37.4c1.5-1.8,8.4-10.2,17.1-14.9c-4.6,4-11.3,9.3-15.8,17.4"/>
	<path class="st6" d="M666,37.4c1.5-1.8,8.4-10.2,17.1-14.9c-4.6,4-11.3,9.3-15.8,17.4"/>
	<path class="st17" d="M670.1,44.8c2.2-1.6,4.5-3.7,8.7-4.3c0,0-4.2,1.7-6.1,5.4"/>
	<path class="st6" d="M670.1,44.8c2.2-1.6,4.5-3.7,8.7-4.3c0,0-4.2,1.7-6.1,5.4"/>
	<path class="st6" d="M645.7,55.3c-2.8,0.5-4.6,1.4-11.9-3.6"/>
	
		<linearGradient id="SVGID_13_" gradientUnits="userSpaceOnUse" x1="664.0462" y1="91.4654" x2="657.9094" y2="107.2781" gradientTransform="matrix(1 0 0 -1 0 132)">
		<stop  offset="0" style="stop-color:#FFFFFF"/>
		<stop  offset="1" style="stop-color:#000000"/>
	</linearGradient>
	<path class="st18" d="M666.6,39.4c-0.4-3.6-0.2-13.9-13.7-16.2c0,0,8.1,3.4,8.5,11.5l-0.1-4.7c0,0,0.8,3.6,0.8,5.2"/>
	<path class="st6" d="M666.6,39.4c-0.4-3.6-0.2-13.9-13.7-16.2c0,0,8.1,3.4,8.5,11.5l-0.1-4.7c0,0,0.8,3.6,0.8,5.2"/>
	<path class="st19" d="M666.1,38.2c1.5-0.6,2.6,1.2,3,2.5c0.2,0.8,0.1,1.7-0.5,2.3"/>
	<path class="st6" d="M666.1,38.2c1.5-0.6,2.6,1.2,3,2.5c0.2,0.8,0.1,1.7-0.5,2.3"/>
	
		<radialGradient id="SVGID_14_" cx="661.1191" cy="57.1938" r="41.1226" gradientTransform="matrix(1 0 0 -1 0 132)" gradientUnits="userSpaceOnUse">
		<stop  offset="0" style="stop-color:#FFFF00"/>
		<stop  offset="1" style="stop-color:#40FF40"/>
	</radialGradient>
	<path class="st20" d="M661.5,51.2h-0.1h0.4h-0.1c3.3-0.5,5.4,2.3,7.9,4.1c1.9,1.3,2.4,3.6,3.1,5.5c0.7,1.8,0.5,3.7,1.3,5.5
		c0.3,0.7,1,1.1,1.7,1.6c2.6,2.1,4.1,4.9,5.5,7.9c0.4,0.9,1.3,1.5,1.9,2.3c0.5,0.6,0.5,1.4,0.1,2.1c-0.4,0.7-1.1,1.2-1.9,1.4
		c-0.7,0.2-1.3-0.2-1.8-0.6c-0.7-0.6-1.7-0.6-2.2-1.5l0.1,0.2c0-0.2-0.3-0.1-0.2-0.4c-1-0.3-1.9-0.7-2.8-1.2c-0.6-0.3-1-0.9-1.3-1.5
		c-0.8-1.7-1.6-3.3-2.4-4.9c0.2,0.5,0.7,0.9,0.7,1.5c-0.9-0.3-1.9-0.5-2.7-1.1c-1.8-1.4-3.3-3-4.4-5c-0.1-0.2-0.1-0.6-0.1-0.6
		c-2.9,1.1-8.9,0-8.6,3.1c0.3,2.8-1.5,5-2.3,7.5c-0.4,1.4,1,2.3,1.6,3.4c1.1,2.1,0.1,4.7-0.9,6.8c0.7-1.3,2.4-1.4,3.2-0.2
		c-0.5-0.1-1,0.1-1.4,0.4c-0.8,0.6-0.3,1.7-0.9,2.6c-0.1,0.1-0.1,0.4,0.1,0.5c1.2,0.6,1.4,2,1,3.1c-0.6,1.6-2.5,2.5-4.1,1.7
		c-0.5-0.2-1-0.6-1.3-1.1c-0.3-0.7-0.4-2.1,0.1-2.7c0.4-0.5,0.5-0.5,0.9-0.9c-0.3,0.2-0.2,0.5-0.5,0.2c0.2-0.2,0.1-0.4,0.1-0.6
		c-0.2,0.5-0.6,0.6-0.6,1.1c-0.1,0.9-0.1,1.8-0.6,2.6c-0.3,0.5-0.7,0.8-1.1,0.9c-1.2,0.3-3,0.1-3.3-1.3c-0.3-1.2-0.3-2.6,0.9-3.3
		c0.9-0.5,1.7-0.6,2.8,0c-0.7-0.7-1.8-0.5-2.6-0.1c-1.1,0.6-1.8,2.2-1.1,3.2c-0.9,0.7-2.4,0.6-3.1-0.3c-0.6-0.7-0.9-1.6-0.6-2.5
		c0.3-1.1,1.6-1.7,2.6-1.8c0.8-0.1,1.4,0.9,2.1,0.5c1.2-0.7,2.3-2,2.1-3.5c-0.1-1.1-1-1.9-1.5-2.8c-0.4-0.7,0.1-1.5-0.1-2.2
		c-0.6-1.6-2.2-2.6-3.3-3.9c-0.3-0.3-0.4-0.6-0.5-1c-0.4-1.1-0.6-2.3-0.5-3.5c0.1-0.9,0.4-1.7,0.4-2.6c-0.1,0.8-0.6,1.5-0.3,2.2
		c-3.1-7.3,2.9-21.4,2.9-21.4s3.4,4.5,0.9,1.3c-2.5-3.2-5.9-10.9-4.3-18.4c1.5-7.5,9.6-5.6,12-4.8c2.3,0.8,4.1,2.5,6.3,4
		c2.8,1.9,4.7,4.3,7.1,6.6c0.2,0.2,0.3,0.4,0.4,0.7c0.2,0.5,0.1,1,0.2,1.5c0.2,0.8,0.6,1.3,1.1,2c0.6,0.9,2.3,2.3,3.2,2.9"/>
	<path class="st6" d="M661.5,51.2h-0.1h0.4h-0.1c3.3-0.5,5.4,2.3,7.9,4.1c1.9,1.3,2.4,3.6,3.1,5.5c0.7,1.8,0.5,3.7,1.3,5.5
		c0.3,0.7,1,1.1,1.7,1.6c2.6,2.1,4.1,4.9,5.5,7.9c0.4,0.9,1.3,1.5,1.9,2.3c0.5,0.6,0.5,1.4,0.1,2.1c-0.4,0.7-1.1,1.2-1.9,1.4
		c-0.7,0.2-1.3-0.2-1.8-0.6c-0.7-0.6-1.7-0.6-2.2-1.5l0.1,0.2c0-0.2-0.3-0.1-0.2-0.4c-1-0.3-1.9-0.7-2.8-1.2c-0.6-0.3-1-0.9-1.3-1.5
		c-0.8-1.7-1.6-3.3-2.4-4.9c0.2,0.5,0.7,0.9,0.7,1.5c-0.9-0.3-1.9-0.5-2.7-1.1c-1.8-1.4-3.3-3-4.4-5c-0.1-0.2-0.1-0.6-0.1-0.6
		c-2.9,1.1-8.9,0-8.6,3.1c0.3,2.8-1.5,5-2.3,7.5c-0.4,1.4,1,2.3,1.6,3.4c1.1,2.1,0.1,4.7-0.9,6.8c0.7-1.3,2.4-1.4,3.2-0.2
		c-0.5-0.1-1,0.1-1.4,0.4c-0.8,0.6-0.3,1.7-0.9,2.6c-0.1,0.1-0.1,0.4,0.1,0.5c1.2,0.6,1.4,2,1,3.1c-0.6,1.6-2.5,2.5-4.1,1.7
		c-0.5-0.2-1-0.6-1.3-1.1c-0.3-0.7-0.4-2.1,0.1-2.7c0.4-0.5,0.5-0.5,0.9-0.9c-0.3,0.2-0.2,0.5-0.5,0.2c0.2-0.2,0.1-0.4,0.1-0.6
		c-0.2,0.5-0.6,0.6-0.6,1.1c-0.1,0.9-0.1,1.8-0.6,2.6c-0.3,0.5-0.7,0.8-1.1,0.9c-1.2,0.3-3,0.1-3.3-1.3c-0.3-1.2-0.3-2.6,0.9-3.3
		c0.9-0.5,1.7-0.6,2.8,0c-0.7-0.7-1.8-0.5-2.6-0.1c-1.1,0.6-1.8,2.2-1.1,3.2c-0.9,0.7-2.4,0.6-3.1-0.3c-0.6-0.7-0.9-1.6-0.6-2.5
		c0.3-1.1,1.6-1.7,2.6-1.8c0.8-0.1,1.4,0.9,2.1,0.5c1.2-0.7,2.3-2,2.1-3.5c-0.1-1.1-1-1.9-1.5-2.8c-0.4-0.7,0.1-1.5-0.1-2.2
		c-0.6-1.6-2.2-2.6-3.3-3.9c-0.3-0.3-0.4-0.6-0.5-1c-0.4-1.1-0.6-2.3-0.5-3.5c0.1-0.9,0.4-1.7,0.4-2.6c-0.1,0.8-0.6,1.5-0.3,2.2
		c-3.1-7.3,2.9-21.4,2.9-21.4s3.4,4.5,0.9,1.3c-2.5-3.2-5.9-10.9-4.3-18.4c1.5-7.5,9.6-5.6,12-4.8c2.3,0.8,4.1,2.5,6.3,4
		c2.8,1.9,4.7,4.3,7.1,6.6c0.2,0.2,0.3,0.4,0.4,0.7c0.2,0.5,0.1,1,0.2,1.5c0.2,0.8,0.6,1.3,1.1,2c0.6,0.9,2.3,2.3,3.2,2.9"/>
	
		<radialGradient id="SVGID_15_" cx="683.1184" cy="51.0102" r="16.0684" gradientTransform="matrix(1 0 0 -1 0 132)" gradientUnits="userSpaceOnUse">
		<stop  offset="0" style="stop-color:#FFFF00"/>
		<stop  offset="1" style="stop-color:#FF0066"/>
	</radialGradient>
	<path class="st21" d="M679.4,78c0.7,0.1,1.3,0.2,2,0.1c1.2,0,1.9-1.1,2.8-1.8c0.5,2.2,2.8,3,4.3,4.2c-1.4,0.6-1.7,2.3-1.6,3.7
		c-1.8,0.9-3.2,2.4-4.1,4.2c-0.7-0.7-1.7-0.7-2.5-0.9c0.3-2.8-2.2-4.8-3.7-7c1.4-0.5,2.3-1.6,3.1-2.7C679.7,78,679.6,78,679.4,78"/>
	<path class="st6" d="M679.4,78c0.7,0.1,1.3,0.2,2,0.1c1.2,0,1.9-1.1,2.8-1.8c0.5,2.2,2.8,3,4.3,4.2c-1.4,0.6-1.7,2.3-1.6,3.7
		c-1.8,0.9-3.2,2.4-4.1,4.2c-0.7-0.7-1.7-0.7-2.5-0.9c0.3-2.8-2.2-4.8-3.7-7c1.4-0.5,2.3-1.6,3.1-2.7C679.7,78,679.6,78,679.4,78z"
		/>
	
		<radialGradient id="SVGID_16_" cx="683.1184" cy="51.0102" r="16.0684" gradientTransform="matrix(1 0 0 -1 0 132)" gradientUnits="userSpaceOnUse">
		<stop  offset="0" style="stop-color:#FFFF00"/>
		<stop  offset="1" style="stop-color:#FF0066"/>
	</radialGradient>
	<path class="st22" d="M685,78.5c1.3,0,2.4-0.9,2.7-2.1c0.4-1.5-0.6-3-2.1-3.4c-1.5-0.4-3,0.6-3.4,2.1c-0.3,1.1,0.1,2.1,0.9,2.8"/>
	<path class="st6" d="M685,78.5c1.3,0,2.4-0.9,2.7-2.1c0.4-1.5-0.6-3-2.1-3.4c-1.5-0.4-3,0.6-3.4,2.1c-0.3,1.1,0.1,2.1,0.9,2.8"/>
	
		<radialGradient id="SVGID_17_" cx="683.1184" cy="51.0102" r="16.0684" gradientTransform="matrix(1 0 0 -1 0 132)" gradientUnits="userSpaceOnUse">
		<stop  offset="0" style="stop-color:#FFFF00"/>
		<stop  offset="1" style="stop-color:#FF0066"/>
	</radialGradient>
	<path class="st23" d="M686.3,84.3c0.2,0.2,0.5,0.4,0.9,0.5c1.3,0.3,2.6-0.7,3-2.3c0.4-1.6-0.3-3.2-1.6-3.5
		c-0.8-0.2-1.7,0.2-2.3,0.9"/>
	<path class="st6" d="M686.3,84.3c0.2,0.2,0.5,0.4,0.9,0.5c1.3,0.3,2.6-0.7,3-2.3c0.4-1.6-0.3-3.2-1.6-3.5c-0.8-0.2-1.7,0.2-2.3,0.9
		"/>
	
		<radialGradient id="SVGID_18_" cx="683.1184" cy="51.0102" r="16.0677" gradientTransform="matrix(1 0 0 -1 0 132)" gradientUnits="userSpaceOnUse">
		<stop  offset="0" style="stop-color:#FFFF00"/>
		<stop  offset="1" style="stop-color:#FF0066"/>
	</radialGradient>
	<path class="st24" d="M680.7,85.8c-0.7,0.4-1.2,1-1.4,1.8c-0.4,1.5,0.5,3,1.9,3.3c1.4,0.3,2.8-0.6,3.2-2.1c0.2-0.9,0-1.9-0.6-2.5"
		/>
	<path class="st6" d="M680.7,85.8c-0.7,0.4-1.2,1-1.4,1.8c-0.4,1.5,0.5,3,1.9,3.3c1.4,0.3,2.8-0.6,3.2-2.1c0.2-0.9,0-1.9-0.6-2.5"/>
	
		<radialGradient id="SVGID_19_" cx="683.1184" cy="51.0102" r="16.0684" gradientTransform="matrix(1 0 0 -1 0 132)" gradientUnits="userSpaceOnUse">
		<stop  offset="0" style="stop-color:#FFFF00"/>
		<stop  offset="1" style="stop-color:#FF0066"/>
	</radialGradient>
	<path class="st25" d="M681.4,78.7c0.1-1.5-0.9-3-2.4-3.4c-1.7-0.4-3.4,0.6-3.8,2.4c-0.4,1.7,0.6,3.4,2.4,3.8c0.2,0,0.4,0.1,0.5,0.1
		"/>
	<path class="st6" d="M681.4,78.7c0.1-1.5-0.9-3-2.4-3.4c-1.7-0.4-3.4,0.6-3.8,2.4c-0.4,1.7,0.6,3.4,2.4,3.8c0.2,0,0.4,0.1,0.5,0.1"
		/>
	<path class="st6" d="M665,44.9c1.8-0.2,4.2-0.5,5.4,1.2"/>
	
		<radialGradient id="SVGID_20_" cx="651.2856" cy="62.8577" r="29.7473" gradientTransform="matrix(1 0 0 -1 0 132)" gradientUnits="userSpaceOnUse">
		<stop  offset="0" style="stop-color:#FFFF00"/>
		<stop  offset="1" style="stop-color:#FF0066"/>
	</radialGradient>
	<path class="st26" d="M656.2,70.3c0.4,1.5,0.7,3,2,4c0.8,0.6,1.6,1.1,2.5,1.4c1.7,0.6,4.9,1,5-1.3c0.1-1-1.1-1.7-1.5-2.6
		c-0.6-1.2-0.8-2.5-1.3-3.8"/>
	<path class="st6" d="M656.2,70.3c0.4,1.5,0.7,3,2,4c0.8,0.6,1.6,1.1,2.5,1.4c1.7,0.6,4.9,1,5-1.3c0.1-1-1.1-1.7-1.5-2.6
		c-0.6-1.2-0.8-2.5-1.3-3.8"/>
	
		<linearGradient id="SVGID_21_" gradientUnits="userSpaceOnUse" x1="653.0593" y1="110.4029" x2="659.3514" y2="55.8066" gradientTransform="matrix(1 0 0 -1 0 132)">
		<stop  offset="0" style="stop-color:#1A1AFF"/>
		<stop  offset="0.5" style="stop-color:#FF0033"/>
		<stop  offset="1" style="stop-color:#FFF500"/>
	</linearGradient>
	<path class="st27" d="M653.4,35.6c-0.4-0.1-0.7-0.2-1.1-0.4c-0.7-0.4-1.4-0.1-2.1,0.2c-1.2,0.6-1.6,1.8-2.2,2.9
		c-1.2,2.5-1.2,5.3-0.5,7.9c0.4,1.4,1,2.7,1.8,4c1.6,2.6,3.9,4.3,5.7,6.9c1.1,1.6,1.7,3.4,1.4,5.4c-0.1-1.1-1-1.5-1.8-1.8
		c-0.5-0.2-1.2-0.2-1.4,0.2c-1,1.6-0.9,3.5-0.7,5.4c0.1,1.5,0.9,2.8,1.9,4c0.1,0.1,0.2-0.1,0-0.1c3.4,2.2,7.6-0.1,9.9-3.1
		c1.1-1.4,1.7-3,1.9-4.7c0.1-0.9,0.2-2.2-0.7-2.6c-1-0.5-2,0.2-2.3,1.3c-0.2-0.7-0.9-0.8-1.1-1.4c-1-2.6,0.3-5.2-0.1-7.8
		c-0.2-1.1-0.4-2.1-1-3.1"/>
	<path class="st6" d="M653.4,35.6c-0.4-0.1-0.7-0.2-1.1-0.4c-0.7-0.4-1.4-0.1-2.1,0.2c-1.2,0.6-1.6,1.8-2.2,2.9
		c-1.2,2.5-1.2,5.3-0.5,7.9c0.4,1.4,1,2.7,1.8,4c1.6,2.6,3.9,4.3,5.7,6.9c1.1,1.6,1.7,3.4,1.4,5.4c-0.1-1.1-1-1.5-1.8-1.8
		c-0.5-0.2-1.2-0.2-1.4,0.2c-1,1.6-0.9,3.5-0.7,5.4c0.1,1.5,0.9,2.8,1.9,4c0.1,0.1,0.2-0.1,0-0.1c3.4,2.2,7.6-0.1,9.9-3.1
		c1.1-1.4,1.7-3,1.9-4.7c0.1-0.9,0.2-2.2-0.7-2.6c-1-0.5-2,0.2-2.3,1.3c-0.2-0.7-0.9-0.8-1.1-1.4c-1-2.6,0.3-5.2-0.1-7.8
		c-0.2-1.1-0.4-2.1-1-3.1"/>
	
		<radialGradient id="SVGID_22_" cx="661.1191" cy="57.1938" r="41.1226" gradientTransform="matrix(1 0 0 -1 0 132)" gradientUnits="userSpaceOnUse">
		<stop  offset="0" style="stop-color:#FFFF00"/>
		<stop  offset="1" style="stop-color:#40FF40"/>
	</radialGradient>
	<path class="st28" d="M654.6,37c-0.4,0.1-0.6,0.4-0.8,0.7c-0.5,1.3,0.7,2.1,1.7,2.8c-0.8-0.3-1.3-1.2-2.2-1.3
		c-0.2,1.4-0.3,2.8,0.3,4.1c0.6,1.2,1.2,2.3,2,3.4c1.1,1.4,2.2,2.7,3.7,3.7c0.4,0.2,0.8,0.3,1.2,0.4c1.5,0.4,3.1-0.1,4.6,0.4
		c1,0.3,1.9,0.7,2.7,1.4c0.4,0.4,0.6,1,1,1.2c0.7,0.3,1.5,0.6,2.3,0.3c0.7-0.3,0.9-1.3,0.8-2c0,0-0.8,0.3-2.2-0.8"/>
	<path class="st6" d="M654.6,37c-0.4,0.1-0.6,0.4-0.8,0.7c-0.5,1.3,0.7,2.1,1.7,2.8c-0.8-0.3-1.3-1.2-2.2-1.3
		c-0.2,1.4-0.3,2.8,0.3,4.1c0.6,1.2,1.2,2.3,2,3.4c1.1,1.4,2.2,2.7,3.7,3.7c0.4,0.2,0.8,0.3,1.2,0.4c1.5,0.4,3.1-0.1,4.6,0.4
		c1,0.3,1.9,0.7,2.7,1.4c0.4,0.4,0.6,1,1,1.2c0.7,0.3,1.5,0.6,2.3,0.3c0.7-0.3,0.9-1.3,0.8-2c0,0-0.8,0.3-2.2-0.8"/>
	<path class="st29" d="M668.4,49.2c-3.8-1.1-8.3-3.6-11.5-6c1.8,1.2,3.2,2.7,4.9,4.1c2.4,2.1,4.6,4.3,7.9,5c0.7,0.2,1.6,0.1,2.2-0.3
		c-0.7-0.2-1-1.3-1.5-1.9"/>
	<path class="st6" d="M668.4,49.2c-3.8-1.1-8.3-3.6-11.5-6c1.8,1.2,3.2,2.7,4.9,4.1c2.4,2.1,4.6,4.3,7.9,5c0.7,0.2,1.6,0.1,2.2-0.3
		c-0.7-0.2-1-1.3-1.5-1.9"/>
	<path class="st30" d="M660.7,46.3c1.3,0.1,1.6,0.4,2.8,1c1.8,1,2.6,3.6,5,3.5c-0.6,0.7-1.1,0.6-1.6,0.4
		C664.1,49.8,660.7,46.3,660.7,46.3"/>
	<path class="st6" d="M660.7,46.3c1.3,0.1,1.6,0.4,2.8,1c1.8,1,2.6,3.6,5,3.5c-0.6,0.7-1.1,0.6-1.6,0.4
		C664.1,49.8,660.7,46.3,660.7,46.3z"/>
	<path class="st19" d="M667.7,43.3c0-0.6,0.4-1.3,0-1.8c-1.1-1.3-2.9-1.1-4.4-1.6c-0.5-0.2-0.8-0.7-0.6-1.2
		c-1.1,0.1-0.8,1.8-1.5,2.3c-1,0.7-2.3,0.5-3.6,0.5c0,0.1,0,0.3,0,0.3c0.4,0.3,0.9,0.6,1.4,0.7"/>
	<path class="st6" d="M667.7,43.3c0-0.6,0.4-1.3,0-1.8c-1.1-1.3-2.9-1.1-4.4-1.6c-0.5-0.2-0.8-0.7-0.6-1.2c-1.1,0.1-0.8,1.8-1.5,2.3
		c-1,0.7-2.3,0.5-3.6,0.5c0,0.1,0,0.3,0,0.3c0.4,0.3,0.9,0.6,1.4,0.7"/>
	<path class="st31" d="M659,42.3c0.6,0.3,1.3,0.4,1.9,0.3c1.2-0.3,2.5-0.8,3.5-0.2c0.7,0.4,1.2,0.9,1.8,1.5c-0.2,0-0.4-0.1-0.6,0
		c-1.1,0.6-2.2,1.2-3.4,0.9C660.9,44.4,660.2,43,659,42.3"/>
	<path class="st6" d="M659,42.3c0.6,0.3,1.3,0.4,1.9,0.3c1.2-0.3,2.5-0.8,3.5-0.2c0.7,0.4,1.2,0.9,1.8,1.5c-0.2,0-0.4-0.1-0.6,0
		c-1.1,0.6-2.2,1.2-3.4,0.9C660.9,44.4,660.2,43,659,42.3z"/>
	
		<radialGradient id="SVGID_23_" cx="661.7233" cy="88.8841" r="3.5874" fx="662.4172" fy="88.8313" gradientTransform="matrix(1 0 0 -1 0 132)" gradientUnits="userSpaceOnUse">
		<stop  offset="0" style="stop-color:#FFFF00"/>
		<stop  offset="1" style="stop-color:#FF0066"/>
	</radialGradient>
	<path class="st32" d="M662.7,44.6c0.7,0,1.3-0.5,1.3-1.2c0-0.6-0.6-1.2-1.3-1.2c-0.7,0-1.3,0.5-1.3,1.2
		C661.4,44.1,662,44.6,662.7,44.6"/>
	<path class="st33" d="M662.7,44.6c0.7,0,1.3-0.5,1.3-1.2c0-0.6-0.6-1.2-1.3-1.2c-0.7,0-1.3,0.5-1.3,1.2
		C661.4,44.1,662,44.6,662.7,44.6z"/>
	
		<radialGradient id="SVGID_24_" cx="661.1191" cy="57.1938" r="41.1226" gradientTransform="matrix(1 0 0 -1 0 132)" gradientUnits="userSpaceOnUse">
		<stop  offset="0" style="stop-color:#FFFF00"/>
		<stop  offset="1" style="stop-color:#40FF40"/>
	</radialGradient>
	<path class="st34" d="M667.3,47.7c-0.2,0.4-0.3,0.9-0.1,1.4c0.4,1,1.1,1.7,2.2,2c0.9,0.2,1.6-0.3,2.5-0.4c0.9-0.1,1.7,0.2,2.5,0.6
		c0-0.7,0.4-1.4,0.4-2.1c0.1-0.8,0.1-1.6-0.2-2.3c-0.3-0.7-0.7-1.3-1.3-1.7c-0.7-0.5-1.6-0.5-2.4-0.3"/>
	<path class="st6" d="M667.3,47.7c-0.2,0.4-0.3,0.9-0.1,1.4c0.4,1,1.1,1.7,2.2,2c0.9,0.2,1.6-0.3,2.5-0.4c0.9-0.1,1.7,0.2,2.5,0.6
		c0-0.7,0.4-1.4,0.4-2.1c0.1-0.8,0.1-1.6-0.2-2.3c-0.3-0.7-0.7-1.3-1.3-1.7c-0.7-0.5-1.6-0.5-2.4-0.3"/>
	
		<radialGradient id="SVGID_25_" cx="668.3285" cy="89.1978" r="6.2545" gradientTransform="matrix(1 0 0 -1 0 132)" gradientUnits="userSpaceOnUse">
		<stop  offset="0" style="stop-color:#FFFF00"/>
		<stop  offset="1" style="stop-color:#40FF40"/>
	</radialGradient>
	<path class="st35" d="M671.7,48c-0.5-1.1-1.7-1.8-2.9-1.5c-0.7,0.2-1.2,0.6-1.5,1.2"/>
	<path class="st6" d="M671.7,48c-0.5-1.1-1.7-1.8-2.9-1.5c-0.7,0.2-1.2,0.6-1.5,1.2"/>
	
		<radialGradient id="SVGID_26_" cx="661.1191" cy="57.1938" r="41.1226" gradientTransform="matrix(1 0 0 -1 0 132)" gradientUnits="userSpaceOnUse">
		<stop  offset="0" style="stop-color:#FFFF00"/>
		<stop  offset="1" style="stop-color:#40FF40"/>
	</radialGradient>
	<path class="st36" d="M669,49.6c-0.5-0.4-1-0.8-0.8-1.5c0.1-0.4,0.5-0.5,0.8-0.7c0.7-0.3,1.4,0.1,1.7,0.8c0.2,0.5,0.2,1.3-0.4,1.5
		c0.6-0.5,0.4-1.9-0.5-1.5c-0.1,0.1-0.5,0.3-0.4,0.6c0,0,0.1,0,0.1,0"/>
	<path class="st6" d="M669,49.6c-0.5-0.4-1-0.8-0.8-1.5c0.1-0.4,0.5-0.5,0.8-0.7c0.7-0.3,1.4,0.1,1.7,0.8c0.2,0.5,0.2,1.3-0.4,1.5
		c0.6-0.5,0.4-1.9-0.5-1.5c-0.1,0.1-0.5,0.3-0.4,0.6c0,0,0.1,0,0.1,0"/>
	
		<linearGradient id="SVGID_27_" gradientUnits="userSpaceOnUse" x1="662.8466" y1="90.9992" x2="649.6301" y2="104.6879" gradientTransform="matrix(1 0 0 -1 0 132)">
		<stop  offset="0" style="stop-color:#FFFFFF"/>
		<stop  offset="1" style="stop-color:#000000"/>
	</linearGradient>
	<path class="st37" d="M653.8,36c1.5,0.7,1.8,2.3,2.5,3.6c0.6,1.2,2.1,1.3,3.2,0.9c1.3-0.5,2-2,1-3.1c0.2,0.3,0.8,0.2,1,0.4
		c0-0.8-0.5-1.4-1-2c-1-1.2-1.9-2.6-3.4-3c-5.3-1.7-7.6-7.6-8-11.9c-1,1.5-1,3.3-0.8,5c1.3,7.7,2.8,7.4,5.1,10.9
		c0.4,0.7,1.5,1.6,2.4,1.6c0,0-0.3-0.8-0.3-0.8"/>
	<path class="st6" d="M653.8,36c1.5,0.7,1.8,2.3,2.5,3.6c0.6,1.2,2.1,1.3,3.2,0.9c1.3-0.5,2-2,1-3.1c0.2,0.3,0.8,0.2,1,0.4
		c0-0.8-0.5-1.4-1-2c-1-1.2-1.9-2.6-3.4-3c-5.3-1.7-7.6-7.6-8-11.9c-1,1.5-1,3.3-0.8,5c1.3,7.7,2.8,7.4,5.1,10.9
		c0.4,0.7,1.5,1.6,2.4,1.6c0,0-0.3-0.8-0.3-0.8"/>
	<path class="st38" d="M635.7,84.8c0.7,0.3,0.9,0.9,0.6,2c-0.2,1.1-1.9,0-2.1,1.4C634.4,85.7,635.7,84.8,635.7,84.8"/>
	<path class="st6" d="M635.7,84.8c0.7,0.3,0.9,0.9,0.6,2c-0.2,1.1-1.9,0-2.1,1.4C634.4,85.7,635.7,84.8,635.7,84.8z"/>
	<path class="st38" d="M639.3,85.6c1,0.2,1.1,0.7,1,1.8c-0.1,1.1-2,0.3-2.1,1.7C638.1,86.8,639.3,85.6,639.3,85.6"/>
	<path class="st6" d="M639.3,85.6c1,0.2,1.1,0.7,1,1.8c-0.1,1.1-2,0.3-2.1,1.7C638.1,86.8,639.3,85.6,639.3,85.6z"/>
	<path class="st38" d="M642.5,90.4c1,0.2,1.1,0.7,1,1.8c-0.1,1.1-1.6,0.5-2,2.5C640.9,91.3,642.5,90.4,642.5,90.4"/>
	<path class="st6" d="M642.5,90.4c1,0.2,1.1,0.7,1,1.8c-0.1,1.1-1.6,0.5-2,2.5C640.9,91.3,642.5,90.4,642.5,90.4z"/>
	<path class="st38" d="M646.5,91.9c1.1,0.1,1.2,0.7,1.1,1.8c-0.1,1.1-1.6,0.6-2,2.6C644.9,92.9,646.5,91.9,646.5,91.9"/>
	<path class="st6" d="M646.5,91.9c1.1,0.1,1.2,0.7,1.1,1.8c-0.1,1.1-1.6,0.6-2,2.6C644.9,92.9,646.5,91.9,646.5,91.9z"/>
	<path class="st38" d="M652.7,96.8c0.2-2.4,1.6-2.6,1.6-3.3c0-0.7-0.6-1.3-1.3-1.3c-0.7,0-1.3,0.6-1.3,1.3
		C651.6,94.3,652.7,94.5,652.7,96.8"/>
	<path class="st6" d="M652.7,96.8c0.2-2.4,1.6-2.6,1.6-3.3c0-0.7-0.6-1.3-1.3-1.3c-0.7,0-1.3,0.6-1.3,1.3
		C651.6,94.3,652.7,94.5,652.7,96.8z"/>
	<path class="st38" d="M678,78.3c1.2-0.3,1.1,1.4,0.8,3.4c0.4-0.2,1.3-2,1.3-3.1c0-0.9-0.6-1.7-1.5-1.9c-0.9-0.2-1.8,0.3-2,1.2
		c-0.2,0.9,0.3,1.8,1.2,2c0.2,0.1,0.7-0.1,1.3-0.6l-0.2-0.8"/>
	<path class="st6" d="M678,78.3c1.2-0.3,1.1,1.4,0.8,3.4c0.4-0.2,1.3-2,1.3-3.1c0-0.9-0.6-1.7-1.5-1.9c-0.9-0.2-1.8,0.3-2,1.2
		c-0.2,0.9,0.3,1.8,1.2,2c0.2,0.1,0.7-0.1,1.3-0.6l-0.2-0.8"/>
	<path class="st38" d="M685.1,75.6c1.1-0.3,1,1.4,0.7,3.3c0.3-0.2,1.2-2,1.3-3.1c0.1-0.9-0.6-1.7-1.4-1.9c-0.8-0.2-1.7,0.4-1.9,1.3
		c-0.2,0.9,0.3,1.8,1.1,2c0.2,0,0.7-0.1,1.2-0.6l-0.2-0.8"/>
	<path class="st6" d="M685.1,75.6c1.1-0.3,1,1.4,0.7,3.3c0.3-0.2,1.2-2,1.3-3.1c0.1-0.9-0.6-1.7-1.4-1.9c-0.8-0.2-1.7,0.4-1.9,1.3
		c-0.2,0.9,0.3,1.8,1.1,2c0.2,0,0.7-0.1,1.2-0.6l-0.2-0.8"/>
	<path class="st38" d="M687.9,81.8c1.1-0.3,1.1,0.9,0.8,2.9c0.3-0.2,1.1-1.5,1.2-2.6c0.1-0.9-0.6-1.7-1.4-1.9
		c-0.8-0.2-1.7,0.4-1.9,1.3c-0.2,0.9,0.3,1.8,1.1,2c0.2,0,0.7-0.1,1.2-0.6l-0.2-0.8"/>
	<path class="st6" d="M687.9,81.8c1.1-0.3,1.1,0.9,0.8,2.9c0.3-0.2,1.1-1.5,1.2-2.6c0.1-0.9-0.6-1.7-1.4-1.9
		c-0.8-0.2-1.7,0.4-1.9,1.3c-0.2,0.9,0.3,1.8,1.1,2c0.2,0,0.7-0.1,1.2-0.6l-0.2-0.8"/>
	<path class="st38" d="M681.7,88.5c1.1-0.3,1.1,0.9,0.8,2.9c0.3-0.2,1.1-1.5,1.2-2.6c0.1-0.9-0.6-1.7-1.4-1.9
		c-0.8-0.2-1.7,0.4-1.9,1.3c-0.2,0.9,0.3,1.8,1.1,2c0.2,0.1,0.7-0.1,1.2-0.6l-0.2-0.8"/>
	<path class="st6" d="M681.7,88.5c1.1-0.3,1.1,0.9,0.8,2.9c0.3-0.2,1.1-1.5,1.2-2.6c0.1-0.9-0.6-1.7-1.4-1.9
		c-0.8-0.2-1.7,0.4-1.9,1.3c-0.2,0.9,0.3,1.8,1.1,2c0.2,0.1,0.7-0.1,1.2-0.6l-0.2-0.8"/>
	
		<radialGradient id="SVGID_28_" cx="655.9266" cy="55.5419" r="23.0568" gradientTransform="matrix(1 0 0 -1 0 132)" gradientUnits="userSpaceOnUse">
		<stop  offset="0" style="stop-color:#FFFF00"/>
		<stop  offset="1" style="stop-color:#40FF40"/>
	</radialGradient>
	<path class="st39" d="M670.3,79.3c0.4-0.3,0.8-0.8,1.4-0.7c0.4,0.1,0.8,0.3,0.9,0.7c0.2,0.7,0,1.3-0.7,1.6
		c-0.1,0.1-0.3,0.1-0.5-0.1"/>
	<path class="st6" d="M670.3,79.3c0.4-0.3,0.8-0.8,1.4-0.7c0.4,0.1,0.8,0.3,0.9,0.7c0.2,0.7,0,1.3-0.7,1.6c-0.1,0.1-0.3,0.1-0.5-0.1
		"/>
	<path class="st38" d="M672.2,79.5c-0.7,0.1-0.7,0.4-0.7,1.2c0.1,0.7,1.3,0.2,1.3,1.1C672.9,80.2,672.2,79.5,672.2,79.5"/>
	<path class="st6" d="M672.2,79.5c-0.7,0.1-0.7,0.4-0.7,1.2c0.1,0.7,1.3,0.2,1.3,1.1C672.9,80.2,672.2,79.5,672.2,79.5z"/>
	
		<radialGradient id="SVGID_29_" cx="655.9274" cy="55.5419" r="23.0568" gradientTransform="matrix(1 0 0 -1 0 132)" gradientUnits="userSpaceOnUse">
		<stop  offset="0" style="stop-color:#FFFF00"/>
		<stop  offset="1" style="stop-color:#40FF40"/>
	</radialGradient>
	<path class="st40" d="M670.7,80.6c0.1-0.5,0.8-0.5,1.2-0.4c0.3,0.1,0.6,0.4,0.7,0.7c0.1,0.4,0.1,0.9-0.1,1.3
		c-0.3,0.5-1,0.9-1.6,0.7c-0.2-0.1-0.6-0.2-0.5-0.5"/>
	<path class="st6" d="M670.7,80.6c0.1-0.5,0.8-0.5,1.2-0.4c0.3,0.1,0.6,0.4,0.7,0.7c0.1,0.4,0.1,0.9-0.1,1.3c-0.3,0.5-1,0.9-1.6,0.7
		c-0.2-0.1-0.6-0.2-0.5-0.5"/>
	<path class="st38" d="M671.9,81c-0.7,0.1-0.7,0.4-0.7,1.2c0.1,0.7,1.3,0.2,1.3,1.1C672.7,81.7,671.9,81,671.9,81"/>
	<path class="st6" d="M671.9,81c-0.7,0.1-0.7,0.4-0.7,1.2c0.1,0.7,1.3,0.2,1.3,1.1C672.7,81.7,671.9,81,671.9,81z"/>
	
		<radialGradient id="SVGID_30_" cx="655.9274" cy="55.5419" r="23.0591" gradientTransform="matrix(1 0 0 -1 0 132)" gradientUnits="userSpaceOnUse">
		<stop  offset="0" style="stop-color:#FFFF00"/>
		<stop  offset="1" style="stop-color:#40FF40"/>
	</radialGradient>
	<path class="st41" d="M668.2,80.2c0.7-0.6,1.6-0.4,2,0.4c0.3,0.5,0.5,1.1,0.3,1.7c-0.1,0.5-0.5,0.9-1,1.2c-1.5,0.7-2.6-1-2.8-2.3"
		/>
	<path class="st6" d="M668.2,80.2c0.7-0.6,1.6-0.4,2,0.4c0.3,0.5,0.5,1.1,0.3,1.7c-0.1,0.5-0.5,0.9-1,1.2c-1.5,0.7-2.6-1-2.8-2.3"/>
	<path class="st38" d="M669.5,81.3c-0.8,0.1-0.9,0.6-0.8,1.5c0.1,0.9,1.6,0.2,1.7,1.4C670.4,82.1,669.5,81.3,669.5,81.3"/>
	<path class="st6" d="M669.5,81.3c-0.8,0.1-0.9,0.6-0.8,1.5c0.1,0.9,1.6,0.2,1.7,1.4C670.4,82.1,669.5,81.3,669.5,81.3z"/>
</g>
<text transform="matrix(1 0 0 1 464.288 31.5937)" class="st1 st42 st43">Helping ceramic </text>
<text transform="matrix(1 0 0 1 445.483 47.5937)" class="st1 st42 st43">technicians around the </text>
<text transform="matrix(1 0 0 1 448.377 63.5937)" class="st1 st42 st43">world fight the dragon </text>
<text transform="matrix(1 0 0 1 479.449 79.5937)" class="st1 st42 st43">since 1980</text>
</svg>
