<?xml version="1.0" encoding="UTF-8"?>
<svg xmlns="http://www.w3.org/2000/svg" width="109.1" height="85.6" xmlns:xlink="http://www.w3.org/1999/xlink" version="1.1" viewBox="0 0 109.1 85.6">
  <defs>
    <style>
      .cls-1 {
        fill: #fff;
        stroke: #000;
        stroke-miterlimit: 10;
        stroke-width: 8px;
      }

      .cls-2 {
        isolation: isolate;
      }

      .cls-3 {
        fill: #ff5a16;
      }

      .cls-4 {
        display: none;
      }
    </style>
  </defs>
  <!-- Generator: Adobe Illustrator 28.7.1, SVG Export Plug-In . SVG Version: 1.2.0 Build 142)  -->
  <g>
    <g id="Layer_1">
      <g>
        <g id="Layer_1-2" data-name="Layer_1" class="cls-4">
          <image class="cls-2" width="161" height="130" transform="translate(-5.9 -5.4) scale(.8)" xlink:href="logomarkLogo1.png"/>
        </g>
        <g id="Layer_2">
          <path class="cls-1" d="M54.4,6.9h21.6c6.8,0,26.1,2.1,26.4,22.6s-17.2,22.3-21.4,22.3c-.9,6.3-9.5,27.1-29.1,27.1h-16.4c-5.4,0-28.9-8.1-28.9-33.5s0-10.8,0-19.9S12.9,6.8,27.4,6.8h27.1,0Z"/>
          <path d="M81.1,20.6c2.9,0,7.5,2.1,7.5,8.3s-2.7,9.3-6.5,9.3-5.1-.3-5.1-3.7v-10.3c0-1.8.9-3.7,4.1-3.7h0Z"/>
          <path class="cls-3" d="M44.9,62c-9.7-4.5-22.8-15.9-23.1-25.4-.3-9.5,6.6-14.9,11.5-15s8.1,1.3,11.6,5.6c3.5-4.3,6.7-5.7,11.6-5.6s11.8,5.5,11.5,15-13.4,20.9-23.1,25.4Z"/>
        </g>
      </g>
    </g>
  </g>
</svg>