<?xml version="1.0" encoding="UTF-8"?>
<!DOCTYPE svg PUBLIC "-//W3C//DTD SVG 1.1//EN" "http://www.w3.org/Graphics/SVG/1.1/DTD/svg11.dtd">
<svg version="1.1" xmlns="http://www.w3.org/2000/svg" xmlns:xlink="http://www.w3.org/1999/xlink" x="0px" y="0px" width="310" height="95" viewBox="0, 0, 310, 95">
  <g id="Background">
    <rect x="0" y="0" width="310" height="95" fill="#FFFFFF"/>
  </g>
  <g id="Layer_1">
    <path d="M39.247,90.247 C57.678,90.247 73.011,82.169 73.011,54.732 C73.011,27.293 57.678,5.05 39.247,5.05 C20.815,5.05 5.483,27.293 5.483,54.732 C5.483,82.169 20.815,90.247 39.247,90.247" fill="#D8127D"/>
    <path d="M39.17,87.076 C53.348,87.076 64.842,73.677 64.842,52.572 C64.842,31.466 53.348,14.355 39.17,14.355 C24.992,14.355 13.497,31.466 13.497,52.572 C13.497,73.677 24.992,87.076 39.17,87.076" fill="#636463"/>
    <path d="M39.17,87.076 C53.348,87.076 64.842,73.677 64.842,52.572 C64.842,31.466 53.348,14.355 39.17,14.355 C24.992,14.355 13.497,31.466 13.497,52.572 C13.497,73.677 24.992,87.076 39.17,87.076 z" fill-opacity="0" stroke="#FFFFFE" stroke-width="0.366"/>
    <path d="M11.369,52.102 L11.493,49.82 C11.508,49.546 11.479,49.239 11.407,48.897 C11.355,48.647 11.235,48.409 11.05,48.184 C10.863,47.958 10.626,47.777 10.341,47.64 C10.054,47.503 9.646,47.42 9.114,47.391 C8.775,47.374 8.452,47.396 8.145,47.462 C7.837,47.526 7.564,47.643 7.326,47.812 C7.089,47.981 6.9,48.2 6.764,48.471 C6.626,48.74 6.546,49.101 6.521,49.551 L6.397,51.833 z M7.627,49.975 C7.649,49.576 7.762,49.297 7.965,49.136 C8.169,48.974 8.534,48.907 9.061,48.937 C9.459,48.958 9.745,49.012 9.919,49.098 C10.092,49.186 10.21,49.298 10.273,49.438 C10.338,49.577 10.361,49.808 10.343,50.128 L10.323,50.505 L7.607,50.357 z" fill="#FFFFFE"/>
    <path d="M11.403,46.376 C11.744,46.061 11.953,45.617 12.031,45.042 C12.119,44.398 12.012,43.87 11.711,43.457 C11.409,43.045 10.983,42.802 10.434,42.726 C9.945,42.66 9.513,42.751 9.139,42.999 C8.674,43.308 8.392,43.821 8.294,44.537 C8.209,45.163 8.319,45.684 8.622,46.1 C8.925,46.516 9.349,46.761 9.894,46.836 C10.48,46.915 10.983,46.762 11.403,46.376 M9.403,45.171 C9.267,45.019 9.212,44.845 9.24,44.644 C9.265,44.456 9.363,44.308 9.532,44.201 C9.702,44.094 9.94,44.061 10.25,44.103 C10.582,44.149 10.815,44.245 10.947,44.392 C11.08,44.539 11.134,44.712 11.106,44.909 C11.08,45.104 10.982,45.256 10.811,45.365 C10.642,45.473 10.396,45.505 10.078,45.462 C9.764,45.419 9.539,45.322 9.403,45.171" fill="#FFFFFE"/>
    <path d="M8.816,41.639 L9.089,40.381 L9.664,40.506 C9.47,40.267 9.344,40.04 9.285,39.826 C9.226,39.611 9.227,39.366 9.287,39.089 C9.368,38.715 9.543,38.446 9.812,38.283 C10.08,38.12 10.446,38.089 10.911,38.191 L13.153,38.677 L12.857,40.035 L10.918,39.613 C10.697,39.566 10.531,39.573 10.422,39.635 C10.312,39.697 10.241,39.802 10.209,39.95 C10.173,40.114 10.206,40.26 10.308,40.389 C10.411,40.518 10.622,40.617 10.943,40.687 L12.636,41.055 L12.343,42.405 z" fill="#FFFFFE"/>
    <path d="M8.537,36.74 L8.907,35.41 L9.701,35.63 L10.614,36.112 L10.362,37.016 L9.329,36.961 z" fill="#FFFFFE"/>
    <path d="M9.67,33 L10.974,33.431 L11.212,32.708 L12.17,33.024 L11.933,33.746 L13.148,34.148 C13.294,34.197 13.396,34.214 13.453,34.202 C13.54,34.183 13.602,34.119 13.637,34.013 C13.669,33.916 13.686,33.771 13.687,33.578 L14.626,33.78 C14.589,34.128 14.525,34.443 14.432,34.725 C14.324,35.052 14.202,35.279 14.068,35.406 C13.932,35.534 13.768,35.607 13.572,35.624 C13.377,35.642 13.087,35.587 12.705,35.462 L11.498,35.063 L11.338,35.547 L10.379,35.231 L10.54,34.747 L9.91,34.539 z" fill="#FFFFFE"/>
    <path d="M13.021,28.292 L13.291,27.69 L14.215,28.105 L13.945,28.706 L16.314,29.77 L15.746,31.035 L13.378,29.972 L13.166,30.443 L12.242,30.028 L12.454,29.557 L12.304,29.49 C12.17,29.43 12.029,29.349 11.881,29.247 C11.733,29.145 11.625,29.033 11.559,28.907 C11.492,28.781 11.459,28.633 11.461,28.461 C11.463,28.289 11.526,28.065 11.649,27.787 C11.749,27.567 11.919,27.257 12.16,26.858 L12.86,27.34 C12.768,27.48 12.701,27.596 12.658,27.69 C12.607,27.802 12.59,27.893 12.606,27.959 C12.622,28.026 12.667,28.089 12.74,28.147 C12.781,28.177 12.874,28.226 13.021,28.292" fill="#FFFFFE"/>
    <path d="M13.612,27.074 L14.245,25.845 L17.451,27.498 L16.818,28.726 z M12.392,26.445 L13.025,25.217 L13.861,25.648 L13.228,26.877 z" fill="#FFFFFE"/>
    <path d="M16.509,23.035 C16.238,23.055 16.015,23.116 15.838,23.22 C15.661,23.325 15.498,23.496 15.35,23.735 C15.118,24.108 15.055,24.487 15.162,24.873 C15.268,25.26 15.56,25.601 16.036,25.898 C16.454,26.157 16.845,26.276 17.21,26.255 C17.724,26.226 18.108,26.006 18.363,25.598 C18.493,25.388 18.566,25.162 18.582,24.922 C18.592,24.769 18.565,24.591 18.501,24.391 L18.966,24.68 C19.19,24.82 19.321,24.96 19.359,25.1 C19.398,25.239 19.365,25.394 19.259,25.563 C19.179,25.694 19.08,25.784 18.967,25.833 C18.89,25.868 18.79,25.866 18.666,25.829 L17.827,26.888 C17.89,26.933 17.942,26.967 17.979,26.991 C18.29,27.183 18.608,27.222 18.934,27.107 C19.263,26.991 19.617,26.627 20,26.012 C20.168,25.743 20.293,25.489 20.374,25.251 C20.456,25.012 20.485,24.792 20.461,24.589 C20.438,24.387 20.365,24.191 20.241,24 C20.119,23.81 19.961,23.656 19.768,23.536 L19.632,23.455 L16.74,21.655 L16.056,22.754 z M16.396,24.312 C16.343,24.155 16.364,24.002 16.457,23.852 C16.55,23.701 16.688,23.611 16.871,23.582 C17.054,23.551 17.257,23.606 17.48,23.744 C17.703,23.883 17.838,24.036 17.887,24.204 C17.937,24.372 17.915,24.529 17.825,24.674 C17.73,24.829 17.598,24.92 17.434,24.947 C17.268,24.975 17.075,24.92 16.853,24.782 C16.601,24.625 16.45,24.469 16.396,24.312" fill="#FFFFFE"/>
    <path d="M16.319,19.864 L17.186,18.787 L18.615,19.937 C18.581,19.669 18.59,19.436 18.641,19.238 C18.692,19.041 18.797,18.844 18.956,18.646 C19.191,18.353 19.466,18.194 19.78,18.168 C20.094,18.144 20.435,18.279 20.804,18.576 L22.591,20.013 L21.72,21.096 L20.174,19.852 C19.997,19.711 19.846,19.643 19.721,19.65 C19.595,19.656 19.485,19.717 19.39,19.836 C19.285,19.967 19.249,20.112 19.282,20.273 C19.316,20.433 19.46,20.617 19.717,20.823 L21.066,21.908 L20.2,22.986 z" fill="#FFFFFE"/>
    <path d="M20.773,14.817 L21.737,15.795 L22.279,15.261 L22.987,15.98 L22.445,16.514 L23.343,17.426 C23.452,17.536 23.533,17.598 23.589,17.613 C23.676,17.636 23.759,17.608 23.841,17.529 C23.913,17.457 23.993,17.336 24.083,17.165 L24.826,17.774 C24.635,18.067 24.434,18.318 24.221,18.526 C23.976,18.768 23.765,18.915 23.587,18.966 C23.409,19.018 23.228,19.007 23.046,18.933 C22.864,18.86 22.632,18.68 22.349,18.392 L21.457,17.486 L21.094,17.844 L20.385,17.125 L20.749,16.768 L20.284,16.296 z" fill="#FFFFFE"/>
    <path d="M25.581,11.025 L26.34,12.168 L26.974,11.746 L27.532,12.586 L26.898,13.007 L27.607,14.074 C27.692,14.202 27.761,14.279 27.813,14.304 C27.893,14.343 27.981,14.331 28.075,14.268 C28.16,14.212 28.262,14.109 28.383,13.958 L28.995,14.697 C28.753,14.948 28.507,15.156 28.26,15.32 C27.973,15.51 27.737,15.614 27.553,15.631 C27.368,15.648 27.194,15.603 27.029,15.496 C26.864,15.389 26.671,15.168 26.448,14.832 L25.744,13.775 L25.32,14.056 L24.762,13.216 L25.186,12.935 L24.82,12.383 z" fill="#FFFFFE"/>
    <path d="M27.296,9.937 L28.555,9.366 L29.313,11.037 C29.404,10.782 29.517,10.577 29.651,10.424 C29.785,10.271 29.968,10.143 30.2,10.037 C30.542,9.881 30.859,9.864 31.15,9.982 C31.442,10.101 31.685,10.376 31.881,10.807 L32.829,12.896 L31.564,13.47 L30.744,11.664 C30.65,11.457 30.545,11.328 30.431,11.278 C30.315,11.226 30.189,11.233 30.051,11.295 C29.898,11.364 29.8,11.479 29.758,11.638 C29.716,11.795 29.762,12.024 29.898,12.324 L30.615,13.902 L29.356,14.474 z" fill="#FFFFFE"/>
    <path d="M36.939,10.299 C36.84,9.834 36.683,9.472 36.469,9.215 C36.254,8.958 35.985,8.784 35.66,8.694 C35.335,8.603 34.92,8.611 34.416,8.719 C33.794,8.852 33.342,9.126 33.062,9.543 C32.782,9.959 32.701,10.443 32.818,10.994 C32.9,11.381 33.061,11.699 33.298,11.949 C33.535,12.197 33.802,12.359 34.097,12.434 C34.393,12.509 34.774,12.495 35.242,12.396 C35.78,12.281 36.176,12.116 36.43,11.901 C36.686,11.686 36.877,11.38 37.006,10.982 L35.648,11.143 C35.586,11.268 35.523,11.358 35.46,11.416 C35.355,11.508 35.235,11.568 35.103,11.596 C34.892,11.642 34.706,11.601 34.543,11.476 C34.427,11.39 34.334,11.24 34.263,11.029 L36.972,10.451 z M34.128,10.381 C34.105,10.166 34.124,9.997 34.183,9.873 C34.275,9.675 34.428,9.553 34.643,9.507 C34.829,9.467 34.991,9.492 35.129,9.58 C35.266,9.669 35.377,9.842 35.46,10.097 z" fill="#FFFFFE"/>
    <path d="M42.129,12.001 L44.338,12.6 C44.602,12.671 44.91,12.707 45.259,12.708 C45.515,12.71 45.773,12.643 46.032,12.508 C46.293,12.372 46.518,12.179 46.713,11.928 C46.906,11.677 47.072,11.293 47.212,10.779 C47.301,10.451 47.346,10.129 47.346,9.815 C47.347,9.5 47.29,9.209 47.175,8.941 C47.06,8.672 46.884,8.443 46.647,8.253 C46.412,8.062 46.076,7.907 45.641,7.789 L43.432,7.191 z M44.995,8.784 C45.379,8.888 45.629,9.057 45.745,9.29 C45.861,9.523 45.849,9.894 45.711,10.404 C45.606,10.789 45.494,11.057 45.373,11.209 C45.252,11.361 45.117,11.453 44.967,11.487 C44.817,11.52 44.587,11.494 44.276,11.41 L43.911,11.312 L44.624,8.683 z" fill="#FFFFFE"/>
    <path d="M48.555,10.251 L49.716,10.824 L49.454,11.355 C49.679,11.18 49.872,11.079 50.034,11.051 C50.195,11.023 50.363,11.052 50.538,11.139 C50.721,11.229 50.893,11.384 51.055,11.605 L50.234,12.3 C50.118,12.167 50.017,12.08 49.932,12.037 C49.769,11.957 49.611,11.962 49.455,12.052 C49.233,12.178 48.996,12.5 48.74,13.019 L48.205,14.104 L46.959,13.49 z" fill="#FFFFFE"/>
    <path d="M52.361,13.363 C52.496,13.37 52.656,13.438 52.84,13.568 C52.985,13.67 53.066,13.769 53.084,13.865 C53.103,13.961 53.063,14.079 52.965,14.218 C52.785,14.174 52.62,14.125 52.47,14.07 C52.32,14.016 52.003,13.881 51.519,13.667 C51.116,13.488 50.797,13.424 50.564,13.476 C50.33,13.527 50.135,13.665 49.976,13.889 C49.808,14.128 49.757,14.393 49.825,14.685 C49.892,14.976 50.102,15.247 50.453,15.494 C50.718,15.681 50.979,15.805 51.237,15.864 C51.425,15.907 51.644,15.908 51.894,15.871 C51.846,15.965 51.815,16.036 51.8,16.086 C51.785,16.135 51.772,16.212 51.761,16.318 L52.822,17.067 C52.848,16.903 52.881,16.775 52.919,16.685 C52.957,16.593 53.025,16.478 53.123,16.339 L54.043,15.037 C54.14,14.898 54.215,14.732 54.267,14.541 C54.32,14.349 54.328,14.178 54.29,14.026 C54.238,13.809 54.122,13.609 53.944,13.426 C53.765,13.243 53.506,13.031 53.168,12.793 C52.957,12.644 52.75,12.521 52.546,12.424 C52.342,12.328 52.168,12.271 52.024,12.256 C51.823,12.233 51.647,12.249 51.493,12.304 C51.341,12.357 51.176,12.464 51.002,12.624 L52.002,13.501 C52.136,13.405 52.257,13.359 52.361,13.363 M52.436,14.968 C52.337,15.108 52.232,15.207 52.125,15.263 C52.018,15.319 51.889,15.339 51.737,15.323 C51.586,15.308 51.447,15.256 51.321,15.167 C51.201,15.082 51.13,14.989 51.107,14.889 C51.085,14.789 51.105,14.694 51.168,14.606 C51.224,14.528 51.304,14.48 51.41,14.464 C51.513,14.447 51.701,14.491 51.973,14.592 C52.171,14.668 52.369,14.732 52.563,14.788 z" fill="#FFFFFE"/>
    <path d="M57.103,16.95 C57.143,16.683 57.132,16.451 57.069,16.255 C57.005,16.059 56.874,15.863 56.673,15.666 C56.36,15.358 56.003,15.214 55.603,15.234 C55.202,15.252 54.805,15.463 54.411,15.863 C54.066,16.215 53.864,16.57 53.805,16.931 C53.721,17.44 53.852,17.864 54.196,18.201 C54.372,18.374 54.575,18.496 54.808,18.564 C54.955,18.608 55.134,18.62 55.343,18.6 L54.96,18.99 C54.775,19.179 54.609,19.277 54.463,19.284 C54.318,19.291 54.175,19.225 54.034,19.085 C53.924,18.977 53.857,18.861 53.833,18.74 C53.817,18.657 53.84,18.559 53.903,18.447 L53.053,17.396 C52.995,17.448 52.951,17.49 52.919,17.523 C52.663,17.783 52.555,18.085 52.596,18.43 C52.637,18.776 52.916,19.202 53.433,19.71 C53.659,19.932 53.88,20.109 54.095,20.241 C54.31,20.373 54.519,20.45 54.721,20.472 C54.924,20.493 55.132,20.464 55.345,20.385 C55.557,20.306 55.743,20.187 55.901,20.025 L56.012,19.909 L58.4,17.478 L57.477,16.57 z M55.88,16.562 C56.046,16.545 56.191,16.598 56.317,16.722 C56.443,16.846 56.501,17 56.49,17.185 C56.48,17.371 56.382,17.557 56.198,17.744 C56.014,17.932 55.835,18.031 55.66,18.043 C55.486,18.053 55.338,17.999 55.214,17.877 C55.085,17.751 55.025,17.603 55.034,17.436 C55.043,17.268 55.139,17.092 55.321,16.906 C55.529,16.695 55.716,16.579 55.88,16.562" fill="#FFFFFE"/>
    <path d="M56.889,20.721 C56.874,21.184 57.043,21.645 57.398,22.104 C57.795,22.619 58.245,22.913 58.751,22.989 C59.257,23.063 59.728,22.931 60.169,22.593 C60.559,22.291 60.797,21.92 60.883,21.479 C60.99,20.931 60.822,20.371 60.381,19.799 C59.996,19.298 59.548,19.01 59.039,18.934 C58.529,18.857 58.057,18.988 57.621,19.324 C57.153,19.685 56.909,20.151 56.889,20.721 M59.152,20.142 C59.354,20.152 59.517,20.236 59.64,20.395 C59.757,20.546 59.794,20.719 59.751,20.914 C59.709,21.11 59.565,21.304 59.317,21.495 C59.052,21.699 58.82,21.797 58.622,21.789 C58.423,21.78 58.263,21.697 58.141,21.539 C58.022,21.383 57.982,21.206 58.025,21.01 C58.066,20.812 58.216,20.616 58.47,20.419 C58.721,20.226 58.948,20.133 59.152,20.142" fill="#FFFFFE"/>
    <path d="M62.108,22.292 L62.769,23.397 L62.265,23.699 C62.57,23.741 62.817,23.82 63.007,23.936 C63.196,24.053 63.364,24.232 63.509,24.475 C63.706,24.803 63.762,25.119 63.678,25.422 C63.593,25.724 63.347,25.998 62.939,26.241 L60.97,27.419 L60.257,26.226 L61.96,25.208 C62.154,25.092 62.27,24.973 62.307,24.853 C62.345,24.733 62.325,24.607 62.247,24.478 C62.162,24.333 62.037,24.249 61.875,24.226 C61.712,24.2 61.491,24.273 61.209,24.442 L59.722,25.331 L59.012,24.144 z" fill="#FFFFFE"/>
    <path d="M63.552,33.219 L64.148,34.715 L68.082,31.131 L67.46,29.572 L62.14,29.679 L62.723,31.14 L63.576,31.059 L64.225,32.687 z M64.699,30.969 L66.565,30.814 L65.105,31.989 z" fill="#FFFFFE"/>
    <path d="M68.958,33.571 L69.375,34.894 L64.621,36.391 L64.204,35.069 z" fill="#FFFFFE"/>
    <path d="M65.334,37.557 C65.133,37.975 65.104,38.467 65.243,39.03 C65.399,39.661 65.693,40.113 66.126,40.386 C66.559,40.659 67.044,40.728 67.584,40.595 C68.064,40.476 68.431,40.233 68.688,39.864 C69.007,39.404 69.08,38.824 68.906,38.122 C68.754,37.508 68.461,37.062 68.026,36.788 C67.589,36.513 67.104,36.441 66.57,36.573 C65.995,36.715 65.584,37.043 65.334,37.557 M67.641,37.941 C67.823,38.03 67.938,38.174 67.987,38.37 C68.032,38.555 67.997,38.728 67.879,38.891 C67.761,39.052 67.55,39.171 67.248,39.246 C66.922,39.326 66.669,39.323 66.491,39.235 C66.313,39.147 66.2,39.006 66.152,38.813 C66.105,38.621 66.14,38.444 66.259,38.28 C66.377,38.116 66.593,37.996 66.905,37.918 C67.214,37.842 67.459,37.85 67.641,37.941" fill="#FFFFFE"/>
    <path d="M69.487,40.998 L69.695,42.269 L69.116,42.364 C69.384,42.515 69.585,42.68 69.718,42.858 C69.851,43.036 69.941,43.264 69.987,43.543 C70.048,43.921 69.984,44.235 69.795,44.485 C69.605,44.735 69.276,44.899 68.807,44.976 L66.544,45.346 L66.319,43.975 L68.278,43.654 C68.5,43.618 68.652,43.551 68.731,43.453 C68.809,43.355 68.838,43.231 68.813,43.082 C68.786,42.916 68.702,42.792 68.56,42.71 C68.417,42.628 68.184,42.613 67.86,42.666 L66.151,42.946 L65.927,41.582 z" fill="#FFFFFE"/>
    <path d="M68.585,49.925 C69.059,49.884 69.438,49.773 69.72,49.592 C70.002,49.411 70.208,49.164 70.338,48.853 C70.469,48.542 70.51,48.129 70.467,47.614 C70.412,46.98 70.195,46.498 69.816,46.168 C69.438,45.837 68.967,45.697 68.406,45.746 C68.01,45.779 67.675,45.899 67.398,46.104 C67.121,46.308 66.928,46.553 66.817,46.837 C66.706,47.122 66.672,47.503 66.713,47.978 C66.76,48.527 66.874,48.941 67.057,49.221 C67.239,49.501 67.519,49.729 67.898,49.906 L67.907,48.538 C67.791,48.461 67.709,48.387 67.659,48.317 C67.581,48.201 67.536,48.074 67.524,47.939 C67.505,47.725 67.569,47.544 67.713,47.398 C67.813,47.294 67.972,47.22 68.192,47.176 L68.429,49.938 z M68.852,47.122 C69.068,47.127 69.234,47.166 69.35,47.24 C69.535,47.356 69.637,47.523 69.656,47.742 C69.672,47.932 69.627,48.09 69.522,48.215 C69.418,48.342 69.234,48.43 68.969,48.48 z" fill="#FFFFFE"/>
    <path d="M35.807,69.174 L36.094,34.301 C26.34,22.881 36.524,17.124 36.524,17.124 C23.864,17.38 30.557,31.316 33.956,36.588 C34.554,37.516 33.748,38.44 33.748,38.44 C22.672,26.823 27.53,21.55 27.53,21.55 C14.457,27.008 32.579,42.222 33.263,44.084 C33.748,45.381 33.332,46.49 33.332,46.49 C33.263,46.143 32.927,44.912 31.817,44.291 C19.097,37.183 21.45,29.892 21.45,29.892 C9.29,43.042 32.276,50.323 32.718,50.955 C33.817,52.54 33.401,54.53 33.401,54.53 C32.579,52.678 31.168,50.047 29.757,50.272 C17.49,52.233 16.925,40.921 16.925,40.921 C9.714,62.696 31.618,60.064 32.579,61.371 C33.54,62.678 35.807,69.174 35.807,69.174" fill="#FFF36F"/>
    <path d="M35.807,69.174 L36.094,34.301 C26.34,22.881 36.524,17.124 36.524,17.124 C23.864,17.38 30.557,31.316 33.956,36.588 C34.554,37.516 33.748,38.44 33.748,38.44 C22.672,26.823 27.53,21.55 27.53,21.55 C14.457,27.008 32.579,42.222 33.263,44.084 C33.748,45.381 33.332,46.49 33.332,46.49 C33.263,46.143 32.927,44.912 31.817,44.291 C19.097,37.183 21.45,29.892 21.45,29.892 C9.29,43.042 32.276,50.323 32.718,50.955 C33.817,52.54 33.401,54.53 33.401,54.53 C32.579,52.678 31.168,50.047 29.757,50.272 C17.49,52.233 16.925,40.921 16.925,40.921 C9.714,62.696 31.618,60.064 32.579,61.371 C33.54,62.678 35.807,69.174 35.807,69.174 z" fill-opacity="0" stroke="#D8127D" stroke-width="0.611" stroke-linejoin="round"/>
    <path d="M41.876,69.174 L41.589,34.301 C51.344,22.881 41.16,17.124 41.16,17.124 C53.82,17.38 47.127,31.316 43.728,36.588 C43.13,37.516 43.936,38.44 43.936,38.44 C55.011,26.823 50.154,21.55 50.154,21.55 C63.226,27.008 45.104,42.222 44.42,44.084 C43.936,45.381 44.352,46.49 44.352,46.49 C44.42,46.143 44.756,44.912 45.867,44.291 C58.587,37.183 56.233,29.892 56.233,29.892 C68.394,43.042 45.408,50.323 44.965,50.955 C43.866,52.54 44.282,54.53 44.282,54.53 C45.104,52.678 46.515,50.047 47.926,50.272 C60.193,52.233 60.758,40.921 60.758,40.921 C67.97,62.696 46.065,60.064 45.104,61.371 C44.144,62.678 41.876,69.174 41.876,69.174" fill="#FFF36F"/>
    <path d="M41.876,69.174 L41.589,34.301 C51.344,22.881 41.16,17.124 41.16,17.124 C53.82,17.38 47.127,31.316 43.728,36.588 C43.13,37.516 43.936,38.44 43.936,38.44 C55.011,26.823 50.154,21.55 50.154,21.55 C63.226,27.008 45.104,42.222 44.42,44.084 C43.936,45.381 44.352,46.49 44.352,46.49 C44.42,46.143 44.756,44.912 45.867,44.291 C58.587,37.183 56.233,29.892 56.233,29.892 C68.394,43.042 45.408,50.323 44.965,50.955 C43.866,52.54 44.282,54.53 44.282,54.53 C45.104,52.678 46.515,50.047 47.926,50.272 C60.193,52.233 60.758,40.921 60.758,40.921 C67.97,62.696 46.065,60.064 45.104,61.371 C44.144,62.678 41.876,69.174 41.876,69.174 z" fill-opacity="0" stroke="#D8127D" stroke-width="0.611" stroke-linejoin="round"/>
    <path d="M53.903,38.46 C53.903,38.46 52.108,19.008 38.656,18.916 C28.419,18.945 25.131,27.846 24.155,31.064 C24.155,31.064 22.73,37.433 22.971,41.403 C23.173,42.976 53.903,38.46 53.903,38.46" fill="#C7E7F1"/>
    <path d="M53.903,38.46 C53.903,38.46 52.108,19.008 38.656,18.916 C28.419,18.945 25.131,27.846 24.155,31.064 C24.155,31.064 22.73,37.433 22.971,41.403 C23.173,42.976 53.903,38.46 53.903,38.46 z" fill-opacity="0" stroke="#1A1919" stroke-width="0.366" stroke-linecap="round"/>
    <path d="M39.82,21.077 C42.15,21.366 50.329,24.853 50.259,34.729 L47.498,33.162 C47.498,33.162 46.428,25.619 42.615,23.333 C38.935,21.244 36.637,20.791 39.82,21.077" fill="#FFFFFE"/>
    <path d="M32.769,22.246 C32.769,22.246 27.8,28.429 28.054,37.515 L24.683,39.921 C24.683,39.921 24.24,34.376 26.196,29.647 C28.737,23.667 34.403,20.01 32.769,22.246" fill="#1A1919"/>
    <path d="M53.292,44.135 C53.292,44.135 48.908,55.436 49.8,57.829 L55.468,60.248 C47.906,76.936 31.367,76.936 21.913,60.017 L28.472,57.037 L25.276,47.598 z" fill="#C7E7F1"/>
    <path d="M53.292,44.135 C53.292,44.135 48.908,55.436 49.8,57.829 L55.468,60.248 C47.906,76.936 31.367,76.936 21.913,60.017 L28.472,57.037 L25.276,47.598 L53.292,44.135 z" fill-opacity="0" stroke="#1A1919" stroke-width="0.366" stroke-linecap="round"/>
    <path d="M48.371,51.238 C48.371,51.238 47.005,55.572 46.552,57.871 C46.1,60.169 48.604,63.902 49.36,64.391 C50.116,64.881 47.427,65.546 47.427,65.546 C47.427,65.546 46.305,63.449 45.545,61.253 C44.784,59.057 44.155,57.057 46.341,52.884 z" fill="#FFFFFE"/>
    <path d="M35.881,54.915 C35.881,54.915 36.311,56.193 35.985,56.982 C35.462,57.902 34.354,60.071 34.192,60.892 C33.866,61.68 33.868,62.531 32.488,61.749 C31.075,61.131 29.695,60.347 29.526,58.608 C29.425,57.395 29.784,57.295 29.65,56.246 C29.32,55.328 27.895,50.443 27.895,50.443 z" fill="#1A1919"/>
    <path d="M38.916,29.594 C43.58,31.025 54.604,36.038 54.604,36.038 C54.965,65.661 24.7,66.084 21.76,36.031 z" fill="#C7E7F1"/>
    <path d="M38.916,29.594 C43.58,31.025 54.604,36.038 54.604,36.038 C54.965,65.661 24.7,66.084 21.76,36.031 L38.916,29.594 z" fill-opacity="0" stroke="#1A1919" stroke-width="0.366" stroke-linecap="round"/>
    <path d="M42.579,31.565 C42.616,33.106 41.388,40.197 40.936,42.495 C40.483,44.794 40.832,40.429 40.561,37.476 C40.322,34.36 39.621,30.13 39.621,30.13 z" fill="#FFFFFE"/>
    <path d="M38.922,29.936 L38.956,54.836" fill-opacity="0" stroke="#1A1919" stroke-width="0.37" stroke-linecap="round"/>
    <path d="M37.564,31.321 C37.564,31.321 37.815,38.702 38.119,41.49 C38.389,44.442 37.735,45.165 37.138,43.002 C36.738,40.706 35.549,38.086 34.466,37.531 C33.414,36.812 28.785,36.071 30.192,34.983 C31.847,33.873 34.888,32.424 35.597,31.786 C36.383,31.259 37.495,29.943 37.564,31.321" fill="#8A8B8A"/>
    <path d="M41.05,35.266 L52.516,38.542" fill="#00A3DA"/>
    <path d="M41.05,35.266 L52.516,38.542" fill-opacity="0" stroke="#1A1919" stroke-width="2.121" stroke-linecap="round"/>
    <path d="M41.053,38.715 L51.906,41.849" fill="#00A3DA"/>
    <path d="M41.053,38.715 L51.906,41.849" fill-opacity="0" stroke="#1A1919" stroke-width="2.121" stroke-linecap="round"/>
    <path d="M41.047,42.154 L50.63,44.836" fill="#00A3DA"/>
    <path d="M41.047,42.154 L50.63,44.836" fill-opacity="0" stroke="#1A1919" stroke-width="2.121" stroke-linecap="round"/>
    <path d="M41.044,45.314 L49.127,47.784" fill="#00A3DA"/>
    <path d="M41.044,45.314 L49.127,47.784" fill-opacity="0" stroke="#1A1919" stroke-width="2.121" stroke-linecap="round"/>
    <path d="M41.054,48.641 L47.509,50.719" fill="#00A3DA"/>
    <path d="M41.054,48.641 L47.509,50.719" fill-opacity="0" stroke="#1A1919" stroke-width="2.121" stroke-linecap="round"/>
    <path d="M37.155,35.053 L25.369,38.542" fill="#00A3DA"/>
    <path d="M37.155,35.053 L25.369,38.542" fill-opacity="0" stroke="#1A1919" stroke-width="2.121" stroke-linecap="round"/>
    <path d="M36.833,38.715 L25.981,41.849" fill="#00A3DA"/>
    <path d="M36.833,38.715 L25.981,41.849" fill-opacity="0" stroke="#1A1919" stroke-width="2.121" stroke-linecap="round"/>
    <path d="M36.839,42.154 L27.257,44.836" fill="#00A3DA"/>
    <path d="M36.839,42.154 L27.257,44.836" fill-opacity="0" stroke="#1A1919" stroke-width="2.121" stroke-linecap="round"/>
    <path d="M36.842,45.314 L28.759,47.784" fill="#00A3DA"/>
    <path d="M36.842,45.314 L28.759,47.784" fill-opacity="0" stroke="#1A1919" stroke-width="2.121" stroke-linecap="round"/>
    <path d="M36.833,48.641 L30.377,50.719" fill="#00A3DA"/>
    <path d="M36.833,48.641 L30.377,50.719" fill-opacity="0" stroke="#1A1919" stroke-width="2.121" stroke-linecap="round"/>
    <path d="M39.104,92.04 C36.862,88.43 24.137,88.43 13.218,80.01 C10.73,78.091 7.99,75.31 6.713,72.408 C5.426,69.507 5.752,67.021 5.752,67.021 C5.752,67.021 4.761,66.942 3.425,65.685 C2.088,64.398 2,63.19 2,63.19 C2.573,62.725 3.673,61.387 4.465,60.149 C5.475,58.625 5.941,56.595 5.999,56.269 C6.02,56.051 6.158,55.417 6.732,54.982 C7.089,54.704 7.584,54.466 8.455,54.486 C9.445,54.516 10.129,54.902 10.753,55.397 C11.139,55.694 12.56,57.429 12.718,58.436 C12.878,59.444 13.373,62.148 14.753,64.229 C24.985,79.664 52.274,79.664 63.587,65.793 C65.144,63.885 65.583,60.823 65.636,59.126 C65.742,58.384 66.59,56.369 67.667,55.397 C68.264,54.859 68.984,54.516 69.964,54.486 C70.846,54.466 71.33,54.704 71.687,54.982 C72.261,55.417 72.4,56.051 72.429,56.269 C72.479,56.595 72.974,58.625 73.964,60.149 C74.776,61.387 75.845,62.725 76.419,63.19 C76.419,63.19 76.34,64.398 75.003,65.685 C73.687,66.942 72.676,67.021 72.676,67.021 C72.676,67.021 73.004,69.507 71.717,72.408 C70.459,75.31 67.701,78.107 65.231,80.01 C54.112,88.571 40.68,88.571 39.104,92.04" fill="#00A3DA"/>
    <path d="M39.104,92.04 C36.862,88.43 24.137,88.43 13.218,80.01 C10.73,78.091 7.99,75.31 6.713,72.408 C5.426,69.507 5.752,67.021 5.752,67.021 C5.752,67.021 4.761,66.942 3.425,65.685 C2.088,64.398 2,63.19 2,63.19 C2.573,62.725 3.673,61.387 4.465,60.149 C5.475,58.625 5.941,56.595 5.999,56.269 C6.02,56.051 6.158,55.417 6.732,54.982 C7.089,54.704 7.584,54.466 8.455,54.486 C9.445,54.516 10.129,54.902 10.753,55.397 C11.139,55.694 12.56,57.429 12.718,58.436 C12.878,59.444 13.373,62.148 14.753,64.229 C24.985,79.664 52.274,79.664 63.587,65.793 C65.144,63.885 65.583,60.823 65.636,59.126 C65.742,58.384 66.59,56.369 67.667,55.397 C68.264,54.859 68.984,54.516 69.964,54.486 C70.846,54.466 71.33,54.704 71.687,54.982 C72.261,55.417 72.4,56.051 72.429,56.269 C72.479,56.595 72.974,58.625 73.964,60.149 C74.776,61.387 75.845,62.725 76.419,63.19 C76.419,63.19 76.34,64.398 75.003,65.685 C73.687,66.942 72.676,67.021 72.676,67.021 C72.676,67.021 73.004,69.507 71.717,72.408 C70.459,75.31 67.701,78.107 65.231,80.01 C54.112,88.571 40.68,88.571 39.104,92.04 z" fill-opacity="0" stroke="#1A1919" stroke-width="0.092"/>
    <path d="M11.109,77.25 C6.624,72.824 6.465,70.141 6.465,66.992 C6.465,64.288 9.307,61.11 9.307,61.11 C9.307,61.11 10.594,59.387 10.643,58.347 C10.673,57.635 10.455,57.09 10.159,56.674 C9.634,56.021 8.921,55.773 8.921,55.773 C8.921,55.773 8.733,57.199 7.554,58.239 C7.554,58.239 7.881,58.536 8.267,58.595 C8.267,58.595 9.247,57.496 9.366,56.842 C9.366,56.842 10.297,57.585 9.831,58.289 C9.445,58.922 8.187,58.922 7.307,58.021 C6.95,57.635 6.762,57.249 6.713,56.902 C6.624,56.437 6.762,56.021 6.98,55.773 C7.228,55.506 7.554,55.169 8.187,55.169 C8.544,55.169 8.95,55.229 9.495,55.447 C10.049,55.664 10.564,56.13 11,56.704 C11.633,57.526 12.179,58.892 12.287,59.684 C12.287,59.684 12.395,63.199 16.228,67.408 C27.388,79.664 50.295,79.664 62.359,68.309 C66.505,64.407 66.132,59.684 66.132,59.684 C66.27,58.892 66.795,57.526 67.419,56.704 C67.855,56.13 68.38,55.664 68.924,55.447 C69.469,55.229 69.884,55.169 70.241,55.169 C70.865,55.169 71.192,55.506 71.439,55.773 C71.657,56.021 71.796,56.437 71.717,56.902 C71.657,57.249 71.469,57.635 71.112,58.021 C70.271,58.922 68.984,58.922 68.597,58.289 C68.132,57.585 69.062,56.842 69.062,56.842 C69.172,57.496 70.152,58.595 70.152,58.595 C70.538,58.536 70.865,58.239 70.865,58.239 C69.697,57.199 69.498,55.773 69.498,55.773 C69.498,55.773 68.786,56.021 68.3,56.674 C67.964,57.09 67.746,57.635 67.776,58.347 C67.835,59.387 69.112,61.11 69.112,61.11 C69.112,61.11 71.964,64.288 71.964,66.992 C71.964,70.141 71.796,72.824 67.31,77.25 C53.054,91.432 23.917,89.864 11.109,77.25" fill="#FFF36F"/>
    <path d="M11.109,77.25 C6.624,72.824 6.465,70.141 6.465,66.992 C6.465,64.288 9.307,61.11 9.307,61.11 C9.307,61.11 10.594,59.387 10.643,58.347 C10.673,57.635 10.455,57.09 10.159,56.674 C9.634,56.021 8.921,55.773 8.921,55.773 C8.921,55.773 8.733,57.199 7.554,58.239 C7.554,58.239 7.881,58.536 8.267,58.595 C8.267,58.595 9.247,57.496 9.366,56.842 C9.366,56.842 10.297,57.585 9.831,58.289 C9.445,58.922 8.187,58.922 7.307,58.021 C6.95,57.635 6.762,57.249 6.713,56.902 C6.624,56.437 6.762,56.021 6.98,55.773 C7.228,55.506 7.554,55.169 8.187,55.169 C8.544,55.169 8.95,55.229 9.495,55.447 C10.049,55.664 10.564,56.13 11,56.704 C11.633,57.526 12.179,58.892 12.287,59.684 C12.287,59.684 12.395,63.199 16.228,67.408 C27.388,79.664 50.295,79.664 62.359,68.309 C66.505,64.407 66.132,59.684 66.132,59.684 C66.27,58.892 66.795,57.526 67.419,56.704 C67.855,56.13 68.38,55.664 68.924,55.447 C69.469,55.229 69.884,55.169 70.241,55.169 C70.865,55.169 71.192,55.506 71.439,55.773 C71.657,56.021 71.796,56.437 71.717,56.902 C71.657,57.249 71.469,57.635 71.112,58.021 C70.271,58.922 68.984,58.922 68.597,58.289 C68.132,57.585 69.062,56.842 69.062,56.842 C69.172,57.496 70.152,58.595 70.152,58.595 C70.538,58.536 70.865,58.239 70.865,58.239 C69.697,57.199 69.498,55.773 69.498,55.773 C69.498,55.773 68.786,56.021 68.3,56.674 C67.964,57.09 67.746,57.635 67.776,58.347 C67.835,59.387 69.112,61.11 69.112,61.11 C69.112,61.11 71.964,64.288 71.964,66.992 C71.964,70.141 71.796,72.824 67.31,77.25 C53.054,91.432 23.917,89.864 11.109,77.25 z" fill-opacity="0" stroke="#1A1919" stroke-width="0.079"/>
    <path d="M6.161,57.635 C6.161,57.635 5.498,59.387 4.567,60.813 C3.726,62.179 2.488,63.377 2.488,63.377 C2.488,63.377 2.954,64.557 3.637,65.13 C4.299,65.704 4.874,66.151 5.667,66.308 C5.667,66.308 5.854,65.051 6.537,63.764 C7.528,61.823 9.25,60.149 9.577,59.14 C9.577,59.14 8.677,59.714 7.469,59.11 C6.676,58.704 6.429,58.289 6.161,57.635" fill="#FFF36F"/>
    <path d="M6.161,57.635 C6.161,57.635 5.498,59.387 4.567,60.813 C3.726,62.179 2.488,63.377 2.488,63.377 C2.488,63.377 2.954,64.557 3.637,65.13 C4.299,65.704 4.874,66.151 5.667,66.308 C5.667,66.308 5.854,65.051 6.537,63.764 C7.528,61.823 9.25,60.149 9.577,59.14 C9.577,59.14 8.677,59.714 7.469,59.11 C6.676,58.704 6.429,58.289 6.161,57.635 z" fill-opacity="0" stroke="#1A1919" stroke-width="0.092"/>
    <path d="M71.878,57.635 C71.878,57.635 72.531,59.387 73.462,60.813 C74.314,62.179 75.541,63.377 75.541,63.377 C75.541,63.377 75.076,64.557 74.393,65.13 C73.739,65.704 73.165,66.151 72.373,66.308 C72.373,66.308 72.175,65.051 71.522,63.764 C70.511,61.823 68.809,60.149 68.462,59.14 C68.462,59.14 69.363,59.714 70.561,59.11 C71.354,58.704 71.601,58.289 71.878,57.635" fill="#FFF36F"/>
    <path d="M71.878,57.635 C71.878,57.635 72.531,59.387 73.462,60.813 C74.314,62.179 75.541,63.377 75.541,63.377 C75.541,63.377 75.076,64.557 74.393,65.13 C73.739,65.704 73.165,66.151 72.373,66.308 C72.373,66.308 72.175,65.051 71.522,63.764 C70.511,61.823 68.809,60.149 68.462,59.14 C68.462,59.14 69.363,59.714 70.561,59.11 C71.354,58.704 71.601,58.289 71.878,57.635 z" fill-opacity="0" stroke="#1A1919" stroke-width="0.092"/>
    <path d="M11.772,67.26 L12.523,68.387 L8.885,70.814 L8.133,69.687 z" fill="#1A1919"/>
    <path d="M12.908,69.046 L13.773,69.964 L13.141,72.823 L14.903,71.163 L15.777,72.09 L12.593,75.091 L11.719,74.163 L12.343,71.323 L10.596,72.971 L9.724,72.046 z" fill="#1A1919"/>
    <path d="M14.37,74.706 L15.454,75.405 C15.353,75.59 15.303,75.752 15.308,75.891 C15.314,76.116 15.422,76.305 15.631,76.458 C15.786,76.573 15.933,76.625 16.07,76.614 C16.209,76.603 16.314,76.549 16.384,76.453 C16.451,76.362 16.472,76.251 16.444,76.12 C16.417,75.988 16.282,75.783 16.036,75.504 C15.638,75.045 15.403,74.651 15.33,74.324 C15.256,73.995 15.32,73.693 15.523,73.417 C15.657,73.235 15.835,73.103 16.059,73.019 C16.282,72.936 16.533,72.925 16.812,72.988 C17.091,73.051 17.413,73.218 17.781,73.488 C18.231,73.82 18.513,74.157 18.626,74.498 C18.739,74.84 18.684,75.21 18.459,75.608 L17.389,74.913 C17.479,74.734 17.506,74.576 17.472,74.439 C17.438,74.303 17.343,74.178 17.189,74.065 C17.063,73.972 16.948,73.929 16.844,73.934 C16.74,73.941 16.66,73.983 16.603,74.06 C16.562,74.116 16.551,74.186 16.571,74.27 C16.589,74.354 16.679,74.487 16.841,74.669 C17.242,75.122 17.507,75.477 17.635,75.734 C17.764,75.99 17.818,76.23 17.798,76.455 C17.776,76.68 17.695,76.888 17.554,77.08 C17.387,77.307 17.171,77.469 16.906,77.568 C16.64,77.666 16.359,77.683 16.062,77.616 C15.765,77.549 15.446,77.39 15.104,77.139 C14.505,76.697 14.174,76.276 14.114,75.875 C14.053,75.474 14.138,75.085 14.37,74.706" fill="#1A1919"/>
    <path d="M19.829,74.963 L21.004,75.638 L18.822,79.429 L17.648,78.753 z" fill="#1A1919"/>
    <path d="M22.605,79.513 L22.968,78.679 L24.885,79.512 L24.141,81.222 C23.666,81.313 23.267,81.342 22.946,81.31 C22.625,81.278 22.27,81.177 21.883,81.009 C21.407,80.802 21.054,80.553 20.824,80.259 C20.594,79.966 20.467,79.624 20.441,79.231 C20.416,78.838 20.493,78.433 20.674,78.017 C20.864,77.578 21.121,77.237 21.442,76.991 C21.763,76.746 22.135,76.615 22.557,76.598 C22.885,76.587 23.28,76.681 23.74,76.882 C24.182,77.074 24.497,77.258 24.682,77.434 C24.867,77.61 24.995,77.814 25.067,78.047 C25.139,78.278 25.155,78.539 25.116,78.83 L23.826,78.524 C23.843,78.351 23.81,78.199 23.727,78.067 C23.644,77.936 23.511,77.83 23.329,77.75 C23.057,77.633 22.799,77.633 22.555,77.752 C22.312,77.871 22.101,78.135 21.923,78.544 C21.734,78.978 21.681,79.323 21.764,79.581 C21.846,79.837 22.034,80.03 22.325,80.156 C22.464,80.218 22.605,80.255 22.749,80.269 C22.891,80.284 23.066,80.278 23.27,80.252 L23.434,79.874 z" fill="#1A1919"/>
    <path d="M26.226,77.979 L27.529,78.34 L27.12,79.816 L28.545,80.212 L28.954,78.735 L30.263,79.098 L29.093,83.317 L27.784,82.953 L28.257,81.247 L26.833,80.852 L26.359,82.557 L25.055,82.196 z" fill="#1A1919"/>
    <path d="M30.678,79.182 L34.742,79.797 L34.581,80.865 L33.217,80.659 L32.724,83.917 L31.387,83.715 L31.88,80.457 L30.516,80.25 z" fill="#1A1919"/>
    <path d="M43.159,82.668 L44.178,82.512 C44.215,82.677 44.273,82.8 44.348,82.881 C44.472,83.012 44.637,83.068 44.843,83.05 C44.996,83.036 45.113,82.989 45.19,82.909 C45.266,82.83 45.301,82.742 45.292,82.647 C45.283,82.556 45.237,82.48 45.151,82.415 C45.065,82.351 44.875,82.3 44.581,82.263 C44.099,82.198 43.748,82.088 43.531,81.93 C43.312,81.772 43.19,81.557 43.166,81.283 C43.15,81.105 43.187,80.93 43.277,80.761 C43.366,80.593 43.511,80.453 43.712,80.344 C43.911,80.234 44.193,80.162 44.557,80.13 C45.002,80.089 45.35,80.142 45.599,80.287 C45.847,80.432 46.01,80.682 46.087,81.04 L45.077,81.191 C45.035,81.037 44.968,80.928 44.877,80.864 C44.783,80.8 44.661,80.776 44.509,80.788 C44.383,80.8 44.291,80.835 44.232,80.895 C44.173,80.953 44.147,81.021 44.154,81.097 C44.159,81.152 44.19,81.2 44.246,81.24 C44.302,81.281 44.425,81.313 44.62,81.336 C45.1,81.395 45.446,81.467 45.659,81.553 C45.873,81.639 46.033,81.754 46.139,81.9 C46.247,82.045 46.308,82.213 46.325,82.403 C46.345,82.627 46.301,82.839 46.195,83.038 C46.087,83.239 45.929,83.397 45.715,83.514 C45.502,83.632 45.226,83.706 44.888,83.737 C44.295,83.79 43.873,83.713 43.625,83.505 C43.376,83.297 43.22,83.018 43.159,82.668" fill="#1A1919"/>
    <path d="M47.167,82.701 C47.376,82.938 47.619,83.095 47.897,83.172 C48.174,83.247 48.507,83.248 48.895,83.175 C49.276,83.104 49.581,82.971 49.811,82.78 C50.039,82.59 50.198,82.352 50.285,82.069 C50.372,81.786 50.377,81.444 50.301,81.041 C50.197,80.488 49.962,80.086 49.594,79.837 C49.226,79.588 48.756,79.517 48.183,79.624 C47.625,79.73 47.218,79.969 46.964,80.341 C46.71,80.712 46.636,81.179 46.742,81.741 C46.818,82.143 46.96,82.463 47.167,82.701 M47.858,80.755 C47.96,80.579 48.118,80.47 48.332,80.43 C48.555,80.388 48.747,80.43 48.907,80.554 C49.065,80.68 49.175,80.904 49.235,81.228 C49.308,81.613 49.296,81.891 49.198,82.063 C49.101,82.236 48.939,82.344 48.71,82.386 C48.487,82.428 48.298,82.385 48.14,82.258 C47.983,82.131 47.872,81.893 47.805,81.545 C47.74,81.195 47.758,80.931 47.858,80.755" fill="#1A1919"/>
    <path d="M50.44,79.212 L53.008,78.459 L53.221,79.181 L51.696,79.628 L51.868,80.215 L53.17,79.833 L53.369,80.511 L52.067,80.894 L52.47,82.267 L51.427,82.573 z" fill="#1A1919"/>
    <path d="M53.23,78.394 L56.278,77.158 L56.604,77.96 L55.581,78.375 L56.572,80.818 L55.569,81.225 L54.578,78.781 L53.555,79.196 z" fill="#1A1919"/>
    <path d="M56.292,77.229 L57.18,76.716 L58.478,78.226 L57.969,76.262 L58.856,75.751 L60.302,77.174 L59.646,75.295 L60.532,74.785 L61.611,78.202 L60.693,78.731 L59.061,77.129 L59.633,79.343 L58.714,79.872 z" fill="#1A1919"/>
    <path d="M64.654,75.858 L65.53,75.14 L62.291,73.265 L61.378,74.013 L62.58,77.558 L63.436,76.857 L63.2,76.301 L64.154,75.521 z M62.901,75.568 L62.401,74.35 L63.499,75.078 z" fill="#1A1919"/>
    <path d="M66.772,73.774 L65.702,72.84 L65.766,72.768 C65.831,72.693 65.909,72.645 66.001,72.622 C66.07,72.606 66.18,72.616 66.333,72.652 L67.517,72.921 L68.322,72 L67.214,71.726 C67.159,71.712 67.071,71.702 66.951,71.698 C66.83,71.693 66.746,71.696 66.699,71.707 C66.627,71.723 66.533,71.766 66.416,71.835 C66.494,71.69 66.543,71.563 66.561,71.457 C66.591,71.291 66.58,71.131 66.528,70.975 C66.476,70.82 66.377,70.678 66.231,70.551 C66.063,70.405 65.886,70.321 65.698,70.301 C65.51,70.28 65.336,70.317 65.177,70.413 C65.017,70.508 64.827,70.682 64.607,70.933 L63.422,72.29 L66.057,74.592 z M64.669,71.937 L64.982,71.579 C65.111,71.431 65.223,71.35 65.315,71.336 C65.408,71.321 65.497,71.351 65.582,71.425 C65.639,71.476 65.676,71.537 65.69,71.61 C65.704,71.684 65.693,71.752 65.658,71.814 C65.588,71.942 65.537,72.025 65.504,72.061 L65.205,72.406 z" fill="#1A1919"/>
    <path d="M65.742,69.559 L67.219,67.066 L67.861,67.447 L66.936,69.008 L67.416,69.291 L68.273,67.844 L68.887,68.207 L68.029,69.654 L68.623,70.006 L69.574,68.401 L70.256,68.805 L68.751,71.342 z" fill="#1A1919"/>
    <path d="M39.015,2 L40.512,7.195 L41.292,72.824 L36.738,72.824 L37.517,7.195 z" fill="#BFC0BF"/>
    <path d="M39.015,2 L40.512,7.195 L41.292,72.824 L36.738,72.824 L37.517,7.195 L39.015,2 z" fill-opacity="0" stroke="#1A1919" stroke-width="0.183" stroke-linecap="round"/>
    <path d="M36.803,71.586 C36.803,79.356 37.789,88.029 39.007,88.029 C40.224,88.029 41.211,79.356 41.211,71.586" fill="#1A1919"/>
    <path d="M36.803,71.586 C36.803,79.356 37.789,88.029 39.007,88.029 C40.224,88.029 41.211,79.356 41.211,71.586" fill-opacity="0" stroke="#1A1919" stroke-width="0.092" stroke-linecap="round"/>
    <path d="M39.007,89.924 C41.119,89.924 42.831,88.701 42.831,87.194 C42.831,85.685 41.119,84.464 39.007,84.464 C36.894,84.464 35.182,85.685 35.182,87.194 C35.182,88.701 36.894,89.924 39.007,89.924" fill="#F6BE52"/>
    <path d="M39.007,89.924 C41.119,89.924 42.831,88.701 42.831,87.194 C42.831,85.685 41.119,84.464 39.007,84.464 C36.894,84.464 35.182,85.685 35.182,87.194 C35.182,88.701 36.894,89.924 39.007,89.924 z" fill-opacity="0" stroke="#1A1919" stroke-width="0.183" stroke-linecap="round"/>
    <path d="M38.946,4.011 L38.946,70.646 L40.825,70.739 L40,7.128 z" fill="#F2F1F0"/>
    <path d="M40.683,71.586 C40.683,63.818 39.872,57.518 39.007,57.518 C37.789,57.518 37.331,63.818 37.331,71.586" fill="#FACB55"/>
    <path d="M40.683,71.586 C40.683,63.818 39.872,57.518 39.007,57.518 C37.789,57.518 37.331,63.818 37.331,71.586" fill-opacity="0" stroke="#1A1919" stroke-width="0.092"/>
    <path d="M30.927,72.043 L27.792,73.358 L25.305,71.651 L27.783,69.815 L30.927,71.263 L47.087,71.263 L50.231,69.815 L52.708,71.651 L50.221,73.358 L47.087,72.043 z" fill="#F6BE52"/>
    <path d="M30.927,72.043 L27.792,73.358 L25.305,71.651 L27.783,69.815 L30.927,71.263 L47.087,71.263 L50.231,69.815 L52.708,71.651 L50.221,73.358 L47.087,72.043 L30.927,72.043 z" fill-opacity="0" stroke="#FFFFFE" stroke-width="0.092" stroke-linecap="round"/>
    <path d="M50.036,71.162 C50.036,71.162 44.951,69.866 38.885,69.866 C32.726,69.866 27.735,71.162 27.735,71.162" fill="#DAAA4B"/>
    <path d="M50.036,71.162 C50.036,71.162 44.951,69.866 38.885,69.866 C32.726,69.866 27.735,71.162 27.735,71.162" fill-opacity="0" stroke="#1A1919" stroke-width="0.185" stroke-linecap="round"/>
    <path d="M27.857,71.846 C27.857,71.846 31.809,72.872 37.02,73.099 C38.304,72.389 39.817,72.343 41.01,73.098 C46.212,72.871 50.157,71.846 50.157,71.846" fill="#F6BE52"/>
    <path d="M27.857,71.846 C27.857,71.846 31.809,72.872 37.02,73.099 C38.304,72.389 39.817,72.343 41.01,73.098 C46.212,72.871 50.157,71.846 50.157,71.846" fill-opacity="0" stroke="#1A1919" stroke-width="0.185" stroke-linecap="round"/>
    <path d="M49.99,71.315 C49.99,71.315 44.997,70.798 38.839,70.798 C32.681,70.798 27.689,71.315 27.689,71.315" fill="#F6BE52"/>
    <path d="M49.99,71.315 C49.99,71.315 44.997,70.798 38.839,70.798 C32.681,70.798 27.689,71.315 27.689,71.315" fill-opacity="0" stroke="#1A1919" stroke-width="0.046" stroke-linecap="round"/>
    <path d="M37.548,89.17 C38.117,88.918 40.106,88.93 40.573,89.147" fill-opacity="0" stroke="#1A1919" stroke-width="0.183" stroke-linecap="round"/>
    <path d="M246.898,79.681 C246.898,81.579 245.36,83.116 243.464,83.116 C241.566,83.116 240.029,81.579 240.029,79.681 C240.029,77.784 241.566,76.247 243.464,76.247 C245.36,76.247 246.898,77.784 246.898,79.681" fill="#1A1919"/>
    <path d="M98.825,83.065 L88.224,83.065 L88.224,42.326 L98.825,42.326 z" fill="#1A1919"/>
    <path d="M113.129,49.652 L112.948,52.751 C113.687,51.52 114.589,50.595 115.656,49.979 C116.722,49.363 117.953,49.055 119.347,49.055 C121.094,49.055 122.522,49.467 123.631,50.289 C124.738,51.112 125.453,52.147 125.772,53.397 C126.091,54.648 126.25,56.734 126.25,59.653 L126.25,83.065 L116.091,83.065 L116.091,59.936 C116.091,57.638 116.016,56.237 115.864,55.733 C115.711,55.23 115.288,54.978 114.595,54.978 C113.869,54.978 113.413,55.268 113.226,55.847 C113.041,56.426 112.948,57.974 112.948,60.49 L112.948,83.065 L102.789,83.065 L102.789,49.652 z" fill="#1A1919"/>
    <path d="M150.504,60.331 L141.515,60.331 L141.515,58.521 C141.515,56.981 141.427,56.005 141.25,55.594 C141.074,55.184 140.634,54.978 139.929,54.978 C139.358,54.978 138.929,55.168 138.643,55.545 C138.358,55.923 138.216,56.488 138.216,57.244 C138.216,58.267 138.287,59.017 138.43,59.495 C138.571,59.974 138.999,60.498 139.711,61.067 C140.423,61.638 141.885,62.468 144.097,63.559 C147.045,65.002 148.981,66.36 149.902,67.634 C150.823,68.91 151.284,70.763 151.284,73.196 C151.284,75.913 150.932,77.963 150.228,79.347 C149.524,80.732 148.345,81.796 146.694,82.543 C145.043,83.289 143.051,83.662 140.721,83.662 C138.139,83.662 135.93,83.259 134.094,82.453 C132.258,81.648 130.996,80.556 130.309,79.179 C129.622,77.802 129.278,75.72 129.278,72.933 L129.278,71.321 L138.293,71.321 L138.293,73.435 C138.293,75.231 138.407,76.396 138.632,76.933 C138.858,77.47 139.305,77.739 139.974,77.739 C140.692,77.739 141.194,77.558 141.479,77.198 C141.763,76.838 141.905,76.078 141.905,74.92 C141.905,73.327 141.72,72.329 141.351,71.926 C140.965,71.523 138.994,70.333 135.436,68.354 C132.449,66.676 130.628,65.154 129.974,63.787 C129.32,62.419 128.992,60.797 128.992,58.918 C128.992,56.251 129.344,54.284 130.049,53.018 C130.753,51.751 131.948,50.775 133.635,50.087 C135.319,49.399 137.278,49.055 139.51,49.055 C141.724,49.055 143.606,49.336 145.158,49.898 C146.71,50.46 147.901,51.202 148.73,52.125 C149.561,53.049 150.064,53.904 150.241,54.693 C150.416,55.481 150.504,56.715 150.504,58.393 z" fill="#1A1919"/>
    <path d="M164.48,83.065 L154.009,83.065 L154.009,49.652 L164.48,49.652 z M164.48,49.652 M164.48,47.626 L154.009,47.626 L154.009,42.326 L164.48,42.326 z" fill="#1A1919"/>
    <path d="M181.042,58.526 C181.042,57 180.953,56.027 180.776,55.608 C180.598,55.189 180.206,54.978 179.598,54.978 C179.006,54.978 178.588,55.218 178.343,55.696 C178.098,56.175 177.976,57.118 177.976,58.526 L177.976,69.749 C177.976,71.242 178.069,72.211 178.255,72.655 C178.441,73.1 178.829,73.322 179.42,73.322 C180.096,73.322 180.534,73.053 180.738,72.517 C180.94,71.98 181.042,70.764 181.042,68.868 z M191.226,49.652 L191.226,75.386 C191.226,78.862 191.147,81.107 190.987,82.122 C190.828,83.138 190.262,84.212 189.288,85.345 C188.315,86.478 186.96,87.343 185.223,87.939 C183.487,88.534 181.301,88.833 178.666,88.833 C175.427,88.833 172.826,88.283 170.863,87.183 C168.9,86.084 167.884,83.923 167.817,80.7 L177.691,80.7 C177.691,82.173 178.228,82.909 179.306,82.909 C180.08,82.909 180.593,82.683 180.845,82.23 C181.098,81.777 181.223,80.828 181.223,79.386 L181.223,76.87 C180.35,77.662 179.431,78.26 178.463,78.665 C177.498,79.07 176.486,79.272 175.428,79.272 C173.596,79.272 172.089,78.903 170.904,78.164 C169.719,77.425 168.909,76.456 168.473,75.255 C168.035,74.055 167.817,72.347 167.817,70.13 L167.817,57.994 C167.817,54.821 168.388,52.538 169.53,51.145 C170.672,49.752 172.41,49.055 174.745,49.055 C176.021,49.055 177.183,49.315 178.233,49.837 C179.283,50.358 180.219,51.141 181.042,52.183 L181.77,49.652 z" fill="#1A1919"/>
    <path d="M205.018,42.326 L205.018,51.481 C205.89,50.673 206.832,50.066 207.847,49.662 C208.862,49.257 209.947,49.055 211.104,49.055 C212.881,49.055 214.394,49.508 215.643,50.414 C216.891,51.321 217.655,52.365 217.931,53.549 C218.208,54.732 218.346,56.892 218.346,60.031 L218.346,83.065 L208.188,83.065 L208.188,59.56 C208.188,57.613 208.091,56.363 207.898,55.81 C207.705,55.256 207.273,54.978 206.602,54.978 C205.982,54.978 205.562,55.264 205.345,55.834 C205.127,56.405 205.018,57.537 205.018,59.232 L205.018,83.065 L194.859,83.065 L194.859,42.326 z" fill="#1A1919"/>
    <path d="M232.57,42.214 L232.57,49.513 L235.35,49.513 L235.35,55.708 L232.57,55.708 L232.57,72.13 C232.57,74.332 232.807,75.27 233.003,75.547 C233.418,76.136 236.765,76.189 236.765,76.189 C236.45,77.14 236.086,80.154 236.765,83.065 L231.659,83.065 C229.34,83.065 227.685,82.969 226.694,82.775 C225.703,82.582 224.83,82.137 224.074,81.44 C223.319,80.743 222.848,79.945 222.663,79.047 C222.478,78.148 222.385,76.037 222.385,72.711 L222.385,55.708 L220.203,55.708 L220.203,49.513 L222.385,49.513 L222.385,42.214 z" fill="#1A1919"/>
    <path d="M246.293,55.708 L238.281,55.708 L238.281,49.512 L246.293,49.512 z" fill="#1A1919"/>
    <path d="M256.676,42.306 L256.676,64.252 L261.032,64.252 L261.032,69.749 L249.536,69.749 L249.536,42.306 z" fill="#1A1919"/>
    <path d="M269.602,69.749 L262.549,69.749 L262.549,47.241 L269.602,47.241 z M269.602,47.241 M269.602,45.876 L262.549,45.876 L262.549,42.306 L269.602,42.306 z" fill="#1A1919"/>
    <path d="M286.219,47.241 L283.018,69.749 L274.073,69.749 L270.625,47.241 L276.742,47.241 L278.667,63.677 C278.808,62.468 279.065,59.525 279.439,54.847 C279.644,52.236 279.867,49.701 280.104,47.241 z" fill="#1A1919"/>
    <path d="M295.88,55.24 L295.88,53.594 C295.88,52.429 295.818,51.677 295.693,51.338 C295.567,50.999 295.313,50.83 294.923,50.83 C294.448,50.83 294.151,50.973 294.037,51.262 C293.924,51.549 293.868,52.327 293.868,53.594 L293.868,55.24 z M302.741,58.896 L293.868,58.896 L293.868,63.756 C293.868,64.771 293.942,65.427 294.087,65.719 C294.235,66.013 294.519,66.16 294.938,66.16 C295.459,66.16 295.809,65.965 295.984,65.575 C296.159,65.185 296.247,64.432 296.247,63.314 L296.247,60.349 L302.741,60.349 L302.741,62.011 C302.741,63.402 302.652,64.471 302.478,65.216 C302.301,65.961 301.892,66.758 301.249,67.606 C300.605,68.454 299.789,69.09 298.798,69.514 C297.811,69.938 296.569,70.15 295.078,70.15 C293.631,70.15 292.353,69.94 291.245,69.522 C290.138,69.105 289.278,68.531 288.661,67.802 C288.044,67.073 287.616,66.27 287.381,65.394 C287.144,64.518 287.024,63.244 287.024,61.572 L287.024,55.01 C287.024,53.043 287.29,51.492 287.822,50.356 C288.352,49.22 289.223,48.35 290.43,47.745 C291.64,47.141 293.03,46.839 294.603,46.839 C296.525,46.839 298.11,47.203 299.358,47.933 C300.607,48.661 301.484,49.629 301.988,50.832 C302.489,52.036 302.741,53.73 302.741,55.912 z" fill="#1A1919"/>
    <path d="M257.413,76.021 L254.227,76.021 L254.227,74.74 C254.227,74.294 254.192,73.991 254.119,73.833 C254.047,73.673 253.913,73.593 253.718,73.593 C253.522,73.593 253.393,73.664 253.326,73.803 C253.258,73.942 253.226,74.254 253.226,74.74 L253.226,79.972 C253.226,80.369 253.274,80.665 253.375,80.862 C253.475,81.061 253.622,81.16 253.816,81.16 C254.043,81.16 254.198,81.057 254.279,80.85 C254.359,80.645 254.4,80.255 254.4,79.68 L254.4,78.361 L257.413,78.361 C257.409,79.248 257.376,79.913 257.317,80.357 C257.259,80.799 257.072,81.254 256.757,81.719 C256.442,82.185 256.032,82.537 255.525,82.773 C255.016,83.01 254.39,83.128 253.642,83.128 C252.689,83.128 251.935,82.965 251.377,82.64 C250.82,82.313 250.426,81.856 250.195,81.267 C249.963,80.679 249.848,79.843 249.848,78.761 L249.848,75.607 C249.848,74.665 249.943,73.954 250.132,73.474 C250.322,72.994 250.726,72.566 251.345,72.189 C251.964,71.813 252.715,71.624 253.601,71.624 C254.482,71.624 255.234,71.811 255.859,72.185 C256.482,72.559 256.898,73.031 257.104,73.601 C257.31,74.17 257.413,74.976 257.413,76.021" fill="#1A1919"/>
    <path d="M262.693,74.89 C262.693,74.321 262.663,73.963 262.602,73.816 C262.54,73.667 262.407,73.593 262.205,73.593 C262.004,73.593 261.869,73.667 261.802,73.816 C261.734,73.963 261.7,74.321 261.7,74.89 L261.7,79.898 C261.7,80.421 261.734,80.762 261.802,80.921 C261.869,81.08 262,81.16 262.197,81.16 C262.4,81.16 262.531,81.087 262.597,80.943 C262.661,80.797 262.693,80.486 262.693,80.006 z M266.072,75.724 L266.072,78.444 C266.072,79.442 266.021,80.174 265.921,80.64 C265.82,81.106 265.606,81.541 265.276,81.945 C264.948,82.349 264.523,82.647 264.009,82.84 C263.493,83.032 262.9,83.128 262.231,83.128 C261.482,83.128 260.851,83.047 260.332,82.881 C259.813,82.718 259.41,82.469 259.123,82.137 C258.835,81.806 258.631,81.404 258.508,80.933 C258.386,80.461 258.324,79.755 258.324,78.812 L258.324,75.967 C258.324,74.935 258.436,74.129 258.657,73.548 C258.881,72.969 259.284,72.502 259.863,72.151 C260.444,71.801 261.186,71.624 262.088,71.624 C262.847,71.624 263.498,71.738 264.041,71.964 C264.586,72.189 265.006,72.483 265.301,72.846 C265.597,73.208 265.798,73.582 265.907,73.967 C266.016,74.353 266.072,74.937 266.072,75.724" fill="#1A1919"/>
    <path d="M270.521,71.824 L270.46,72.882 C270.724,72.463 271.035,72.149 271.399,71.939 C271.762,71.73 272.176,71.624 272.638,71.624 C273.542,71.624 274.252,72.043 274.773,72.882 C275.058,72.463 275.379,72.149 275.735,71.939 C276.093,71.73 276.49,71.624 276.926,71.624 C277.5,71.624 277.976,71.764 278.353,72.043 C278.729,72.322 278.971,72.663 279.077,73.068 C279.184,73.472 279.236,74.13 279.236,75.039 L279.236,82.93 L275.954,82.93 L275.954,75.694 C275.954,74.746 275.922,74.159 275.857,73.933 C275.794,73.707 275.644,73.593 275.41,73.593 C275.17,73.593 275.014,73.705 274.946,73.929 C274.874,74.152 274.84,74.74 274.84,75.694 L274.84,82.93 L271.558,82.93 L271.558,75.877 C271.558,74.79 271.533,74.138 271.477,73.92 C271.425,73.702 271.279,73.593 271.039,73.593 C270.888,73.593 270.76,73.651 270.654,73.766 C270.548,73.879 270.488,74.019 270.477,74.184 C270.465,74.348 270.46,74.698 270.46,75.234 L270.46,82.93 L267.179,82.93 L267.179,71.824 z" fill="#1A1919"/>
    <path d="M274.159,22.049 C273.577,22.132 272.577,22.173 271.158,22.173 L261.572,22.173 L261.572,14.731 L271.158,14.731 C272.603,14.731 273.607,14.769 274.169,14.845 C274.734,14.922 275.265,15.098 275.763,15.375 C276.82,15.944 277.348,16.97 277.348,18.453 C277.348,19.935 276.82,20.961 275.763,21.53 C275.279,21.793 274.745,21.966 274.159,22.049 M281.341,34.541 L275.798,26.675 C279.361,26.126 281.692,24.659 282.796,22.274 L282.796,36.336 C282.796,36.379 282.785,36.408 282.781,36.452 C282.39,35.981 281.911,35.347 281.341,34.541 M253.881,37.862 C253.394,37.736 253.05,37.558 252.849,37.328 C252.645,37.098 252.545,36.768 252.545,36.336 L252.545,12.18 C252.545,11.762 252.642,11.438 252.838,11.208 C253.033,10.978 253.381,10.801 253.881,10.675 L253.995,10.675 C254.496,10.815 254.844,10.996 255.04,11.219 C255.234,11.442 255.332,11.77 255.332,12.201 L255.332,36.357 C255.332,36.775 255.234,37.096 255.04,37.318 C254.844,37.54 254.496,37.722 253.995,37.862 z M189.187,27.343 L193.867,17.233 L198.463,27.343 z M108.369,32.784 C107.119,33.465 105.25,33.806 102.762,33.806 L94.967,33.806 L94.967,14.731 L102.762,14.731 C104.652,14.731 106.167,14.922 107.306,15.304 C108.445,15.687 109.418,16.33 110.225,17.233 C111.669,18.859 112.393,21.201 112.393,24.258 C112.393,28.484 111.052,31.325 108.369,32.784 M303.075,32.469 C302.936,32.971 302.755,33.318 302.536,33.514 C302.312,33.708 301.994,33.806 301.579,33.806 L289.036,33.806 L289.036,26.006 L294.849,26.006 C295.263,26.006 295.582,26.107 295.805,26.309 C296.026,26.511 296.206,26.856 296.346,27.343 L297.014,27.343 L297.014,20.124 L296.346,20.124 C296.206,20.624 296.026,20.973 295.805,21.168 C295.582,21.364 295.263,21.46 294.849,21.46 L289.036,21.46 L289.036,14.731 L301.087,14.731 C301.503,14.731 301.821,14.831 302.044,15.028 C302.266,15.226 302.446,15.572 302.586,16.068 L303.254,16.068 L303.254,8.669 L302.586,8.669 C302.446,9.164 302.263,9.509 302.043,9.709 C301.821,9.908 301.501,10.006 301.086,10.006 L281.459,10.006 L281.459,10.675 C281.96,10.815 282.31,10.996 282.505,11.219 C282.7,11.442 282.796,11.77 282.796,12.201 L282.796,14.72 C282.789,14.696 282.781,14.672 282.77,14.649 C282.229,13.408 281.409,12.427 280.309,11.701 C279.363,11.073 278.253,10.634 276.98,10.383 C275.707,10.133 273.986,10.006 271.816,10.006 L225.25,10.006 L225.25,10.675 C225.752,10.815 226.1,10.996 226.296,11.219 C226.49,11.442 226.587,11.77 226.587,12.201 L226.587,33.806 L214.677,33.806 L214.677,12.2 C214.677,11.769 214.776,11.437 214.971,11.207 C215.166,10.977 215.514,10.8 216.016,10.675 L216.016,10.006 L207.102,10.006 L207.102,10.675 C207.603,10.815 207.951,10.996 208.146,11.219 C208.341,11.442 208.438,11.77 208.438,12.201 L208.438,33.782 L198.317,13.288 C198.052,12.772 197.92,12.312 197.92,11.907 C197.92,11.323 198.331,10.911 199.153,10.675 L199.153,10.006 L189.041,10.006 L189.041,10.675 C189.848,10.955 190.252,11.414 190.252,12.054 C190.252,12.472 190.085,13.03 189.751,13.726 L179.256,35.646 C178.878,36.455 178.545,36.998 178.251,37.276 C177.979,37.536 177.588,37.719 177.086,37.834 C176.633,37.699 176.309,37.528 176.127,37.319 C175.933,37.096 175.835,36.77 175.835,36.338 L175.835,14.731 L182.514,14.731 C182.944,14.731 183.269,14.827 183.493,15.018 C183.716,15.209 183.896,15.559 184.035,16.068 L184.703,16.068 L184.65,10.006 L153.305,10.006 L153.305,10.675 C153.806,10.815 154.153,10.996 154.349,11.219 C154.544,11.442 154.641,11.762 154.641,12.18 L154.641,24.313 L142.71,24.313 C142.277,24.313 141.951,24.219 141.735,24.031 C141.518,23.843 141.339,23.491 141.199,22.975 L140.531,22.975 L140.531,29.617 L141.199,29.617 C141.34,29.115 141.519,28.767 141.736,28.573 C141.953,28.377 142.279,28.279 142.714,28.279 L149.802,28.279 L149.802,32.146 C148.686,32.77 147.361,33.262 145.828,33.622 C144.295,33.983 142.74,34.163 141.166,34.163 C137.931,34.163 135.323,33.315 133.344,31.621 C131.183,29.775 130.102,27.352 130.102,24.352 C130.102,21.255 131.21,18.762 133.428,16.874 C135.391,15.207 137.867,14.374 140.851,14.374 C142.315,14.374 143.869,14.599 145.514,15.048 C147.159,15.498 148.406,16.041 149.257,16.677 C149.648,16.967 149.899,17.213 150.01,17.412 C150.121,17.614 150.184,17.943 150.198,18.398 L150.805,18.71 L154.169,11.878 L153.545,11.565 C153.154,11.886 152.813,12.046 152.52,12.046 C152.116,12.046 151.44,11.858 150.493,11.482 C148.652,10.772 147.01,10.267 145.568,9.966 C144.125,9.667 142.589,9.517 140.957,9.517 C135.828,9.517 131.715,10.798 128.621,13.36 C126.585,15.045 125.183,17.097 124.419,19.512 L124.419,12.18 C124.419,11.762 124.517,11.438 124.711,11.208 C124.907,10.978 125.254,10.801 125.756,10.675 L125.756,10.006 L116.843,10.006 L116.843,10.675 C117.344,10.815 117.692,10.996 117.887,11.219 C118.082,11.442 118.179,11.762 118.179,12.18 L118.179,19.465 C117.94,18.566 117.627,17.719 117.241,16.924 C115.959,14.262 113.982,12.354 111.308,11.198 C109.441,10.405 106.768,10.006 103.286,10.006 L87.39,10.006 L87.39,10.675 C87.891,10.815 88.24,10.996 88.434,11.219 C88.629,11.442 88.727,11.77 88.727,12.201 L88.727,36.336 C88.727,36.768 88.629,37.096 88.434,37.318 C88.24,37.54 87.891,37.722 87.39,37.862 L87.39,38.53 L103.286,38.53 C105.918,38.53 108.083,38.297 109.782,37.829 C111.482,37.364 112.965,36.587 114.232,35.5 C116.176,33.843 117.485,31.696 118.179,29.07 L118.179,36.336 C118.179,36.768 118.082,37.096 117.887,37.318 C117.692,37.54 117.344,37.722 116.843,37.862 L116.843,38.53 L125.756,38.53 L125.756,37.862 C125.268,37.736 124.924,37.558 124.722,37.328 C124.52,37.098 124.419,36.768 124.419,36.336 L124.419,29.04 C125.256,31.722 126.858,33.958 129.233,35.743 C132.147,37.928 135.914,39.02 140.531,39.02 C145.099,39.02 149.803,37.767 154.641,35.278 L154.641,36.336 C154.641,36.768 154.544,37.096 154.349,37.318 C154.153,37.54 153.806,37.722 153.305,37.862 L153.305,38.53 L162.218,38.53 L162.218,37.862 C161.73,37.736 161.386,37.558 161.184,37.328 C160.982,37.098 160.881,36.768 160.881,36.336 L160.881,16.068 L161.395,16.068 C161.533,15.559 161.714,15.209 161.936,15.018 C162.159,14.827 162.478,14.731 162.895,14.731 L169.595,14.731 L169.595,36.338 C169.595,36.77 169.498,37.096 169.303,37.319 C169.108,37.543 168.76,37.722 168.258,37.862 L168.258,38.53 L176.977,38.53 L177.172,38.53 L186.425,38.53 L186.425,37.862 C185.486,37.625 185.017,37.201 185.017,36.588 C185.017,36.268 185.149,35.831 185.413,35.273 L187.331,31.265 L200.261,31.265 L202.215,35.273 C202.494,35.844 202.633,36.275 202.633,36.567 C202.633,37.277 202.177,37.709 201.266,37.862 L201.266,38.53 L234.163,38.53 L234.163,37.862 C233.676,37.736 233.331,37.558 233.129,37.328 C232.928,37.098 232.826,36.768 232.826,36.336 L232.826,26.051 L240.797,26.051 C241.228,26.051 241.554,26.151 241.778,26.348 C242,26.545 242.18,26.893 242.32,27.388 L242.988,27.388 L242.988,20.168 L242.32,20.168 C242.18,20.662 242,21.008 241.778,21.207 C241.554,21.406 241.228,21.505 240.797,21.505 L232.826,21.505 L232.826,14.731 L246.306,14.731 L246.306,36.336 C246.306,36.768 246.209,37.096 246.013,37.318 C245.818,37.54 245.47,37.722 244.969,37.862 L244.969,38.53 L262.909,38.53 L262.909,37.862 C262.421,37.736 262.077,37.558 261.874,37.328 C261.673,37.098 261.572,36.776 261.572,36.357 L261.572,26.898 L269.085,26.898 L274.893,35.292 C275.548,36.253 275.876,36.859 275.876,37.109 C275.876,37.5 275.519,37.75 274.808,37.862 L274.808,38.53 L282.237,38.53 L282.887,38.53 L283.662,38.53 L283.722,38.53 L301.577,38.53 C301.991,38.53 302.311,38.628 302.532,38.823 C302.755,39.017 302.936,39.366 303.075,39.866 L303.744,39.866 L303.744,32.469 z" fill="#1A1919"/>
    <path d="M272.734,20.148 C272.15,20.231 271.149,20.272 269.732,20.272 L260.145,20.272 L260.145,12.829 L269.732,12.829 C271.177,12.829 272.181,12.868 272.743,12.944 C273.307,13.02 273.839,13.197 274.338,13.473 C275.394,14.042 275.923,15.068 275.923,16.55 C275.923,18.033 275.394,19.06 274.338,19.628 C273.853,19.891 273.318,20.064 272.734,20.148 M279.916,32.64 L274.374,24.774 C277.935,24.226 280.266,22.757 281.37,20.372 L281.37,34.435 C281.37,34.478 281.359,34.508 281.355,34.55 C280.963,34.079 280.485,33.446 279.916,32.64 M252.456,35.96 C251.969,35.834 251.623,35.658 251.422,35.428 C251.221,35.198 251.119,34.867 251.119,34.435 L251.119,10.278 C251.119,9.861 251.217,9.538 251.411,9.308 C251.607,9.077 251.955,8.9 252.456,8.774 L252.569,8.774 C253.07,8.913 253.419,9.094 253.613,9.318 C253.808,9.54 253.906,9.868 253.906,10.3 L253.906,34.455 C253.906,34.874 253.808,35.193 253.613,35.417 C253.419,35.64 253.07,35.821 252.569,35.96 z M187.76,25.442 L192.441,15.331 L197.037,25.442 z M106.944,30.883 C105.693,31.564 103.824,31.904 101.336,31.904 L93.54,31.904 L93.54,12.829 L101.336,12.829 C103.226,12.829 104.741,13.021 105.88,13.404 C107.019,13.786 107.992,14.429 108.799,15.331 C110.244,16.958 110.966,19.3 110.966,22.357 C110.966,26.582 109.625,29.424 106.944,30.883 M301.648,30.567 C301.51,31.069 301.329,31.417 301.109,31.612 C300.888,31.807 300.569,31.904 300.152,31.904 L287.609,31.904 L287.609,24.105 L293.422,24.105 C293.838,24.105 294.156,24.206 294.379,24.407 C294.599,24.61 294.779,24.954 294.92,25.442 L295.589,25.442 L295.589,18.222 L294.92,18.222 C294.779,18.723 294.599,19.072 294.379,19.266 C294.156,19.461 293.838,19.559 293.422,19.559 L287.609,19.559 L287.609,12.829 L299.66,12.829 C300.078,12.829 300.396,12.929 300.618,13.126 C300.838,13.325 301.019,13.671 301.16,14.167 L301.828,14.167 L301.828,6.768 L301.16,6.768 C301.019,7.262 300.838,7.608 300.615,7.807 C300.394,8.006 300.074,8.105 299.66,8.105 L280.033,8.105 L280.033,8.774 C280.535,8.913 280.883,9.094 281.078,9.318 C281.274,9.54 281.37,9.868 281.37,10.3 L281.37,12.818 C281.361,12.795 281.355,12.77 281.345,12.747 C280.802,11.507 279.982,10.524 278.883,9.799 C277.935,9.172 276.828,8.733 275.555,8.482 C274.281,8.231 272.559,8.105 270.39,8.105 L223.823,8.105 L223.823,8.774 C224.326,8.913 224.674,9.094 224.869,9.318 C225.064,9.54 225.161,9.868 225.161,10.3 L225.161,31.904 L213.252,31.904 L213.252,10.298 C213.252,9.867 213.349,9.537 213.545,9.305 C213.74,9.077 214.088,8.899 214.589,8.774 L214.589,8.105 L205.676,8.105 L205.676,8.774 C206.177,8.913 206.525,9.094 206.72,9.318 C206.915,9.54 207.012,9.868 207.012,10.3 L207.012,31.881 L196.89,11.386 C196.626,10.871 196.493,10.411 196.493,10.006 C196.493,9.422 196.905,9.011 197.727,8.774 L197.727,8.105 L187.615,8.105 L187.615,8.774 C188.422,9.052 188.825,9.512 188.825,10.153 C188.825,10.571 188.659,11.128 188.324,11.824 L177.829,33.744 C177.453,34.554 177.118,35.097 176.825,35.375 C176.553,35.634 176.162,35.818 175.66,35.932 C175.207,35.797 174.883,35.626 174.7,35.417 C174.506,35.194 174.409,34.869 174.409,34.437 L174.409,12.829 L181.087,12.829 C181.518,12.829 181.844,12.925 182.067,13.116 C182.29,13.307 182.469,13.658 182.609,14.167 L183.277,14.167 L183.224,8.105 L151.878,8.105 L151.878,8.774 C152.379,8.913 152.728,9.094 152.922,9.318 C153.117,9.54 153.215,9.861 153.215,10.278 L153.215,22.41 L141.284,22.41 C140.851,22.41 140.525,22.317 140.308,22.129 C140.091,21.941 139.913,21.59 139.774,21.075 L139.105,21.075 L139.105,27.715 L139.774,27.715 C139.914,27.214 140.092,26.866 140.31,26.67 C140.528,26.475 140.852,26.379 141.288,26.379 L148.376,26.379 L148.376,30.243 C147.259,30.868 145.935,31.361 144.402,31.72 C142.868,32.081 141.314,32.261 139.739,32.261 C136.504,32.261 133.898,31.413 131.918,29.72 C129.756,27.873 128.677,25.451 128.677,22.45 C128.677,19.353 129.785,16.861 132.001,14.972 C133.965,13.306 136.44,12.472 139.425,12.472 C140.888,12.472 142.443,12.698 144.087,13.147 C145.732,13.597 146.98,14.139 147.831,14.776 C148.221,15.066 148.472,15.312 148.584,15.512 C148.695,15.712 148.758,16.041 148.771,16.497 L149.379,16.808 L152.743,9.977 L152.119,9.664 C151.729,9.984 151.387,10.144 151.094,10.144 C150.689,10.144 150.014,9.957 149.066,9.579 C147.226,8.87 145.584,8.364 144.142,8.065 C142.699,7.766 141.163,7.615 139.532,7.615 C134.402,7.615 130.289,8.896 127.195,11.457 C125.158,13.144 123.758,15.196 122.993,17.61 L122.993,10.278 C122.993,9.861 123.09,9.538 123.285,9.308 C123.479,9.077 123.829,8.9 124.33,8.774 L124.33,8.105 L115.417,8.105 L115.417,8.774 C115.917,8.913 116.266,9.094 116.46,9.318 C116.655,9.54 116.753,9.861 116.753,10.278 L116.753,17.563 C116.513,16.665 116.201,15.817 115.814,15.023 C114.533,12.362 112.555,10.453 109.882,9.296 C108.014,8.503 105.342,8.105 101.86,8.105 L85.964,8.105 L85.964,8.774 C86.465,8.913 86.814,9.094 87.009,9.318 C87.203,9.54 87.301,9.868 87.301,10.3 L87.301,34.435 C87.301,34.867 87.203,35.193 87.009,35.417 C86.814,35.64 86.465,35.821 85.964,35.96 L85.964,36.628 L101.86,36.628 C104.492,36.628 106.657,36.395 108.356,35.929 C110.056,35.462 111.539,34.685 112.805,33.599 C114.75,31.942 116.059,29.794 116.753,27.168 L116.753,34.435 C116.753,34.867 116.655,35.193 116.46,35.417 C116.266,35.64 115.917,35.821 115.417,35.96 L115.417,36.628 L124.33,36.628 L124.33,35.96 C123.843,35.834 123.497,35.658 123.296,35.428 C123.094,35.198 122.993,34.867 122.993,34.435 L122.993,27.138 C123.831,29.82 125.432,32.056 127.807,33.841 C130.721,36.026 134.487,37.118 139.105,37.118 C143.673,37.118 148.378,35.865 153.215,33.377 L153.215,34.435 C153.215,34.867 153.117,35.193 152.922,35.417 C152.728,35.64 152.379,35.821 151.878,35.96 L151.878,36.628 L160.792,36.628 L160.792,35.96 C160.305,35.834 159.96,35.658 159.757,35.428 C159.556,35.198 159.455,34.867 159.455,34.435 L159.455,14.167 L159.969,14.167 C160.107,13.658 160.288,13.307 160.51,13.116 C160.732,12.925 161.053,12.829 161.469,12.829 L168.169,12.829 L168.169,34.437 C168.169,34.869 168.071,35.194 167.877,35.417 C167.681,35.641 167.334,35.822 166.832,35.96 L166.832,36.628 L175.55,36.628 L175.745,36.628 L184.998,36.628 L184.998,35.96 C184.061,35.723 183.591,35.299 183.591,34.687 C183.591,34.366 183.723,33.929 183.987,33.372 L185.906,29.363 L198.835,29.363 L200.789,33.372 C201.068,33.942 201.207,34.373 201.207,34.666 C201.207,35.375 200.75,35.807 199.84,35.96 L199.84,36.628 L232.738,36.628 L232.738,35.96 C232.249,35.834 231.905,35.658 231.703,35.428 C231.502,35.198 231.4,34.866 231.4,34.434 L231.4,24.149 L239.37,24.149 C239.802,24.149 240.128,24.249 240.351,24.447 C240.573,24.644 240.754,24.991 240.894,25.486 L241.562,25.486 L241.562,18.267 L240.894,18.267 C240.754,18.76 240.573,19.106 240.351,19.305 C240.128,19.505 239.802,19.603 239.37,19.603 L231.4,19.603 L231.4,12.829 L244.879,12.829 L244.879,34.435 C244.879,34.867 244.783,35.193 244.587,35.417 C244.392,35.64 244.044,35.821 243.542,35.96 L243.542,36.628 L261.482,36.628 L261.482,35.96 C260.995,35.834 260.651,35.658 260.449,35.428 C260.246,35.198 260.145,34.874 260.145,34.456 L260.145,24.996 L267.661,24.996 L273.466,33.391 C274.123,34.352 274.452,34.957 274.452,35.208 C274.452,35.598 274.094,35.849 273.383,35.96 L273.383,36.628 L280.811,36.628 L281.459,36.628 L282.237,36.628 L282.297,36.628 L300.151,36.628 C300.566,36.628 300.884,36.726 301.106,36.921 C301.329,37.116 301.51,37.465 301.648,37.965 L302.317,37.965 L302.317,30.567 z" fill="url(#Gradient_1)"/>
  </g>
  <defs>
    <linearGradient id="Gradient_1" gradientUnits="userSpaceOnUse" x1="194.141" y1="37.932" x2="194.141" y2="7.145">
      <stop offset="0" stop-color="#FFF101"/>
      <stop offset="0.52" stop-color="#D8232A"/>
      <stop offset="1" stop-color="#0079B4"/>
    </linearGradient>
  </defs>
</svg>
